<ttFont>
<head>
    <!-- Most of this table will be recalculated by the compiler -->
    <tableVersion value="1.0"/>
    <fontRevision value="2.39999389648"/>
    <checkSumAdjustment value="0xd9503135"/>
    <magicNumber value="0x5f0f3cf5"/>
    <flags value="00000010 00001011"/>
    <unitsPerEm value="1000"/>
    <created value="Tue Mar 27 08:51:39 2007"/>
    <modified value="Tue Mar 27 08:51:39 2007"/>
    <xMin value="-446"/>
    <yMin value="-312"/>
    <xMax value="6171"/>
    <yMax value="1377"/>
    <macStyle value="00000000 00000000"/>
    <lowestRecPPEM value="8"/>
    <fontDirectionHint value="0"/>
    <indexToLocFormat value="0"/>
    <glyphDataFormat value="0"/>
  </head>
          <CharString index="0">
            -22 -32 -19 -54 hvcurveto
            0 -70 16 -35 9 -88 8 -78 5 -90 2 -21 1 -6 2 -7 11 0 10 0 3 9 1 11 2 14 1 60 13 108 10 86 16 42 0 65 rrcurveto
            50 -29 23 -27 vhcurveto
            return
          </CharString>
          <CharString index="1">
            -29 23 -24 30 29 24 24 29 29 -24 24 -29 -30 -23 -24 -29 vhcurveto
            return
          </CharString>
          <CharString index="2">
            -9 26 -159 0 vhcurveto
            27 4 rlineto
            0 33 165 16 16 -9 17 -26 -30 -21 -28 -22 hvcurveto
            return
          </CharString>
          <CharString index="3">
            57 42 84 49 14 31 -9 -52 -55 -36 -92 -55 -19 -26 15 52 vhcurveto
            return
          </CharString>
          <CharString index="4">
            -52 30 -58 61 83 44 110 68 72 -46 19 -40 -74 -58 -83 -76 vhcurveto
            return
          </CharString>
          <CharString index="5">
            -18 0 -35 0 -54 25 -10 12 -29 13 -28 0 rrcurveto
            -72 -59 -83 -76 -52 28 -57 62 84 44 112 65 hvcurveto
            0 8 -1 9 -2 8 19 -11 38 -10 23 0 30 0 39 3 39 16 rrcurveto
            -360 -502 37 -9 413 576 -38 7 rlineto
            -41 -44 -67 -10 -42 0 rrcurveto
            return
          </CharString>
          <CharString index="6">
            58 42 83 49 18 27 -11 -49 -58 -36 -89 -55 -18 -27 14 52 vhcurveto
            return
          </CharString>
          <CharString index="7">
            174 -50 -174 -173 -49 173 -173 50 173 172 49 vlineto
            return
          </CharString>
          <CharString index="8">
            13 14 25 11 9 -3 9 -11 hvcurveto
            -229 hlineto
            -12 -13 -21 -16 -9 5 -8 10 hvcurveto
            return
          </CharString>
          <CharString index="9">
            -29 24 -24 29 29 24 24 29 29 -24 24 -29 -29 -24 -24 -29 vhcurveto
            return
          </CharString>
          <CharString index="10">
            22 0 -24 -34 hvcurveto
            -344 vlineto
            -29 0 -17 -38 vhcurveto
            -60 hlineto
            -6 0 -1 -5 -1 -3 rrcurveto
            0 -22 139 2 137 -2 0 22 rlineto
            6 -5 2 -3 vhcurveto
            -52 hlineto
            -33 -5 10 36 hvcurveto
            503 -19 vlineto
            -50 -36 -34 -21 -88 -41 rrcurveto
            12 -31 rlineto
            22 10 44 18 19 0 rrcurveto
            return
          </CharString>
          <CharString index="11">
            24 18 36 70 34 62 -26 -91 vhcurveto
            0 -61 -23 -45 -56 -57 rrcurveto
            -70 -73 rlineto
            -93 -95 -9 -43 0 -56 rrcurveto
            309 0 20 126 -25 4 rlineto
            -14 -55 -18 -17 -34 0 rrcurveto
            -170 hlineto
            0 47 67 66 5 5 rrcurveto
            95 92 rlineto
            54 52 39 38 0 76 rrcurveto
            115 -90 29 -77 -105 -55 -78 -57 -20 16 -17 22 16 20 10 26 vhcurveto
            0 16 -8 13 0 16 rrcurveto
            return
          </CharString>
          <CharString index="12">
            -20 -15 -17 -15 -38 80 -25 57 113 100 71 132 hvcurveto
            0 104 -74 41 -56 9 rrcurveto
            return
          </CharString>
          <CharString index="13">
            90 57 8 50 0 25 rrcurveto
            40 -29 61 -97 -139 -41 -92 -31 -3 2 -29 26 27 7 31 18 61 73 14 25 41 40 -28 -57 vhcurveto
            0 -46 -64 -75 -77 -13 rrcurveto
            4 -30 rlineto
            11 2 11 2 9 0 rrcurveto
            return
          </CharString>
          <CharString index="14">
            54 75 -17 -107 -126 -94 -33 -33 hvcurveto
            -81 0 13 64 -46 0 rrcurveto
            return
          </CharString>
          <CharString index="15">
            -10 0 -57 -82 0 -123 -154 0 rlineto
            87 111 62 138 33 125 -11 1 -23 3 -1 0 -4 0 -2 -1 -1 -4 -103 -276 -109 -89 0 -6 rrcurveto
            0 -3 14 -29 8 -11 rlineto
            3 -4 1 -2 4 0 rrcurveto
            196 -83 hlineto
            -29 -3 -13 -32 vhcurveto
            -27 hlineto
            -6 -1 -5 -2 hvcurveto
            -22 vlineto
            0 60 2 37 42 64 -2 0 vhcurveto
            22 vlineto
            2 -1 5 -6 vhcurveto
            -26 hlineto
            -30 -4 14 28 hvcurveto
            83 80 vlineto
            -10 47 -70 0 rlineto
            return
          </CharString>
          <CharString index="16">
            -38 0 -55 -21 -23 -28 11 80 33 67 46 45 48 48 56 16 65 6 rrcurveto
            -3 26 rlineto
            -98 -5 -67 -26 -64 -66 -69 -69 -31 -90 0 -92 rrcurveto
            -199 111 -43 73 138 34 115 68 46 -19 122 -148 vhcurveto
            return
          </CharString>
          <CharString index="17">
            205 0 -214 -508 3 -6 65 3 rlineto
            54 161 53 147 106 258 rrcurveto
            -2 5 -273 0 rlineto
            -23 0 0 11 -7 5 rrcurveto
            -21 6 -32 -149 25 -3 rlineto
            13 56 10 14 38 0 rrcurveto
            return
          </CharString>
          <CharString index="18">
            62 32 -50 -44 hvcurveto
            0 -51 -59 -46 -26 -19 rrcurveto
            -28 19 rlineto
            -60 39 -15 34 0 29 rrcurveto
            44 37 45 57 vhcurveto
            return
          </CharString>
          <CharString index="19">
            68 -55 51 -93 -97 -66 -58 -73 vhcurveto
            0 -53 29 -38 57 -38 rrcurveto
            17 -11 rlineto
            -24 -17 -20 -16 -24 -22 rrcurveto
            return
          </CharString>
          <CharString index="20">
            -39 -34 -16 -43 0 -37 rrcurveto
            -97 69 -53 100 124 59 93 72 vhcurveto
            0 55 -26 43 -48 32 rrcurveto
            -58 40 rlineto
            42 28 69 47 0 61 rrcurveto
            return
          </CharString>
          <CharString index="21">
            -43 -69 37 85 hvcurveto
            0 28 18 66 81 55 rrcurveto
            45 -27 rlineto
            60 -36 26 -45 0 -45 rrcurveto
            -95 -75 -23 -43 vhcurveto
            return
          </CharString>
          <CharString index="22">
            -29 24 -24 30 29 24 24 29 29 -24 24 -29 -30 -24 -24 -29 vhcurveto
            return
          </CharString>
          <CharString index="23">
            -29 24 -24 30 29 24 24 29 30 -24 24 -29 -30 -24 -24 -30 vhcurveto
            return
          </CharString>
          <CharString index="24">
            -29 24 -24 29 29 24 24 29 29 -24 24 -29 vhcurveto
            -29 -24 -24 -29 hvcurveto
            return
          </CharString>
          <CharString index="25">
            -31 -22 -23 -28 hvcurveto
            0 -33 26 -8 18 -2 rrcurveto
            return
          </CharString>
          <CharString index="26">
            19 -3 17 -4 0 -23 0 -21 -24 -30 -52 -13 rrcurveto
            5 -25 rlineto
            60 11 50 33 0 70 rrcurveto
            60 -26 39 -40 vhcurveto
            return
          </CharString>
          <CharString index="27">
            317 115 0 50 -390 -141 0 -48 390 -142 0 50 rlineto
            return
          </CharString>
          <CharString index="28">
            -395 -49 395 hlineto
            return
          </CharString>
          <CharString index="29">
            -19 -7 3 6 hvcurveto
            0 3 1 2 1 4 rrcurveto
            104 249 99 -267 rlineto
            return
          </CharString>
          <CharString index="30">
            0 6 1 6 3 7 rrcurveto
            65 155 rlineto
            4 11 8 6 24 0 rrcurveto
            211 0 64 -172 rlineto
            2 -6 1 -6 0 -5 rrcurveto
            -16 -16 -11 -31 vhcurveto
            -28 hlineto
            -5 -2 -3 -5 hvcurveto
            0 -19 1 -2 rlineto
            0 98 2 35 39 77 -2 0 vhcurveto
            3 2 0 19 rlineto
            5 -5 3 -5 vhcurveto
            -11 hlineto
            -40 0 -20 19 -14 39 rrcurveto
            -205 542 rlineto
            -7 21 -9 9 -18 0 -10 0 -8 -7 -9 -23 rrcurveto
            -234 -547 rlineto
            -14 -34 -18 -19 -41 0 rrcurveto
            -12 hlineto
            -5 -3 -3 -5 hvcurveto
            0 -19 2 -2 rlineto
            0 64 2 26 24 99 -2 0 vhcurveto
            2 2 0 19 rlineto
            5 -4 3 -4 vhcurveto
            -29 hlineto
            -30 -16 9 16 hvcurveto
            return
          </CharString>
          <CharString index="31">
            33 5 3 87 56 80 -18 -102 -85 -66 -33 -83 vhcurveto
            -79 hlineto
            return
          </CharString>
          <CharString index="32">
            117 64 -63 -90 -61 -35 -91 -152 -81 -7 6 33 hvcurveto
            return
          </CharString>
          <CharString index="33">
            -5 0 -1 -5 -1 -3 rrcurveto
            return
          </CharString>
          <CharString index="34">
            0 -21 129 1 rlineto
            29 0 47 -1 72 0 199 0 58 89 0 86 0 93 -46 68 -106 24 rrcurveto
            return
          </CharString>
          <CharString index="35">
            51 25 42 54 0 55 0 67 -34 86 -186 0 rrcurveto
            return
          </CharString>
          <CharString index="36">
            -35 0 -59 -1 -32 0 rrcurveto
            return
          </CharString>
          <CharString index="37">
            -32 -97 1 0 hvcurveto
            -21 vlineto
            return
          </CharString>
          <CharString index="38">
            -4 2 -3 5 vhcurveto
            30 hlineto
            42 10 -10 -34 hvcurveto
            -500 vlineto
            -35 -12 -11 -40 vhcurveto
            return
          </CharString>
          <CharString index="39">
            97 0 89 48 68 89 rrcurveto
            -23 15 rlineto
            -71 -78 -68 -33 -93 0 rrcurveto
            -155 -75 159 146 203 142 84 79 hvcurveto
            145 0 52 -78 25 -99 rrcurveto
            30 4 -22 165 rlineto
            -59 0 -37 45 -123 0 rrcurveto
            -166 -153 -146 -197 -161 103 -166 215 hvcurveto
            return
          </CharString>
          <CharString index="40">
            0 -20 128 2 rlineto
            return
          </CharString>
          <CharString index="41">
            36 0 43 -2 103 0 rrcurveto
            141 186 63 246 186 -153 152 -192 hvcurveto
            -34 0 -63 0 -67 -1 rrcurveto
            return
          </CharString>
          <CharString index="42">
            -128 1 0 -20 rlineto
            -5 4 -3 5 vhcurveto
            28 hlineto
            42 10 -10 -36 hvcurveto
            -498 vlineto
            -32 -14 -14 -38 vhcurveto
            -30 hlineto
            -4 -3 -4 -5 hvcurveto
            return
          </CharString>
          <CharString index="43">
            35 35 4 49 216 75 -175 -154 -202 -125 -49 -141 -98 -11 7 32 vhcurveto
            return
          </CharString>
          <CharString index="44">
            51 0 34 -60 7 -43 rrcurveto
            27 3 rlineto
            return
          </CharString>
          <CharString index="45">
            -256 0 -78 -1 rlineto
            return
          </CharString>
          <CharString index="46">
            -130 1 0 -21 rlineto
            -3 1 -4 7 vhcurveto
            30 hlineto
            38 14 -14 -31 hvcurveto
            -501 vlineto
            -28 -12 -16 -40 vhcurveto
            -30 hlineto
            -6 -2 -4 -3 hvcurveto
            0 -22 130 2 rlineto
            return
          </CharString>
          <CharString index="47">
            77 -1 294 0 25 160 -26 5 rlineto
            -16 -73 -28 -53 -66 0 rrcurveto
            -184 hlineto
            -22 -14 6 27 hvcurveto
            255 137 vlineto
            34 0 11 -15 5 -29 rrcurveto
            6 -31 rlineto
            -3 3 -4 5 vhcurveto
            23 0 3 3 rlineto
            -3 17 -5 45 0 34 0 33 5 37 3 25 rrcurveto
            2 -1 2 -3 vhcurveto
            -22 hlineto
            -4 -3 -4 -4 hvcurveto
            -7 -30 rlineto
            -6 -28 -9 -16 -35 0 rrcurveto
            -137 213 hlineto
            24 12 8 24 vhcurveto
            return
          </CharString>
          <CharString index="48">
            24 12 8 24 vhcurveto
            157 hlineto
            51 0 34 -60 7 -43 rrcurveto
            27 3 rlineto
            return
          </CharString>
          <CharString index="49">
            -125 1 -4 -1 0 -20 rlineto
            -2 1 -5 7 vhcurveto
            30 hlineto
            43 9 -15 -29 hvcurveto
            -502 vlineto
            -28 -14 -16 -41 vhcurveto
            -26 hlineto
            -5 -3 -3 -5 hvcurveto
            0 -19 2 -2 rlineto
            0 93 2 36 vhcurveto
            126 -2 1 2 0 19 rlineto
            5 -3 3 -5 vhcurveto
            -26 hlineto
            -40 -15 13 31 hvcurveto
            255 141 vlineto
            33 0 12 -15 5 -29 rrcurveto
            6 -31 rlineto
            -3 3 -4 5 vhcurveto
            23 0 3 3 rlineto
            -5 32 -3 30 0 34 0 33 4 39 4 23 rrcurveto
            2 -1 2 -3 vhcurveto
            -22 hlineto
            -4 -3 -4 -4 hvcurveto
            -7 -30 rlineto
            -6 -28 -9 -16 -35 0 rrcurveto
            -141 hlineto
            return
          </CharString>
          <CharString index="50">
            145 0 52 -78 25 -99 rrcurveto
            30 4 -22 165 rlineto
            -59 0 -35 45 -122 0 rrcurveto
            return
          </CharString>
          <CharString index="51">
            -28 -14 -16 -41 vhcurveto
            -26 hlineto
            -5 -3 -3 -5 hvcurveto
            0 -19 2 -2 rlineto
            0 93 2 36 39 87 -2 0 vhcurveto
            2 2 0 19 rlineto
            5 -4 3 -5 vhcurveto
            -26 hlineto
            -40 -15 13 31 hvcurveto
            502 vlineto
            28 14 16 41 vhcurveto
            26 hlineto
            5 3 3 5 hvcurveto
            0 19 -2 1 rlineto
            0 -93 -1 -36 -39 -87 1 0 vhcurveto
            -2 -1 0 -19 rlineto
            -5 4 -3 5 vhcurveto
            26 hlineto
            40 15 -14 -30 hvcurveto
            -211 -327 211 vlineto
            28 14 16 41 vhcurveto
            26 hlineto
            5 3 3 5 hvcurveto
            0 19 -2 1 rlineto
            0 -93 -1 -36 -39 -87 1 0 vhcurveto
            -2 -1 0 -19 rlineto
            -5 4 -3 4 vhcurveto
            27 hlineto
            39 15 -14 -30 hvcurveto
            -502 vlineto
            -28 -13 -16 -41 vhcurveto
            -27 hlineto
            -4 -3 -3 -5 hvcurveto
            0 -19 2 -2 rlineto
            0 93 2 35 40 86 -2 0 vhcurveto
            2 2 0 19 rlineto
            5 -4 3 -4 vhcurveto
            -26 hlineto
            -40 -15 13 31 hvcurveto
            252 327 vlineto
            return
          </CharString>
          <CharString index="52">
            28 14 16 41 vhcurveto
            26 hlineto
            5 3 3 5 hvcurveto
            0 19 -2 1 rlineto
            0 -93 -1 -36 -39 -87 1 0 vhcurveto
            -2 -1 0 -19 rlineto
            -5 4 -3 4 vhcurveto
            27 hlineto
            39 15 -14 -30 hvcurveto
            -503 vlineto
            -28 -13 -15 -41 vhcurveto
            -27 hlineto
            -4 -3 -3 -5 hvcurveto
            0 -19 2 -2 rlineto
            0 93 2 35 40 86 -2 0 vhcurveto
            2 2 0 19 rlineto
            5 -4 3 -4 vhcurveto
            -26 hlineto
            -40 -15 13 30 hvcurveto
            return
          </CharString>
          <CharString index="53">
            -28 0 -3 14 -3 12 -3 12 -7 27 -28 0 rrcurveto
            -15 -17 -5 -25 -53 71 -13 34 hvcurveto
            29 0 33 17 26 26 57 60 17 65 0 117 rrcurveto
            487 vlineto
            28 13 16 41 vhcurveto
            17 hlineto
            5 3 3 5 hvcurveto
            0 19 -2 1 rlineto
            0 -84 -1 -35 -39 -104 1 0 vhcurveto
            -2 -1 0 -19 rlineto
            -5 4 -3 4 vhcurveto
            37 hlineto
            39 22 -29 -30 hvcurveto
            -494 vlineto
            -180 -33 -52 -49 vhcurveto
            return
          </CharString>
          <CharString index="54">
            237 vlineto
            27 -4 17 -11 21 -23 rrcurveto
            182 -198 rlineto
            20 -22 0 -26 0 -18 rrcurveto
            0 -6 2 -2 rlineto
            0 24 2 36 39 75 -2 0 vhcurveto
            3 2 0 19 rlineto
            5 -5 3 -4 vhcurveto
            -7 hlineto
            -29 0 -23 16 -26 29 rrcurveto
            -239 260 rlineto
            -9 9 -5 8 0 8 0 9 10 12 29 28 rrcurveto
            160 151 rlineto
            49 46 36 9 40 5 rrcurveto
            6 5 3 5 hvcurveto
            0 19 -5 1 rlineto
            0 -61 -1 -35 -40 -76 1 0 vhcurveto
            -2 -1 0 -19 rlineto
            -5 4 -3 4 vhcurveto
            21 hlineto
            17 14 -10 -6 hvcurveto
            0 -9 -8 -13 -19 -18 rrcurveto
            -187 -176 rlineto
            -23 -21 -18 -13 -20 -5 rrcurveto
            227 vlineto
            28 14 16 41 vhcurveto
            26 hlineto
            5 3 3 5 hvcurveto
            0 19 -2 1 rlineto
            0 -93 -1 -36 -39 -87 1 0 vhcurveto
            -2 -1 0 -19 rlineto
            -5 4 -3 4 vhcurveto
            27 hlineto
            39 15 -14 -30 hvcurveto
            -502 vlineto
            -28 -13 -16 -41 vhcurveto
            -27 hlineto
            -4 -3 -3 -5 hvcurveto
            0 -19 2 -2 rlineto
            0 93 2 35 40 86 -2 0 vhcurveto
            2 2 0 19 rlineto
            5 -4 3 -4 vhcurveto
            -26 hlineto
            -40 -15 13 31 hvcurveto
            return
          </CharString>
          <CharString index="55">
            0 -19 2 -2 rlineto
            0 115 2 12 vhcurveto
            return
          </CharString>
          <CharString index="56">
            78 -1 254 0 20 160 -27 5 rlineto
            -15 -72 -45 -54 -66 0 rrcurveto
            -111 hlineto
            -29 -18 19 31 hvcurveto
            485 vlineto
            28 14 16 41 vhcurveto
            26 hlineto
            5 3 3 5 hvcurveto
            0 19 -2 1 rlineto
            0 -93 -1 -36 -39 -87 1 0 vhcurveto
            -2 -1 0 -19 rlineto
            -5 4 -3 4 vhcurveto
            27 hlineto
            39 15 -14 -30 hvcurveto
            -502 vlineto
            return
          </CharString>
          <CharString index="57">
            -35 -9 -9 -42 vhcurveto
            -30 hlineto
            -4 -4 -3 -5 hvcurveto
            return
          </CharString>
          <CharString index="58">
            6 0 4 3 4 8 rrcurveto
            215 529 40 -447 0 -13 rlineto
            -22 -6 -24 -27 vhcurveto
            -27 hlineto
            -4 -5 -3 -5 hvcurveto
            0 -19 3 -2 rlineto
            0 71 2 36 39 73 -2 0 vhcurveto
            2 2 0 19 rlineto
            5 -4 3 -7 vhcurveto
            -27 hlineto
            -33 0 -8 27 -2 32 rrcurveto
            -43 487 0 10 rlineto
            24 14 10 24 vhcurveto
            28 hlineto
            3 7 1 6 hvcurveto
            0 18 -2 3 -128 0 -208 -508 rlineto
            -5 -12 -2 -6 -2 0 -1 0 -5 10 -2 7 rrcurveto
            -215 509 -147 0 -3 -3 0 -18 rlineto
            -4 3 -3 7 vhcurveto
            29 hlineto
            24 14 -10 -25 hvcurveto
            0 -9 -36 -488 rlineto
            -3 -26 -7 -32 -32 0 rrcurveto
            -27 hlineto
            -6 -3 -3 -5 hvcurveto
            0 -19 1 -2 rlineto
            0 55 2 35 40 52 -2 0 vhcurveto
            2 3 0 18 rlineto
            5 -5 3 -5 vhcurveto
            -26 hlineto
            -25 -10 17 29 hvcurveto
            0 4 0 4 1 4 rrcurveto
            32 438 219 -519 rlineto
            3 -7 6 -4 6 0 rrcurveto
            return
          </CharString>
          <CharString index="59">
            -131 0 -2 -4 0 -16 rlineto
            -5 7 -3 5 vhcurveto
            5 hlineto
            33 0 29 -42 6 -26 rrcurveto
            -462 vlineto
            -27 -13 -33 -41 vhcurveto
            -26 hlineto
            -5 -8 -4 -5 hvcurveto
            0 -18 7 -2 rlineto
            0 72 2 35 40 71 -2 0 vhcurveto
            2 2 0 19 rlineto
            5 -4 3 -4 vhcurveto
            -26 hlineto
            -40 -15 30 30 hvcurveto
            351 vlineto
            34 2 15 8 vhcurveto
            6 0 11 -11 17 -22 rrcurveto
            349 -441 rlineto
            11 -15 13 -6 16 -1 rrcurveto
            14 7 10 19 hvcurveto
            536 vlineto
            30 15 31 39 vhcurveto
            27 hlineto
            4 4 3 5 hvcurveto
            0 19 -2 1 rlineto
            0 -72 -1 -39 -36 -74 1 0 vhcurveto
            -5 -1 0 -19 rlineto
            -5 9 -3 5 vhcurveto
            26 hlineto
            41 13 -34 -27 hvcurveto
            0 -379 1 -23 rlineto
            -11 -2 -4 -4 vhcurveto
            -15 0 3 35 -389 471 rrcurveto
            return
          </CharString>
          <CharString index="60">
            127 109 -106 -208 -179 -88 -109 -114 -132 -108 113 192 210 110 87 96 hvcurveto
            return
          </CharString>
          <CharString index="61">
            198 -148 131 -167 -179 -131 -152 -196 -197 139 -125 172 191 123 141 200 vhcurveto
            return
          </CharString>
          <CharString index="62">
            -25 0 -35 2 -11 3 rrcurveto
            286 vlineto
            19 7 44 7 19 0 rrcurveto
            69 74 -25 -127 hvcurveto
            -108 -57 -45 -97 vhcurveto
            return
          </CharString>
          <CharString index="63">
            -20 vlineto
            -3 1 -4 7 vhcurveto
            4 0 24 2 9 0 rrcurveto
            17 27 -6 -38 hvcurveto
            -504 vlineto
            -28 -14 -15 -41 vhcurveto
            -26 hlineto
            -5 -3 -3 -5 hvcurveto
            0 -19 2 -2 rlineto
            0 93 2 36 39 87 -2 0 vhcurveto
            2 2 0 19 rlineto
            5 -4 3 -4 vhcurveto
            -27 hlineto
            -39 -15 13 30 hvcurveto
            221 vlineto
            22 -7 19 -3 35 0 rrcurveto
            182 52 119 85 hvcurveto
            return
          </CharString>
          <CharString index="64">
            59 -36 109 -185 vhcurveto
            -73 0 -169 -10 -17 0 rrcurveto
            return
          </CharString>
          <CharString index="65">
            0 -42 -13 -35 -19 -28 -24 -34 -48 -17 -75 0 rrcurveto
            -50 296 hlineto
            23 5 28 3 36 0 60 0 82 -30 0 -118 rrcurveto
            return
          </CharString>
          <CharString index="66">
            0 50 -17 41 -36 34 -48 45 -70 5 -63 0 -117 0 -94 -7 -21 -5 rrcurveto
            -19 vlineto
            -4 3 -3 5 vhcurveto
            30 3 rlineto
            2 1 2 0 3 0 rrcurveto
            26 4 -17 -29 hvcurveto
            -502 vlineto
            -28 -14 -16 -41 vhcurveto
            -26 hlineto
            -5 -3 -3 -5 hvcurveto
            0 -19 2 -2 rlineto
            0 93 2 36 39 87 -2 0 vhcurveto
            2 2 0 19 rlineto
            5 -4 3 -4 vhcurveto
            -27 hlineto
            -39 -15 14 30 hvcurveto
            212 vlineto
            67 0 30 -6 4 -7 rrcurveto
            103 -192 rlineto
            26 -47 44 -38 60 0 15 0 17 2 10 4 rrcurveto
            -3 21 rlineto
            -40 -5 -31 38 -23 44 rrcurveto
            -106 205 rlineto
            43 14 94 56 0 106 rrcurveto
            return
          </CharString>
          <CharString index="67">
            31 1 rlineto
            2 16 4 6 12 0 24 0 16 -35 98 0 115 0 83 94 0 102 0 121 -93 41 -84 30 rrcurveto
            return
          </CharString>
          <CharString index="68">
            -42 15 -99 38 0 83 0 61 44 51 66 0 99 0 27 -61 17 -80 rrcurveto
            31 5 -19 143 rlineto
            -55 8 2 19 -93 0 -87 0 -101 -67 0 -106 0 -117 123 -50 72 -27 rrcurveto
            return
          </CharString>
          <CharString index="69">
            61 -24 50 -27 0 -91 0 -81 -58 -44 -76 0 -77 0 -69 78 -10 76 rrcurveto
            -2 9 -29 -3 rlineto
            7 -75 10 -15 0 -94 rrcurveto
            return
          </CharString>
          <CharString index="70">
            -16 0 -1 16 1 8 rrcurveto
            -26 6 -33 -155 23 -5 rlineto
            20 80 17 11 56 0 rrcurveto
            91 hlineto
            36 12 -9 -31 hvcurveto
            -488 vlineto
            -28 -13 -16 -41 vhcurveto
            -27 hlineto
            -5 -3 -3 -5 hvcurveto
            0 -19 2 -2 rlineto
            0 93 2 36 39 87 -2 0 vhcurveto
            2 2 0 19 rlineto
            5 -4 3 -4 vhcurveto
            -26 hlineto
            -40 -15 13 31 hvcurveto
            486 vlineto
            33 12 9 36 vhcurveto
            79 hlineto
            55 0 17 -11 20 -80 rrcurveto
            23 5 -32 155 -27 -6 rlineto
            1 -7 -1 -17 -15 0 rrcurveto
            return
          </CharString>
          <CharString index="71">
            205 46 127 178 hvcurveto
            281 vlineto
            28 14 16 41 vhcurveto
            26 hlineto
            5 3 3 5 hvcurveto
            0 19 -2 1 rlineto
            0 -74 -1 -36 -39 -71 1 0 vhcurveto
            -2 -1 0 -19 rlineto
            -5 4 -3 4 vhcurveto
            27 hlineto
            39 15 -13 -31 hvcurveto
            -299 vlineto
            -112 -15 -134 -169 vhcurveto
            -47 0 -42 21 -30 29 -53 53 0 70 0 65 rrcurveto
            307 vlineto
            28 14 16 41 vhcurveto
            26 hlineto
            5 3 3 5 hvcurveto
            0 19 -2 1 rlineto
            0 -93 -1 -36 -39 -87 1 0 vhcurveto
            -2 -1 0 -19 rlineto
            -5 4 -3 4 vhcurveto
            27 hlineto
            39 15 -13 -31 hvcurveto
            -340 vlineto
            -204 142 -42 90 vhcurveto
            return
          </CharString>
          <CharString index="72">
            0 -7 -3 -7 -4 -13 rrcurveto
            -135 -361 -31 -84 -31 87 -125 356 rlineto
            -3 8 -1 6 0 6 rrcurveto
            16 12 10 36 vhcurveto
            27 hlineto
            5 3 3 5 hvcurveto
            0 19 -2 1 rlineto
            0 -89 -1 -35 -39 -78 1 0 vhcurveto
            -2 -1 0 -19 rlineto
            -5 4 -3 4 vhcurveto
            33 0 26 -6 14 -40 rrcurveto
            197 -561 rlineto
            5 -15 8 -8 10 0 11 0 8 8 6 15 rrcurveto
            210 563 rlineto
            13 35 19 9 41 0 rrcurveto
            5 3 3 5 hvcurveto
            0 19 -2 1 rlineto
            0 -52 -1 -35 -39 -73 1 0 vhcurveto
            -2 -1 0 -19 rlineto
            -5 4 -3 4 vhcurveto
            18 hlineto
            34 21 -2 -15 hvcurveto
            return
          </CharString>
          <CharString index="73">
            14 0 10 10 4 14 rrcurveto
            117 358 rlineto
            4 12 5 13 5 0 5 0 4 -14 5 -14 rrcurveto
            117 -355 rlineto
            6 -17 13 -7 13 0 14 0 11 7 5 16 rrcurveto
            184 557 rlineto
            13 39 20 11 29 0 rrcurveto
            11 hlineto
            0 11 0 8 hvcurveto
            0 18 -1 2 rlineto
            0 -53 -1 -32 -42 -60 1 0 vhcurveto
            -2 -3 0 -18 rlineto
            -3 3 -4 5 vhcurveto
            27 hlineto
            24 10 -11 -15 hvcurveto
            0 -7 -1 -8 -3 -8 rrcurveto
            -117 -354 -38 -105 -145 444 rlineto
            -4 12 -2 11 0 10 rrcurveto
            18 8 13 20 vhcurveto
            29 hlineto
            4 5 2 5 hvcurveto
            0 19 -3 2 rlineto
            0 -79 -1 -49 -40 -56 1 0 vhcurveto
            -2 -2 0 -19 rlineto
            -4 5 -3 7 vhcurveto
            3 hlineto
            39 0 18 -19 8 -27 rrcurveto
            22 -64 rlineto
            3 -10 1 -9 0 -9 0 -13 -3 -13 -4 -12 rrcurveto
            -74 -226 -32 -105 -152 461 rlineto
            -4 11 -2 8 0 7 rrcurveto
            13 9 7 19 vhcurveto
            22 hlineto
            6 3 3 5 hvcurveto
            0 18 -2 2 rlineto
            0 -70 -1 -51 -38 -52 1 0 vhcurveto
            -2 -3 0 -18 rlineto
            -4 5 -3 7 vhcurveto
            13 hlineto
            28 0 18 -30 9 -26 rrcurveto
            182 -550 rlineto
            6 -16 12 -8 15 0 rrcurveto
            return
          </CharString>
          <CharString index="74">
            29 0 20 -11 28 -38 rrcurveto
            166 -225 rlineto
            9 -11 5 -9 0 -9 0 -7 -4 -9 -6 -8 rrcurveto
            -154 -210 rlineto
            -32 -45 -38 -8 -28 0 rrcurveto
            -6 -5 -2 -5 hvcurveto
            0 -20 1 -2 rlineto
            0 79 2 5 15 97 -2 0 vhcurveto
            3 2 0 20 rlineto
            0 3 -1 3 -5 1 rrcurveto
            -19 hlineto
            -19 -10 6 12 hvcurveto
            0 8 5 10 9 13 rrcurveto
            132 181 rlineto
            6 8 6 7 3 0 4 0 4 -4 6 -9 rrcurveto
            136 -187 rlineto
            11 -15 8 -11 0 -8 rrcurveto
            -8 -9 -3 -23 vhcurveto
            -24 hlineto
            -3 -3 -3 -4 hvcurveto
            0 -20 3 -2 rlineto
            0 122 2 7 vhcurveto
            12 0 62 -1 27 -1 rrcurveto
            2 2 0 20 rlineto
            6 -6 1 -6 vhcurveto
            -34 0 -19 14 -28 38 rrcurveto
            -174 232 rlineto
            -10 13 -6 10 0 10 0 9 4 9 9 12 rrcurveto
            140 190 rlineto
            30 41 36 12 35 0 rrcurveto
            8 1 4 3 hvcurveto
            0 20 -3 1 rlineto
            -17 0 -75 -1 -5 0 -11 0 -67 1 -21 0 rrcurveto
            -2 -1 0 -20 rlineto
            -5 3 -2 4 vhcurveto
            30 hlineto
            14 7 -3 -9 hvcurveto
            0 -7 -5 -13 -10 -14 rrcurveto
            -129 -175 rlineto
            -6 -8 -3 -4 -4 0 -3 0 -4 4 -5 8 rrcurveto
            -125 175 rlineto
            -10 14 -8 13 0 8 rrcurveto
            7 6 4 17 vhcurveto
            40 hlineto
            3 2 2 5 hvcurveto
            20 vlineto
            -1 -4 1 0 hvcurveto
            -30 0 -92 -1 -5 0 -11 0 -64 1 -26 0 rrcurveto
            -5 -1 0 -20 rlineto
            -6 7 -1 5 vhcurveto
            return
          </CharString>
          <CharString index="75">
            -28 -14 -16 -41 vhcurveto
            -26 hlineto
            -5 -3 -3 -5 hvcurveto
            0 -19 2 -2 rlineto
            0 93 2 36 39 87 -2 0 vhcurveto
            2 2 0 19 rlineto
            5 -4 3 -4 vhcurveto
            -27 hlineto
            -39 -16 13 31 hvcurveto
            0 221 149 281 rlineto
            18 32 13 12 30 0 rrcurveto
            21 hlineto
            7 3 2 5 hvcurveto
            0 20 -2 1 rlineto
            0 -78 -1 -9 -13 -79 1 0 vhcurveto
            -1 -1 0 -20 rlineto
            -3 1 -4 4 vhcurveto
            30 hlineto
            20 5 -3 -11 hvcurveto
            0 -5 -3 -9 -8 -14 rrcurveto
            -127 -235 -140 235 rlineto
            -8 14 -4 9 0 6 rrcurveto
            9 6 4 19 vhcurveto
            29 hlineto
            4 2 4 4 hvcurveto
            0 19 -1 1 rlineto
            0 -109 -1 -6 -13 -93 1 0 vhcurveto
            -1 -1 0 -20 rlineto
            -6 7 -1 3 vhcurveto
            12 hlineto
            23 0 16 -1 23 -43 rrcurveto
            170 -293 rlineto
            return
          </CharString>
          <CharString index="76">
            -17 -8 4 9 hvcurveto
            0 5 3 6 5 9 rrcurveto
            375 519 rlineto
            20 28 3 10 0 11 0 7 -3 4 -19 0 -12 0 -20 -2 -31 -3 rrcurveto
            -350 hlineto
            -48 0 27 15 -51 6 rrcurveto
            -21 -194 26 -2 rlineto
            4 45 29 90 74 0 rrcurveto
            261 hlineto
            7 3 -2 -6 hvcurveto
            0 -5 -3 -7 -5 -7 rrcurveto
            -389 -541 rlineto
            -6 -8 -2 -8 0 -7 rrcurveto
            -10 5 -5 14 vhcurveto
            491 0 29 174 -27 3 rlineto
            -7 -34 -34 -104 -80 0 rrcurveto
            return
          </CharString>
          <CharString index="77">
            103 -246 44 0 -126 303 -42 0 -126 -303 44 0 rlineto
            return
          </CharString>
          <CharString index="78">
            0 56 23 45 157 37 rrcurveto
            -165 vlineto
            -26 -22 -46 -29 -30 0 rrcurveto
            -67 -11 50 28 hvcurveto
            return
          </CharString>
          <CharString index="79">
            31 44 17 38 34 52 -21 -113 vhcurveto
            -92 -23 rlineto
            return
          </CharString>
          <CharString index="80">
            -95 -24 -65 -48 0 -80 0 -68 47 -47 74 0 46 0 17 10 46 32 rrcurveto
            23 16 rlineto
            return
          </CharString>
          <CharString index="81">
            4 -24 21 -34 38 0 rrcurveto
            55 33 23 85 hvcurveto
            -23 hlineto
            -24 -6 -36 -25 -23 -1 26 61 vhcurveto
            147 vlineto
            142 -84 30 -73 -64 -94 -51 -58 -24 16 -16 24 29 10 20 13 vhcurveto
            0 19 -6 -3 0 22 rrcurveto
            return
          </CharString>
          <CharString index="82">
            -31 0 -21 7 -20 25 rrcurveto
            302 vlineto
            39 40 52 2 11 0 rrcurveto
            61 52 -73 -102 -114 -48 -87 -95 hvcurveto
            return
          </CharString>
          <CharString index="83">
            2 -25 rlineto
            0 -4 2 -2 3 1 rrcurveto
            32 3 rlineto
            20 10 -15 -56 hvcurveto
            -502 vlineto
            0 -39 0 -16 -3 -23 rrcurveto
            21 -5 rlineto
            9 10 13 14 9 13 29 -25 32 -12 43 0 rrcurveto
            102 112 89 159 122 -83 84 -87 hvcurveto
            -49 0 -39 -18 -34 -37 rrcurveto
            309 -22 vlineto
            -46 -20 -61 -5 -15 0 rrcurveto
            return
          </CharString>
          <CharString index="84">
            60 0 48 27 44 76 rrcurveto
            -18 14 rlineto
            -31 -45 -38 -28 -43 0 rrcurveto
            -77 -63 81 117 108 49 70 66 hvcurveto
            59 0 6 -43 4 -33 3 -25 20 -11 21 0 rrcurveto
            21 18 15 29 52 -51 50 -96 -108 -89 -92 -142 -129 75 -91 120 hvcurveto
            return
          </CharString>
          <CharString index="85">
            47 0 27 -21 24 -38 rrcurveto
            -259 vlineto
            -40 -39 -27 -20 -33 0 rrcurveto
            -54 -68 60 131 hvcurveto
            140 59 46 65 vhcurveto
            return
          </CharString>
          <CharString index="86">
            2 -25 rlineto
            -3 3 -2 2 vhcurveto
            33 4 rlineto
            19 10 -17 -56 hvcurveto
            -153 vlineto
            -23 13 -44 9 -20 0 -66 0 -44 -22 -40 -38 -43 -43 -20 -62 0 -74 0 -123 66 -92 108 0 51 0 39 30 38 39 rrcurveto
            -3 -69 24 0 rlineto
            return
          </CharString>
          <CharString index="87">
            21 18 52 11 58 10 rrcurveto
            -4 28 rlineto
            -15 -3 -22 0 -12 0 -8 0 -11 6 -3 9 -2 7 -2 16 0 30 rrcurveto
            578 -22 vlineto
            -46 -20 -60 -6 -16 0 rrcurveto
            return
          </CharString>
          <CharString index="88">
            -184 hlineto
            17 122 75 9 23 0 rrcurveto
            36 47 -24 -93 -9 -4 -5 -10 hvcurveto
            return
          </CharString>
          <CharString index="89">
            72 0 59 37 38 52 rrcurveto
            -20 16 rlineto
            -35 -38 -35 -18 -55 0 -72 0 -71 79 0 102 0 8 0 6 1 6 rrcurveto
            263 hlineto
            11 7 6 11 84 -31 103 -132 -95 -100 -91 -152 -109 58 -102 137 hvcurveto
            return
          </CharString>
          <CharString index="90">
            19 15 15 21 32 -43 43 -75 -84 -81 -73 -156 hvcurveto
            -39 -51 vlineto
            -18 -5 -12 -8 hvcurveto
            -14 vlineto
            -4 1 -1 4 vhcurveto
            69 -319 hlineto
            -29 -9 -15 -34 vhcurveto
            -19 hlineto
            -5 -3 -3 -5 hvcurveto
            0 -19 2 -2 rlineto
            0 68 2 36 39 82 -2 0 vhcurveto
            2 2 0 19 rlineto
            5 -4 3 -4 vhcurveto
            -33 hlineto
            -33 -10 15 29 hvcurveto
            319 95 vlineto
            9 14 4 9 hvcurveto
            20 vlineto
            4 -3 2 -5 vhcurveto
            -110 56 hlineto
            154 38 24 33 vhcurveto
            70 0 -22 -77 55 0 rrcurveto
            return
          </CharString>
          <CharString index="91">
            -100 -51 -17 -35 -80 -20 82 52 78 35 36 52 vhcurveto
            60 39 -48 -83 hvcurveto
            return
          </CharString>
          <CharString index="92">
            -27 -24 -15 -43 0 -34 0 -36 18 -25 25 -13 rrcurveto
            return
          </CharString>
          <CharString index="93">
            -51 -32 -27 -46 0 -43 rrcurveto
            -87 81 -27 73 129 142 57 108 vhcurveto
            0 32 -15 24 -27 25 -40 34 -66 7 -35 0 -38 0 -39 -7 -19 0 rrcurveto
            return
          </CharString>
          <CharString index="94">
            2 -25 rlineto
            -3 2 -2 3 vhcurveto
            33 4 rlineto
            20 9 -16 -57 hvcurveto
            -501 vlineto
            -29 -9 -15 -34 vhcurveto
            -19 hlineto
            -5 -2 -3 -5 hvcurveto
            0 -19 2 -2 rlineto
            0 67 2 36 39 68 -2 0 vhcurveto
            2 2 0 19 rlineto
            5 -4 3 -4 vhcurveto
            -19 hlineto
            -33 -10 15 29 hvcurveto
            250 vlineto
            48 47 43 26 29 0 rrcurveto
            56 22 -19 -81 hvcurveto
            -223 vlineto
            -29 -9 -15 -34 vhcurveto
            -19 hlineto
            -5 -3 -3 -5 hvcurveto
            0 -19 2 -2 rlineto
            0 68 2 35 40 68 -2 0 vhcurveto
            2 2 0 19 rlineto
            5 -4 3 -4 vhcurveto
            -19 hlineto
            -33 -10 15 29 hvcurveto
            212 vlineto
            103 -36 55 -72 vhcurveto
            -39 0 -59 -16 -67 -67 rrcurveto
            339 -22 vlineto
            -46 -20 -60 -6 -16 0 rrcurveto
            return
          </CharString>
          <CharString index="95">
            -27 21 -21 26 27 21 21 27 26 -21 22 -27 vhcurveto
            -26 -21 -22 -26 hvcurveto
            return
          </CharString>
          <CharString index="96">
            5 -28 rlineto
            17 4 12 1 13 0 rrcurveto
            return
          </CharString>
          <CharString index="97">
            14 9 -8 -53 hvcurveto
            -249 vlineto
            -29 -10 -15 -33 vhcurveto
            -19 hlineto
            -5 -3 -3 -5 hvcurveto
            0 -19 2 -2 rlineto
            0 68 2 35 39 69 -2 0 vhcurveto
            2 2 0 19 rlineto
            5 -4 3 -5 vhcurveto
            -19 hlineto
            -32 -11 15 29 hvcurveto
            370 -15 vlineto
            -26 0 14 -18 -117 -19 rrcurveto
            return
          </CharString>
          <CharString index="98">
            -27 21 -21 27 26 22 21 27 26 -22 22 -26 vhcurveto
            -27 -21 -22 -26 hvcurveto
            return
          </CharString>
          <CharString index="99">
            5 -28 rlineto
            17 4 11 1 14 0 rrcurveto
            return
          </CharString>
          <CharString index="100">
            13 9 -8 -53 hvcurveto
            -284 vlineto
            -141 -30 -80 -44 vhcurveto
            -8 0 -5 6 -3 11 -5 21 -13 22 -24 0 rrcurveto
            -17 -15 -13 -25 -30 53 -21 41 hvcurveto
            24 0 29 12 27 27 55 55 10 56 0 130 rrcurveto
            375 -15 vlineto
            -26 0 13 -18 -116 -19 rrcurveto
            return
          </CharString>
          <CharString index="101">
            2 -25 rlineto
            -3 2 -2 3 vhcurveto
            1 0 4 1 3 0 rrcurveto
            25 3 rlineto
            20 9 -18 -55 hvcurveto
            -501 vlineto
            -29 -9 -15 -34 vhcurveto
            -19 hlineto
            -5 -2 -3 -5 hvcurveto
            0 -19 2 -2 rlineto
            0 67 2 36 39 51 -2 0 vhcurveto
            2 2 0 19 rlineto
            5 -4 3 -4 vhcurveto
            -2 hlineto
            -33 -10 15 29 hvcurveto
            139 vlineto
            30 5 14 -18 15 -22 rrcurveto
            73 -103 rlineto
            21 -29 2 -12 0 -12 rrcurveto
            0 -17 3 -4 rlineto
            0 27 2 35 39 51 -2 0 vhcurveto
            2 3 0 18 rlineto
            5 -6 3 -7 vhcurveto
            -3 hlineto
            -25 0 -31 18 -19 27 rrcurveto
            -117 173 rlineto
            -6 8 -1 9 6 7 rrcurveto
            76 84 rlineto
            24 26 45 22 27 0 rrcurveto
            7 hlineto
            5 6 3 5 hvcurveto
            0 19 -4 2 rlineto
            0 -54 -2 -39 -35 -48 2 0 vhcurveto
            -3 -2 0 -19 rlineto
            -4 3 -4 5 vhcurveto
            4 hlineto
            24 5 -9 -7 hvcurveto
            0 -10 -4 -13 -16 -16 -54 -59 -33 -30 -44 -22 rrcurveto
            462 -22 vlineto
            -46 -20 -60 -6 -16 0 rrcurveto
            return
          </CharString>
          <CharString index="102">
            2 -25 rlineto
            1 -3 2 -2 3 0 rrcurveto
            32 4 rlineto
            20 10 -16 -57 hvcurveto
            -501 vlineto
            -29 -10 -15 -33 vhcurveto
            -24 hlineto
            -5 -2 -3 -5 hvcurveto
            0 -19 1 -2 rlineto
            0 73 2 35 39 73 -2 0 vhcurveto
            2 2 0 19 rlineto
            5 -4 3 -4 vhcurveto
            -24 hlineto
            -32 -11 15 29 hvcurveto
            626 -22 vlineto
            -46 -20 -60 -6 -16 0 rrcurveto
            return
          </CharString>
          <CharString index="103">
            5 -28 rlineto
            17 4 12 1 13 0 rrcurveto
            13 9 -4 -57 hvcurveto
            -249 vlineto
            -29 -9 -15 -34 vhcurveto
            -19 hlineto
            -5 -3 -3 -5 hvcurveto
            0 -19 2 -2 rlineto
            0 68 2 36 39 68 -2 0 vhcurveto
            2 2 0 19 rlineto
            5 -4 3 -4 vhcurveto
            -19 hlineto
            -33 -10 15 29 hvcurveto
            248 vlineto
            47 49 33 25 35 0 rrcurveto
            38 26 -27 -67 hvcurveto
            -228 vlineto
            -29 -10 -15 -33 vhcurveto
            -19 hlineto
            -5 -3 -3 -5 hvcurveto
            0 -19 2 -2 rlineto
            0 68 2 35 39 69 -2 0 vhcurveto
            2 2 0 19 rlineto
            5 -4 3 -5 vhcurveto
            -19 hlineto
            -32 -11 15 29 hvcurveto
            209 vlineto
            0 14 0 14 -1 12 48 53 32 20 39 0 rrcurveto
            38 26 -25 -67 hvcurveto
            -230 vlineto
            -29 -10 -15 -33 vhcurveto
            -19 hlineto
            -5 -3 -3 -5 hvcurveto
            0 -19 2 -2 rlineto
            0 68 2 35 39 69 -2 0 vhcurveto
            2 2 0 19 rlineto
            5 -4 3 -5 vhcurveto
            -19 hlineto
            -32 -11 15 29 hvcurveto
            208 vlineto
            89 -14 73 -88 vhcurveto
            -54 0 -49 -26 -57 -60 -7 45 -33 41 -56 0 -62 0 -42 -37 -47 -50 rrcurveto
            -3 0 3 87 -15 0 rlineto
            -27 0 18 -17 -120 -20 rrcurveto
            return
          </CharString>
          <CharString index="104">
            5 -28 rlineto
            17 4 12 1 13 0 rrcurveto
            14 8 -7 -54 hvcurveto
            -249 vlineto
            -29 -9 -15 -34 vhcurveto
            -19 hlineto
            -5 -3 -3 -5 hvcurveto
            0 -19 2 -2 rlineto
            0 68 2 36 39 63 -2 0 vhcurveto
            2 2 0 19 rlineto
            5 -3 3 -5 vhcurveto
            -14 hlineto
            -33 -10 15 29 hvcurveto
            245 vlineto
            51 60 38 17 44 0 rrcurveto
            53 12 -33 -70 hvcurveto
            -219 vlineto
            -29 -10 -15 -33 vhcurveto
            -14 hlineto
            -5 -3 -3 -5 hvcurveto
            0 -19 2 -2 rlineto
            0 63 2 35 39 69 -2 0 vhcurveto
            2 2 0 19 rlineto
            5 -4 3 -5 vhcurveto
            -19 hlineto
            -32 -11 15 29 hvcurveto
            212 vlineto
            89 -19 69 -90 vhcurveto
            -51 0 -48 -14 -64 -75 rrcurveto
            -3 0 3 89 -15 0 rlineto
            -28 0 18 -17 -119 -20 rrcurveto
            return
          </CharString>
          <CharString index="105">
            -102 71 -115 134 142 65 126 100 104 -57 124 -148 -133 -74 -100 -137 vhcurveto
            return
          </CharString>
          <CharString index="106">
            82 56 -80 -147 -132 -67 -27 -45 -99 -43 128 77 87 36 94 80 hvcurveto
            return
          </CharString>
          <CharString index="107">
            -16 0 -33 2 -35 41 rrcurveto
            249 vlineto
            22 53 49 29 34 0 rrcurveto
            61 49 -67 -121 -86 -24 -100 -107 hvcurveto
            return
          </CharString>
          <CharString index="108">
            5 -28 rlineto
            17 4 12 1 13 0 rrcurveto
            14 9 -7 -38 hvcurveto
            -495 vlineto
            -29 -10 -15 -33 vhcurveto
            -19 hlineto
            -5 -3 -3 -5 hvcurveto
            0 -19 2 -2 rlineto
            0 68 2 35 39 69 -2 0 vhcurveto
            2 2 0 19 rlineto
            5 -4 3 -5 vhcurveto
            -19 hlineto
            -32 -11 15 29 hvcurveto
            168 vlineto
            26 -14 28 -8 36 0 53 0 41 19 39 39 45 46 25 62 0 81 0 106 -64 101 -97 0 -32 0 -54 -10 -46 -70 rrcurveto
            -3 0 3 80 -15 0 rlineto
            -27 0 18 -17 -120 -20 rrcurveto
            return
          </CharString>
          <CharString index="109">
            26 17 16 26 26 -15 20 -41 hvcurveto
            -47 0 -44 -51 -26 -39 rrcurveto
            -3 0 3 90 -15 0 rlineto
            -27 0 17 -17 -119 -20 rrcurveto
            5 -28 rlineto
            17 4 12 1 13 0 rrcurveto
            15 7 -11 -50 hvcurveto
            -249 vlineto
            -29 -9 -15 -34 vhcurveto
            -19 hlineto
            -5 -2 -3 -5 hvcurveto
            0 -19 1 -2 rlineto
            0 68 2 36 39 79 -2 0 vhcurveto
            2 2 0 19 rlineto
            5 -4 3 -5 vhcurveto
            -29 hlineto
            -33 -10 15 29 hvcurveto
            222 vlineto
            0 13 5 13 7 9 24 34 22 18 11 0 22 0 1 -27 38 0 rrcurveto
            return
          </CharString>
          <CharString index="110">
            47 105 28 100 hvcurveto
            0 80 -65 36 -81 30 -55 20 -19 20 0 40 0 55 39 15 38 0 21 0 60 -16 21 -82 rrcurveto
            27 1 rlineto
            -1 36 -4 34 -6 32 -31 16 -37 9 -50 0 -79 0 -59 -48 0 -67 0 -75 38 -21 73 -32 79 -34 24 -29 0 -43 0 -49 -52 -28 -35 0 rrcurveto
            -37 0 -27 18 -10 11 -25 26 -10 48 -1 22 rrcurveto
            -27 -1 7 -142 rlineto
            10 2 8 1 5 0 23 0 18 -13 68 0 rrcurveto
            return
          </CharString>
          <CharString index="111">
            94 hlineto
            10 14 4 9 hvcurveto
            20 vlineto
            4 -3 2 -5 vhcurveto
            return
          </CharString>
          <CharString index="112">
            -110 154 hlineto
            -58 -20 0 -19 rlineto
            -76 -16 -39 -67 -2 -1 -1 -3 vhcurveto
            -31 vlineto
            -3 2 -1 3 vhcurveto
            return
          </CharString>
          <CharString index="113">
            64 -304 hlineto
            -71 27 -28 46 vhcurveto
            46 0 40 22 39 44 rrcurveto
            -18 17 rlineto
            -26 -20 -20 -8 -26 0 rrcurveto
            -27 -6 30 62 hvcurveto
            return
          </CharString>
          <CharString index="114">
            0 236 1 79 rlineto
            0 -16 -2 -23 -28 -71 2 0 vhcurveto
            -2 -3 0 -25 2 -2 rlineto
            4 0 10 1 6 0 rrcurveto
            37 5 -17 -36 hvcurveto
            -247 vlineto
            -10 -13 -16 -14 -24 -18 -21 -15 -21 -9 -23 0 rrcurveto
            -30 -46 16 89 hvcurveto
            0 213 1 80 rlineto
            0 -23 -2 -14 -33 -67 2 0 vhcurveto
            -3 -3 0 -26 3 -1 rlineto
            7 1 6 0 4 0 rrcurveto
            37 7 -17 -33 hvcurveto
            -228 vlineto
            -69 26 -67 99 vhcurveto
            41 0 45 14 55 60 rrcurveto
            3 0 -3 -74 22 0 rlineto
            return
          </CharString>
          <CharString index="115">
            23 18 49 10 61 11 rrcurveto
            -4 28 rlineto
            -16 -3 -23 -2 -12 0 rrcurveto
            -21 -4 16 50 hvcurveto
            return
          </CharString>
          <CharString index="116">
            34 11 -7 -14 hvcurveto
            0 -7 -3 -9 -5 -12 rrcurveto
            -106 -261 -17 46 -86 218 rlineto
            -6 14 -4 8 0 7 0 10 9 6 20 1 rrcurveto
            17 hlineto
            3 6 1 7 hvcurveto
            0 19 -4 2 rlineto
            0 -61 -2 -39 -34 -53 2 0 vhcurveto
            -3 -2 0 -20 rlineto
            -5 5 -2 5 vhcurveto
            29 0 21 -12 14 -36 rrcurveto
            136 -345 rlineto
            6 -15 6 -6 13 0 10 0 7 6 7 17 rrcurveto
            138 339 rlineto
            16 39 24 13 28 0 rrcurveto
            6 5 4 5 hvcurveto
            0 18 -2 2 rlineto
            0 -41 -2 -27 -37 -57 2 0 vhcurveto
            -4 -2 0 -20 rlineto
            -3 3 -4 5 vhcurveto
            return
          </CharString>
          <CharString index="117">
            0 18 -2 3 rlineto
            0 -53 -2 -46 -44 -47 2 0 vhcurveto
            -2 -2 0 -20 rlineto
            -5 7 -2 5 vhcurveto
            30 0 18 -10 15 -38 rrcurveto
            137 -346 rlineto
            5 -15 9 -5 10 0 9 0 8 6 7 16 rrcurveto
            100 248 100 -250 rlineto
            6 -14 8 -6 10 0 9 0 8 6 6 15 rrcurveto
            136 338 rlineto
            18 44 26 11 25 0 rrcurveto
            5 7 2 6 hvcurveto
            0 19 -1 2 rlineto
            0 -40 -2 -34 -37 -66 2 0 vhcurveto
            -3 -2 0 -20 rlineto
            -3 4 -4 5 vhcurveto
            15 hlineto
            34 11 -12 -17 hvcurveto
            0 -8 -2 -7 -3 -7 rrcurveto
            -88 -217 -17 -47 -16 50 -87 219 rlineto
            -6 14 -4 10 0 8 rrcurveto
            10 9 4 20 vhcurveto
            18 hlineto
            5 5 3 5 hvcurveto
            0 19 -3 2 -100 -2 rlineto
            -35 -56 2 0 hvcurveto
            -2 -2 0 -20 rlineto
            -5 5 -2 5 vhcurveto
            30 0 21 -14 13 -34 rrcurveto
            18 -45 -71 -175 -18 -47 -16 51 -87 218 rlineto
            -5 14 -4 9 0 7 rrcurveto
            10 7 6 22 vhcurveto
            15 hlineto
            5 4 3 5 hvcurveto
            return
          </CharString>
          <CharString index="118">
            16 hlineto
            4 3 3 5 hvcurveto
            0 18 -3 3 -110 -2 -84 2 -2 -3 0 -19 rlineto
            -4 6 -3 7 vhcurveto
            39 0 20 -23 28 -42 rrcurveto
            87 -128 rlineto
            2 -3 0 -2 0 -2 0 -2 0 -2 -2 -2 rrcurveto
            -93 -122 rlineto
            -23 -29 -15 -17 -31 0 rrcurveto
            -9 hlineto
            -9 -4 -4 -6 hvcurveto
            0 -17 2 -2 rlineto
            0 47 2 30 33 51 -2 0 vhcurveto
            2 2 0 19 rlineto
            5 -2 3 -5 vhcurveto
            -14 hlineto
            -17 -7 3 9 hvcurveto
            0 5 4 6 13 20 rrcurveto
            65 92 rlineto
            3 3 3 5 2 0 2 0 3 -2 3 -5 rrcurveto
            59 -80 rlineto
            22 -35 4 -8 0 -4 rrcurveto
            -7 -5 -2 -17 vhcurveto
            -12 hlineto
            -5 -3 -3 -5 hvcurveto
            0 -19 2 -2 rlineto
            0 64 2 40 34 54 -2 0 vhcurveto
            2 2 0 19 rlineto
            6 -5 2 -9 vhcurveto
            -32 0 -14 1 -45 65 rrcurveto
            -90 127 rlineto
            -1 3 0 2 0 2 0 1 0 2 2 2 rrcurveto
            92 122 rlineto
            24 31 27 16 29 0 rrcurveto
            6 6 1 7 hvcurveto
            0 19 -2 2 rlineto
            0 -49 -2 -32 -30 -48 2 0 vhcurveto
            -3 -3 0 -19 rlineto
            -4 3 -3 4 vhcurveto
            16 hlineto
            17 3 -7 -6 hvcurveto
            0 -6 -1 -6 -15 -20 rrcurveto
            -66 -92 rlineto
            -4 -5 -2 -2 -2 0 -3 0 -3 2 -4 6 rrcurveto
            -61 92 rlineto
            -12 18 -3 9 0 5 rrcurveto
            7 3 5 20 vhcurveto
            return
          </CharString>
          <CharString index="119">
            -16 -25 -9 -29 -37 40 -11 19 hvcurveto
            75 0 33 70 31 71 rrcurveto
            182 426 rlineto
            13 31 13 19 33 0 rrcurveto
            7 hlineto
            7 4 3 5 hvcurveto
            0 19 -3 2 rlineto
            0 -41 -2 -28 -35 -55 2 0 vhcurveto
            -2 -3 0 -19 rlineto
            -3 5 -4 5 vhcurveto
            17 hlineto
            24 3 -7 -10 hvcurveto
            0 -6 -6 -16 -4 -10 rrcurveto
            -109 -259 -107 263 rlineto
            -5 11 -3 11 0 8 0 10 7 4 20 1 rrcurveto
            18 hlineto
            4 6 3 5 hvcurveto
            0 18 -2 3 rlineto
            0 -72 -2 -46 -31 -48 2 0 vhcurveto
            -2 -3 0 -19 rlineto
            -4 4 -3 6 vhcurveto
            7 hlineto
            33 0 15 -16 7 -16 rrcurveto
            149 -370 -26 -66 rlineto
            -23 -57 -16 -37 -25 0 -24 0 -4 31 -29 0 rrcurveto
            return
          </CharString>
          <CharString index="120">
            -3 0 -22 -1 -25 -2 rrcurveto
            -196 hlineto
            -16 0 -4 2 -1 15 rrcurveto
            -24 4 -31 -152 26 -5 rlineto
            19 84 29 13 30 0 rrcurveto
            142 0 -236 -359 rlineto
            -6 -9 -3 -7 0 -5 rrcurveto
            -6 8 -5 27 vhcurveto
            293 0 31 138 -26 5 rlineto
            -20 -77 -32 -27 -32 0 rrcurveto
            -158 0 229 348 rlineto
            9 14 8 14 0 6 0 9 -1 3 -15 0 rrcurveto
            return
          </CharString>
          <CharString index="121">
            -25 21 -20 25 25 20 20 25 25 -20 21 -25 -25 -21 -21 -25 vhcurveto
            return
          </CharString>
          <CharString index="122">
            -25 20 -20 25 25 21 20 25 25 -21 21 -25 -25 -20 -21 -25 vhcurveto
            return
          </CharString>
          <CharString index="123">
            156 126 127 156 156 -126 126 -156 -156 -127 -126 -156 -155 126 -128 157 hvcurveto
            return
          </CharString>
          <CharString index="124">
            139 112 -112 -139 -139 -113 -112 -138 -140 -112 113 138 139 112 112 140 hvcurveto
            return
          </CharString>
          <CharString index="125">
            13 11 17 12 7 -4 7 -10 hvcurveto
            -244 hlineto
            -12 -10 -17 -12 -7 3 -7 9 hvcurveto
            return
          </CharString>
          <CharString index="126">
            -11 -13 -8 -10 -21 52 -16 37 80 66 46 69 hvcurveto
            return
          </CharString>
          <CharString index="127">
            24 59 -12 -57 -69 -62 -15 -19 hvcurveto
            -62 0 20 32 -34 0 rrcurveto
            return
          </CharString>
          <CharString index="128">
            0 43 -32 70 0 65 0 5 6 4 6 0 11 -13 24 -12 22 0 61 0 44 28 40 44 0 -39 30 -33 38 0 52 0 20 30 19 50 rrcurveto
            -24 11 rlineto
            -11 -27 -10 -17 -13 0 rrcurveto
            -26 0 26 63 hvcurveto
            0 318 -75 -9 0 -334 rlineto
            -22 -33 -50 -33 -54 0 rrcurveto
            return
          </CharString>
          <CharString index="129">
            -53 -16 49 65 hvcurveto
            196 vlineto
            32 -3 67 0 vhcurveto
            -82 -9 rlineto
            0 10 -83 -28 hvcurveto
            -188 vlineto
            return
          </CharString>
          <CharString index="130">
            0 -63 -16 -47 0 -51 rrcurveto
            -41 38 -24 16 vhcurveto
            return
          </CharString>
          <CharString index="131">
            31 23 25 29 30 -27 25 -27 -29 -25 -27 -28 -28 21 -26 33 hvcurveto
            return
          </CharString>
          <CharString index="132">
            -458 -655 41 0 459 655 rlineto
            return
          </CharString>
          <CharString index="133">
            0 58 -47 27 -33 3 29 16 22 23 0 30 rrcurveto
            36 -33 22 -52 -87 -27 -53 -17 -3 2 -14 19 vhcurveto
            23 0 1 16 1 12 1 25 36 11 19 0 20 0 26 -10 0 -31 0 -41 -35 -28 -44 -6 rrcurveto
            2 -17 rlineto
            8 2 5 0 7 0 rrcurveto
            return
          </CharString>
          <CharString index="134">
            24 59 -12 -56 -70 -62 -15 -19 hvcurveto
            -62 0 20 32 -34 0 rrcurveto
            return
          </CharString>
          <CharString index="135">
            0 7 -4 7 -11 7 rrcurveto
            -121 85 -76 -46 155 -63 rlineto
            21 -8 13 -3 9 0 9 0 5 4 0 10 rrcurveto
            return
          </CharString>
          <CharString index="136">
            -43 hlineto
            -30 -34 -32 -32 -37 -29 rrcurveto
            14 -20 rlineto
            38 17 32 18 37 26 33 -24 34 -20 39 -17 rrcurveto
            16 20 rlineto
            -36 28 -35 30 -30 37 rrcurveto
            return
          </CharString>
          <CharString index="137">
            -25 21 -20 25 25 20 20 25 25 -20 20 -25 -25 -21 -20 -25 vhcurveto
            return
          </CharString>
          <CharString index="138">
            29 24 -25 -31 -28 -22 -28 -31 -32 -22 28 28 30 23 26 31 hvcurveto
            return
          </CharString>
          <CharString index="139">
            0 -40 29 -32 37 -9 -1 -2 -1 -2 -1 -3 rrcurveto
            -234 -547 rlineto
            -14 -34 -18 -19 -41 0 rrcurveto
            -12 hlineto
            -5 -3 -3 -5 hvcurveto
            0 -19 2 -2 rlineto
            0 64 2 26 24 99 -2 0 vhcurveto
            2 2 0 19 rlineto
            5 -4 3 -4 vhcurveto
            -29 hlineto
            -30 -16 9 16 hvcurveto
            0 6 1 6 3 7 rrcurveto
            65 155 rlineto
            4 11 8 6 24 0 rrcurveto
            211 0 64 -172 rlineto
            2 -6 1 -6 0 -5 rrcurveto
            -16 -16 -11 -31 vhcurveto
            -28 hlineto
            -5 -2 -3 -5 hvcurveto
            0 -19 1 -2 rlineto
            0 98 2 35 39 77 -2 0 vhcurveto
            3 2 0 19 rlineto
            5 -5 3 -5 vhcurveto
            -11 hlineto
            -40 0 -20 19 -14 39 rrcurveto
            -205 542 rlineto
            -2 5 -1 4 -2 3 31 13 21 30 0 33 rrcurveto
            47 -40 36 -46 -47 -38 -37 -46 vhcurveto
            return
          </CharString>
          <CharString index="140">
            -158 0 157 293 rlineto
            1 -6 0 -4 0 -13 rrcurveto
            return
          </CharString>
          <CharString index="141">
            0 -18 2 -2 rlineto
            0 94 2 35 vhcurveto
            return
          </CharString>
          <CharString index="142">
            76 -1 262 0 25 160 -26 5 rlineto
            -16 -73 -28 -53 -66 0 rrcurveto
            -152 hlineto
            -22 -14 6 27 hvcurveto
            260 101 vlineto
            34 0 11 -16 5 -28 rrcurveto
            6 -31 rlineto
            1 -4 2 -3 5 0 rrcurveto
            23 0 3 3 rlineto
            -4 32 -4 29 0 35 0 33 5 30 3 32 rrcurveto
            2 -1 2 -3 vhcurveto
            -22 hlineto
            -4 0 -2 -4 -1 -4 rrcurveto
            -7 -30 rlineto
            -6 -28 -9 -16 -35 0 rrcurveto
            -101 208 hlineto
            24 12 8 24 vhcurveto
            142 hlineto
            51 0 34 -60 7 -43 rrcurveto
            27 3 rlineto
            return
          </CharString>
          <CharString index="143">
            -246 0 -77 -1 rlineto
            return
          </CharString>
          <CharString index="144">
            -174 1 -1 -1 0 -20 rlineto
            -4 2 -3 5 vhcurveto
            32 hlineto
            15 17 -10 -17 hvcurveto
            0 -4 -1 -5 -3 -5 rrcurveto
            -267 -507 rlineto
            -19 -35 -12 -7 -29 0 rrcurveto
            -22 hlineto
            -6 -4 -3 -5 hvcurveto
            0 -19 1 -2 rlineto
            0 56 2 35 39 64 -2 0 vhcurveto
            2 2 0 21 rlineto
            3 -2 3 -4 vhcurveto
            -29 hlineto
            return
          </CharString>
          <CharString index="145">
            -24 -9 2 9 hvcurveto
            0 6 4 6 9 17 rrcurveto
            106 198 178 0 0 -194 rlineto
            return
          </CharString>
          <CharString index="146">
            -28 -13 -16 -41 vhcurveto
            -27 hlineto
            -5 -3 -4 -5 hvcurveto
            return
          </CharString>
          <CharString index="147">
            23 19 -14 -21 -27 -30 -14 -30 hvcurveto
            -20 0 -10 4 -27 10 rrcurveto
            -11 -22 rlineto
            25 -12 17 -6 33 0 rrcurveto
            61 45 29 42 39 -31 23 -40 hvcurveto
            -9 0 -9 -1 -8 -2 rrcurveto
            19 44 rlineto
            88 6 83 48 63 83 rrcurveto
            -23 15 rlineto
            -71 -78 -68 -33 -93 0 rrcurveto
            -155 -75 159 146 203 142 84 79 hvcurveto
            145 0 52 -78 25 -99 rrcurveto
            30 4 -22 165 rlineto
            -59 0 -37 45 -123 0 -166 0 -153 -146 0 -197 0 -157 98 -162 205 -8 rrcurveto
            -33 -72 6 -7 rlineto
            17 6 9 1 19 0 rrcurveto
            return
          </CharString>
          <CharString index="148">
            0 7 -5 7 -10 7 rrcurveto
            -121 85 -77 -46 155 -63 rlineto
            21 -8 13 -3 9 0 rrcurveto
            9 6 4 10 hvcurveto
            return
          </CharString>
          <CharString index="149">
            -43 hlineto
            -30 -34 -32 -32 -37 -28 rrcurveto
            14 -21 rlineto
            38 17 32 18 37 27 33 -25 34 -19 39 -18 rrcurveto
            16 21 rlineto
            -36 27 -35 31 -30 36 rrcurveto
            return
          </CharString>
          <CharString index="150">
            -25 21 -20 25 24 21 20 25 25 -21 20 -24 vhcurveto
            -25 -21 -20 -25 hvcurveto
            return
          </CharString>
          <CharString index="151">
            9 0 13 3 21 8 rrcurveto
            144 59 -62 52 -124 -87 rlineto
            -13 -8 -2 -6 0 -7 0 -9 5 -5 9 0 rrcurveto
            return
          </CharString>
          <CharString index="152">
            -25 20 -20 25 25 21 20 25 25 -21 20 -25 -25 -20 -20 -25 vhcurveto
            return
          </CharString>
          <CharString index="153">
            -25 21 -21 25 25 20 21 25 24 -20 21 -25 -25 -21 -21 -24 vhcurveto
            return
          </CharString>
          <CharString index="154">
            -128 1 0 -20 rlineto
            -5 4 -3 5 vhcurveto
            28 hlineto
            42 10 -10 -36 hvcurveto
            -246 -89 -39 89 -213 vlineto
            -32 -14 -14 -38 vhcurveto
            -30 hlineto
            -4 -3 -4 -5 hvcurveto
            return
          </CharString>
          <CharString index="155">
            0 7 -4 6 -11 8 rrcurveto
            -121 84 -76 -46 155 -62 rlineto
            21 -9 13 -3 9 0 9 0 5 5 0 10 rrcurveto
            return
          </CharString>
          <CharString index="156">
            -43 hlineto
            -31 -34 -32 -32 -37 -28 rrcurveto
            14 -21 rlineto
            38 17 33 18 36 27 33 -25 35 -19 39 -18 rrcurveto
            15 21 rlineto
            -36 27 -35 31 -29 36 rrcurveto
            return
          </CharString>
          <CharString index="157">
            -43 0 -23 -29 -13 -59 rrcurveto
            23 -5 rlineto
            10 33 13 15 26 0 38 0 37 -49 43 0 46 0 29 30 12 61 rrcurveto
            -24 6 rlineto
            -14 -42 -14 -11 -22 0 -42 0 -24 50 -58 0 rrcurveto
            return
          </CharString>
          <CharString index="158">
            -24 21 -21 24 25 21 21 24 25 -21 21 -25 -24 -21 -21 -25 vhcurveto
            return
          </CharString>
          <CharString index="159">
            0 -97 34 -80 55 -56 rrcurveto
            -74 -91 29 -26 74 91 rlineto
            53 -41 67 -22 73 0 191 0 123 141 0 200 0 97 -35 81 -56 57 rrcurveto
            66 82 -29 24 -65 -80 rlineto
            -55 43 -69 25 -72 0 -179 0 -131 -152 0 -196 rrcurveto
            return
          </CharString>
          <CharString index="160">
            65 0 60 -28 44 -55 rrcurveto
            -329 -404 rlineto
            -28 49 -18 64 0 77 0 210 110 87 96 0 rrcurveto
            return
          </CharString>
          <CharString index="161">
            -67 0 -60 29 -44 53 rrcurveto
            328 404 rlineto
            28 -50 17 -66 0 -82 0 -179 -88 -109 -114 0 rrcurveto
            return
          </CharString>
          <CharString index="162">
            -25 20 -20 25 25 20 20 25 25 -20 20 -25 -25 -20 -20 -25 vhcurveto
            return
          </CharString>
          <CharString index="163">
            8 0 13 3 22 8 rrcurveto
            144 59 -63 52 -124 -87 rlineto
            -12 -8 -3 -6 0 -7 0 -9 6 -5 9 0 rrcurveto
            return
          </CharString>
          <CharString index="164">
            -5 0 -6 -1 -4 -1 rrcurveto
            -79 -126 rlineto
            -7 -10 0 -7 0 -6 0 -6 7 -6 8 0 6 0 7 5 16 15 rrcurveto
            114 109 -2 11 rlineto
            -10 6 -9 17 -36 0 rrcurveto
            return
          </CharString>
          <CharString index="165">
            -50 hlineto
            -29 -46 -38 -44 -35 -39 rrcurveto
            20 -15 rlineto
            37 27 32 25 37 38 34 -36 34 -25 39 -29 rrcurveto
            20 15 rlineto
            -35 40 -37 42 -29 47 rrcurveto
            return
          </CharString>
          <CharString index="166">
            -25 20 -21 25 25 20 21 25 25 -20 20 -25 vhcurveto
            -25 -20 -20 -25 hvcurveto
            return
          </CharString>
          <CharString index="167">
            -25 20 -21 25 25 21 21 25 25 -21 20 -25 vhcurveto
            -25 -20 -20 -25 hvcurveto
            return
          </CharString>
          <CharString index="168">
            -47 38 -36 46 48 38 38 45 46 -40 37 -46 -46 -38 -38 -45 vhcurveto
            return
          </CharString>
          <CharString index="169">
            31 45 15 39 vhcurveto
            21 0 22 -10 15 -15 22 -22 10 -36 1 -79 rrcurveto
            return
          </CharString>
          <CharString index="170">
            -170 -12 -89 -40 0 -94 0 -68 56 -48 105 0 55 0 56 28 29 41 rrcurveto
            return
          </CharString>
          <CharString index="171">
            20 -25 43 -44 91 0 66 0 52 40 29 54 rrcurveto
            -17 10 rlineto
            -30 -35 -32 -20 -54 0 -75 0 -62 75 0 106 220 12 57 31 0 81 0 34 -44 66 -114 0 -57 0 -52 -25 -33 -45 rrcurveto
            return
          </CharString>
          <CharString index="172">
            -37 67 -77 3 -24 0 rrcurveto
            -82 -78 -44 -58 -20 9 -25 31 25 14 17 16 hvcurveto
            0 20 -6 -6 0 24 rrcurveto
            return
          </CharString>
          <CharString index="173">
            0 51 62 44 125 11 0 -50 -3 -48 -6 -18 -16 -50 -35 -19 -36 0 rrcurveto
            -64 -27 34 45 hvcurveto
            return
          </CharString>
          <CharString index="174">
            0 -61 -60 -17 -140 -8 rrcurveto
            return
          </CharString>
          <CharString index="175">
            9 85 40 70 68 0 48 0 35 -37 0 -32 rrcurveto
            return
          </CharString>
          <CharString index="176">
            23 18 -14 -21 -27 -29 -14 -31 hvcurveto
            -19 0 -11 4 -27 9 rrcurveto
            -10 -22 rlineto
            25 -11 17 -6 32 0 rrcurveto
            61 46 29 42 39 -31 23 -40 hvcurveto
            -9 0 -9 -1 -8 -2 rrcurveto
            15 37 9 0 rlineto
            60 0 48 27 44 76 rrcurveto
            -18 14 rlineto
            -31 -45 -38 -28 -43 0 rrcurveto
            -77 -63 81 117 108 49 70 66 hvcurveto
            59 0 6 -43 4 -33 3 -25 20 -11 21 0 rrcurveto
            21 18 15 29 52 -51 50 -96 -108 -89 -92 -142 hvcurveto
            0 -113 58 -84 95 -19 rrcurveto
            -31 -70 6 -6 rlineto
            16 5 10 2 19 0 rrcurveto
            return
          </CharString>
          <CharString index="177">
            0 7 -1 7 -6 9 rrcurveto
            -70 126 rlineto
            -3 2 -6 1 -5 0 -34 0 -23 -18 -8 -6 rrcurveto
            -3 -11 115 -109 rlineto
            16 -14 6 -5 7 0 8 0 7 6 0 5 rrcurveto
            return
          </CharString>
          <CharString index="178">
            -5 0 -6 -1 -3 -2 rrcurveto
            -80 -125 rlineto
            -6 -10 0 -8 0 -5 0 -7 6 -5 8 0 7 0 6 5 16 14 rrcurveto
            115 109 -3 11 rlineto
            -10 6 -9 18 -36 0 rrcurveto
            return
          </CharString>
          <CharString index="179">
            -25 21 -20 25 24 21 20 25 25 -21 21 -24 vhcurveto
            -25 -21 -21 -25 hvcurveto
            return
          </CharString>
          <CharString index="180">
            -25 20 -20 25 25 20 20 25 25 -20 21 -25 vhcurveto
            -25 -20 -21 -25 hvcurveto
            return
          </CharString>
          <CharString index="181">
            -184 hlineto
            17 122 75 9 23 0 rrcurveto
            return
          </CharString>
          <CharString index="182">
            72 0 59 37 38 52 rrcurveto
            -20 16 rlineto
            -35 -38 -35 -18 -55 0 rrcurveto
            return
          </CharString>
          <CharString index="183">
            -72 -71 79 102 hvcurveto
            0 8 0 6 1 6 rrcurveto
            263 hlineto
            11 7 6 11 84 -31 103 -132 -95 -100 -91 -152 -109 58 -102 137 hvcurveto
            return
          </CharString>
          <CharString index="184">
            0 7 -1 7 -6 9 rrcurveto
            -69 126 rlineto
            -4 2 -6 1 -5 0 -34 0 -23 -18 -8 -6 rrcurveto
            -2 -11 114 -109 rlineto
            16 -14 7 -5 6 0 8 0 7 6 0 5 rrcurveto
            return
          </CharString>
          <CharString index="185">
            5 -28 rlineto
            17 4 12 1 13 0 rrcurveto
            14 9 -8 -53 hvcurveto
            -249 vlineto
            -29 -10 -15 -33 vhcurveto
            -19 hlineto
            -5 -3 -3 -5 hvcurveto
            0 -19 2 -2 rlineto
            0 68 2 35 39 69 -2 0 vhcurveto
            2 2 0 19 rlineto
            5 -4 3 -5 vhcurveto
            -19 hlineto
            -32 -11 15 29 hvcurveto
            370 -15 vlineto
            -26 0 14 -18 -117 -19 rrcurveto
            return
          </CharString>
          <CharString index="186">
            -43 0 -23 -30 -13 -59 rrcurveto
            23 -5 rlineto
            10 33 13 15 26 0 38 0 37 -49 43 0 46 0 29 31 12 60 rrcurveto
            -24 6 rlineto
            -14 -42 -14 -11 -22 0 -42 0 -24 51 -58 0 rrcurveto
            return
          </CharString>
          <CharString index="187">
            -5 0 -7 -1 -3 -2 rrcurveto
            -80 -125 rlineto
            -6 -10 0 -8 0 -5 0 -7 7 -5 8 0 6 0 7 5 16 14 rrcurveto
            114 109 -2 11 rlineto
            -10 6 -9 18 -36 0 rrcurveto
            return
          </CharString>
          <CharString index="188">
            -50 hlineto
            -30 -46 -38 -43 -35 -40 rrcurveto
            20 -14 rlineto
            37 27 33 25 37 38 33 -36 34 -25 39 -29 rrcurveto
            21 14 rlineto
            -36 40 -37 42 -28 47 rrcurveto
            return
          </CharString>
          <CharString index="189">
            -25 20 -21 25 25 21 21 25 25 -21 20 -25 -25 -20 -20 -25 vhcurveto
            return
          </CharString>
          <CharString index="190">
            -25 21 -21 25 25 20 21 25 25 -20 20 -25 -25 -21 -20 -25 vhcurveto
            return
          </CharString>
          <CharString index="191">
            0 54 -15 59 -35 44 rrcurveto
            49 60 -31 23 -46 -55 rlineto
            -31 26 -42 17 -54 0 -133 0 -74 -100 0 -137 0 -51 18 -55 35 -42 rrcurveto
            -49 -59 30 -26 48 57 rlineto
            32 -25 41 -16 50 0 142 0 65 126 0 100 rrcurveto
            return
          </CharString>
          <CharString index="192">
            41 0 34 -20 24 -38 rrcurveto
            -192 -233 rlineto
            -16 37 -7 41 0 32 0 87 36 94 80 0 rrcurveto
            return
          </CharString>
          <CharString index="193">
            -43 0 -32 24 -23 34 rrcurveto
            190 232 rlineto
            13 -35 7 -44 0 -52 0 -132 -67 -27 -45 0 rrcurveto
            return
          </CharString>
          <CharString index="194">
            0 236 1 79 rlineto
            0 -16 -2 -23 -28 -71 2 0 vhcurveto
            -2 -3 0 -25 2 -2 rlineto
            4 0 10 1 6 0 rrcurveto
            37 5 -17 -36 hvcurveto
            -247 vlineto
            -10 -13 -16 -14 -24 -18 rrcurveto
            return
          </CharString>
          <CharString index="195">
            -21 -15 -21 -9 -23 0 rrcurveto
            -30 -46 16 89 hvcurveto
            0 213 1 80 rlineto
            0 -23 -2 -14 -33 -67 2 0 vhcurveto
            -3 -3 0 -26 3 -1 rlineto
            7 1 6 0 4 0 rrcurveto
            37 7 -17 -33 hvcurveto
            -228 vlineto
            -69 26 -67 99 vhcurveto
            41 0 45 14 55 60 rrcurveto
            3 0 -3 -74 22 0 rlineto
            return
          </CharString>
          <CharString index="196">
            -25 20 -20 25 25 20 20 25 25 -20 21 -25 -25 -20 -21 -25 vhcurveto
            return
          </CharString>
          <CharString index="197">
            -25 21 -20 24 25 21 20 25 25 -21 21 -25 -24 -21 -21 -25 vhcurveto
            return
          </CharString>
          <CharString index="198">
            12 11 17 12 7 -4 8 -10 hvcurveto
            -244 hlineto
            -12 -10 -18 -12 -7 3 -7 9 hvcurveto
            return
          </CharString>
          <CharString index="199">
            66 0 63 42 6 72 rrcurveto
            -27 hlineto
            -7 -39 -52 -22 -49 0 -53 0 -47 22 -8 39 rrcurveto
            -28 hlineto
            6 -70 57 -44 73 0 rrcurveto
            return
          </CharString>
          <CharString index="200">
            -61 0 -46 41 -2 51 rrcurveto
            -27 -14 rlineto
            7 -77 51 -58 78 0 49 0 75 35 10 100 rrcurveto
            -27 14 rlineto
            -2 -62 -60 -30 -45 0 rrcurveto
            return
          </CharString>
          <CharString index="201">
            9 0 12 3 22 9 rrcurveto
            144 58 -62 52 -124 -86 rlineto
            -13 -9 -3 -5 0 -7 0 -10 6 -5 9 0 rrcurveto
            return
          </CharString>
          <CharString index="202">
            -5 0 -7 -1 -3 -2 rrcurveto
            -80 -125 rlineto
            -6 -10 0 -8 0 -5 0 -7 7 -5 8 0 6 0 7 5 15 14 rrcurveto
            115 109 -2 11 rlineto
            -10 6 -9 18 -36 0 rrcurveto
            return
          </CharString>
          <CharString index="203">
            -27 22 -21 26 26 22 21 27 26 -22 21 -26 -26 -22 -21 -26 vhcurveto
            return
          </CharString>
          <CharString index="204">
            -27 21 -21 27 26 22 21 27 26 -22 22 -26 -27 -21 -22 -26 vhcurveto
            return
          </CharString>
          <CharString index="205">
            50 hlineto
            29 46 38 45 35 39 rrcurveto
            -19 14 rlineto
            -37 -27 -34 -26 -37 -38 -34 36 -33 26 -39 29 rrcurveto
            -20 -14 rlineto
            34 -37 38 -46 29 -47 rrcurveto
            return
          </CharString>
          <CharString index="206">
            -36 -11 -18 -15 -16 5 -25 41 7 4 -9 -9 hvcurveto
            0 -23 -18 -37 -42 -9 rrcurveto
            4 -17 rlineto
            91 5 15 75 0 26 rrcurveto
            36 -22 36 -38 vhcurveto
            return
          </CharString>
          <CharString index="207">
            47 0 27 -21 24 -38 rrcurveto
            -259 vlineto
            return
          </CharString>
          <CharString index="208">
            -40 -39 -27 -20 -33 0 rrcurveto
            -54 -68 60 131 140 59 46 65 hvcurveto
            return
          </CharString>
          <CharString index="209">
            21 18 52 11 58 10 rrcurveto
            -4 28 rlineto
            -15 -3 -22 0 -12 0 -8 0 -11 6 -3 9 -2 7 -2 16 0 30 rrcurveto
            413 78 vlineto
            -1 39 -77 0 0 126 -22 0 rlineto
            -46 -20 -60 -6 -16 0 rrcurveto
            return
          </CharString>
          <CharString index="210">
            13 11 18 12 6 -4 8 -10 hvcurveto
            -244 hlineto
            -12 -10 -17 -12 -7 3 -8 9 hvcurveto
            return
          </CharString>
          <CharString index="211">
            13 11 17 12 7 -4 8 -10 hvcurveto
            -245 hlineto
            -11 -11 -18 -12 -7 4 -7 9 hvcurveto
            return
          </CharString>
          <CharString index="212">
            65 0 63 42 6 72 rrcurveto
            -27 hlineto
            -7 -39 -51 -22 -49 0 -53 0 -47 22 -9 39 rrcurveto
            -27 hlineto
            5 -70 57 -44 74 0 rrcurveto
            return
          </CharString>
          <CharString index="213">
            36 47 -24 -93 -9 -4 -5 -10 hvcurveto
            return
          </CharString>
          <CharString index="214">
            -27 22 -21 26 27 21 21 27 26 -21 22 -27 vhcurveto
            -26 -22 -22 -26 hvcurveto
            return
          </CharString>
          <CharString index="215">
            -27 22 -21 26 26 22 21 27 26 -22 22 -26 -26 -22 -22 -26 vhcurveto
            return
          </CharString>
          <CharString index="216">
            43 hlineto
            30 33 33 33 37 28 rrcurveto
            -14 20 rlineto
            -38 -16 -33 -18 -36 -27 -34 25 -34 19 -39 17 rrcurveto
            -15 -20 rlineto
            36 -27 34 -31 30 -36 rrcurveto
            return
          </CharString>
          <CharString index="217">
            50 hlineto
            29 46 38 44 35 40 rrcurveto
            -19 13 rlineto
            -37 -27 -34 -25 -37 -38 -34 36 -32 25 -39 29 rrcurveto
            -21 -13 rlineto
            35 -38 37 -45 29 -47 rrcurveto
            return
          </CharString>
          <CharString index="218">
            -43 hlineto
            -31 -34 -32 -32 -37 -28 rrcurveto
            14 -21 rlineto
            38 17 33 18 36 27 33 -25 35 -19 39 -18 rrcurveto
            15 21 rlineto
            -36 27 -34 31 -30 36 rrcurveto
            return
          </CharString>
          <CharString index="219">
            -172 -171 -131 -220 -173 137 -146 201 hvcurveto
            118 0 81 37 68 58 rrcurveto
            return
          </CharString>
          <CharString index="220">
            -11 9 -5 8 0 11 rrcurveto
            116 vlineto
            28 9 16 35 vhcurveto
            1 hlineto
            5 3 3 5 hvcurveto
            0 26 -2 2 rlineto
            0 -58 -2 -35 -39 -87 2 0 vhcurveto
            -2 -2 0 -26 rlineto
            -5 4 -3 4 vhcurveto
            26 hlineto
            40 15 -13 -31 hvcurveto
            -153 vlineto
            -34 -32 -59 -18 -54 0 rrcurveto
            -178 -96 171 132 175 107 119 135 hvcurveto
            return
          </CharString>
          <CharString index="221">
            -80 -20 82 52 78 35 36 52 60 39 -48 -83 hvcurveto
            return
          </CharString>
          <CharString index="222">
            48 0 41 -10 28 -15 39 -19 14 -17 0 -26 rrcurveto
            -72 -109 -30 -86 -34 -90 22 75 vhcurveto
            0 34 7 31 31 29 rrcurveto
            return
          </CharString>
          <CharString index="223">
            14 -3 8 -2 16 0 rrcurveto
            19 0 35 3 19 0 rrcurveto
            return
          </CharString>
          <CharString index="224">
            -28 -33 11 43 hvcurveto
            0 20 6 21 11 17 23 -14 30 -7 37 0 84 0 80 53 0 98 0 47 -13 29 -28 30 7 10 19 14 12 0 19 0 -5 -29 33 0 rrcurveto
            20 14 14 22 21 -18 17 -25 hvcurveto
            -26 0 -45 -17 -25 -34 rrcurveto
            return
          </CharString>
          <CharString index="225">
            -11 8 -35 23 -56 0 -85 0 -81 -59 0 -92 0 -55 23 -34 27 -27 rrcurveto
            return
          </CharString>
          <CharString index="226">
            -36 -15 -24 -16 -17 9 -25 41 hvcurveto
            8 0 9 3 12 6 1 -3 1 -3 0 -4 0 -5 -3 -59 -77 -15 rrcurveto
            4 -16 rlineto
            91 3 17 76 0 26 rrcurveto
            36 -24 37 -38 vhcurveto
            return
          </CharString>
          <CharString index="227">
            65 0 63 42 6 71 rrcurveto
            -27 hlineto
            -6 -39 -52 -22 -49 0 -53 0 -47 22 -8 39 rrcurveto
            -28 hlineto
            5 -70 57 -43 74 0 rrcurveto
            return
          </CharString>
          <CharString index="228">
            6 -28 rlineto
            16 4 12 1 13 0 rrcurveto
            return
          </CharString>
          <CharString index="229">
            5 -28 rlineto
            17 4 11 1 14 0 rrcurveto
            13 9 -8 -53 hvcurveto
            -284 vlineto
            -141 -30 -80 -44 vhcurveto
            -8 0 -5 6 -3 11 -5 21 -13 22 -24 0 rrcurveto
            -17 -15 -13 -25 -30 53 -21 41 hvcurveto
            24 0 29 12 27 27 55 55 10 56 0 130 rrcurveto
            375 -15 vlineto
            -26 0 13 -18 -116 -19 rrcurveto
            return
          </CharString>
          <CharString index="230">
            9 0 13 3 21 9 rrcurveto
            144 58 -62 52 -124 -86 rlineto
            -13 -9 -2 -5 0 -7 rrcurveto
            -10 5 -5 9 vhcurveto
            return
          </CharString>
          <CharString index="231">
            8 0 13 3 22 9 rrcurveto
            144 58 -63 52 -124 -86 rlineto
            -12 -9 -3 -5 0 -7 0 -10 6 -5 9 0 rrcurveto
            return
          </CharString>
          <CharString index="232">
            -5 0 -7 -1 -3 -1 rrcurveto
            -80 -126 rlineto
            -6 -10 0 -7 0 -6 0 -6 7 -6 8 0 6 0 7 5 15 15 rrcurveto
            115 109 -2 11 rlineto
            -10 6 -9 17 -36 0 rrcurveto
            return
          </CharString>
          <CharString index="233">
            43 hlineto
            30 33 33 33 37 28 rrcurveto
            -15 20 rlineto
            -38 -16 -32 -18 -36 -27 -34 25 -34 19 -39 17 rrcurveto
            -16 -20 rlineto
            37 -27 34 -31 30 -36 rrcurveto
            return
          </CharString>
          <CharString index="234">
            50 hlineto
            29 46 38 45 35 39 rrcurveto
            -19 13 rlineto
            -37 -26 -34 -26 -37 -38 -34 36 -32 26 -39 28 rrcurveto
            -21 -13 rlineto
            35 -37 37 -46 29 -47 rrcurveto
            return
          </CharString>
          <CharString index="235">
            13 10 17 12 7 -3 8 -10 hvcurveto
            -245 hlineto
            -12 -10 -18 -11 -7 4 -8 8 hvcurveto
            return
          </CharString>
          <CharString index="236">
            13 10 17 12 7 -3 8 -10 hvcurveto
            -245 hlineto
            -12 -10 -18 -12 -7 4 -7 8 hvcurveto
            return
          </CharString>
          <CharString index="237">
            -102 71 -115 134 142 65 126 100 104 -57 124 -148 vhcurveto
            -133 -74 -100 -137 hvcurveto
            return
          </CharString>
          <CharString index="238">
            -4 0 -17 -1 -5 -13 rrcurveto
            -64 -146 rlineto
            -1 -1 0 -1 0 -1 0 -8 8 -5 6 0 3 0 3 1 2 2 rrcurveto
            102 121 rlineto
            4 5 1 6 0 5 0 22 -20 14 -18 0 rrcurveto
            return
          </CharString>
          <CharString index="239">
            -5 0 -6 -1 -3 -1 rrcurveto
            -80 -126 rlineto
            -6 -10 0 -7 0 -6 0 -6 7 -6 7 0 7 0 7 5 15 15 rrcurveto
            115 109 -3 11 rlineto
            -10 6 -9 17 -36 0 rrcurveto
            return
          </CharString>
          <CharString index="240">
            -36 -15 -24 -16 -16 9 -25 41 hvcurveto
            8 0 10 3 11 6 1 -3 1 -3 0 -4 0 -6 -3 -58 -76 -15 rrcurveto
            4 -17 rlineto
            90 4 17 76 0 26 rrcurveto
            35 -23 37 -39 vhcurveto
            return
          </CharString>
          <CharString index="241">
            26 17 16 26 26 -15 20 -41 hvcurveto
            return
          </CharString>
          <CharString index="242">
            -47 0 -44 -51 -26 -39 rrcurveto
            -3 0 3 90 -15 0 rlineto
            -27 0 17 -17 -119 -20 rrcurveto
            5 -28 rlineto
            17 4 12 1 13 0 rrcurveto
            15 7 -11 -50 hvcurveto
            -249 vlineto
            -29 -9 -15 -34 vhcurveto
            -19 hlineto
            -5 -2 -3 -5 hvcurveto
            0 -19 1 -2 rlineto
            0 68 2 36 39 79 -2 0 vhcurveto
            2 2 0 19 rlineto
            5 -4 3 -5 vhcurveto
            -29 hlineto
            -33 -10 15 29 hvcurveto
            222 vlineto
            0 13 5 13 7 9 24 34 22 18 11 0 22 0 1 -27 38 0 rrcurveto
            return
          </CharString>
          <CharString index="243">
            -5 0 -7 -1 -3 -1 rrcurveto
            -80 -126 rlineto
            -6 -10 0 -7 0 -5 0 -7 7 -6 8 0 6 0 7 5 16 15 rrcurveto
            114 109 -2 11 rlineto
            -10 6 -9 17 -36 0 rrcurveto
            return
          </CharString>
          <CharString index="244">
            -50 hlineto
            -29 -46 -38 -43 -35 -40 rrcurveto
            20 -14 rlineto
            37 27 32 25 37 38 34 -36 34 -25 39 -29 rrcurveto
            20 14 rlineto
            -35 40 -37 42 -29 47 rrcurveto
            return
          </CharString>
          <CharString index="245">
            50 hlineto
            29 46 39 45 34 39 rrcurveto
            -19 14 rlineto
            -37 -27 -34 -26 -37 -38 -34 36 -32 26 -39 29 rrcurveto
            -21 -14 rlineto
            35 -37 38 -46 28 -47 rrcurveto
            return
          </CharString>
          <CharString index="246">
            43 hlineto
            30 33 32 33 37 28 rrcurveto
            -14 20 rlineto
            -38 -16 -32 -18 -37 -27 -33 25 -34 19 -39 17 rrcurveto
            -16 -20 rlineto
            36 -27 35 -31 30 -36 rrcurveto
            return
          </CharString>
          <CharString index="247">
            -43 0 -23 -30 -14 -59 rrcurveto
            24 -5 rlineto
            10 33 13 15 26 0 38 0 37 -49 43 0 46 0 29 31 12 60 rrcurveto
            -24 6 rlineto
            -14 -42 -14 -11 -22 0 -42 0 -24 51 -58 0 rrcurveto
            return
          </CharString>
          <CharString index="248">
            -43 0 -22 -30 -14 -59 rrcurveto
            24 -5 rlineto
            9 33 14 15 25 0 39 0 37 -49 43 0 46 0 28 31 12 60 rrcurveto
            -23 6 rlineto
            -15 -42 -14 -11 -21 0 rrcurveto
            -42 0 -24 51 -59 0 rrcurveto
            return
          </CharString>
          <CharString index="249">
            -46 39 -37 46 48 38 38 45 47 -40 36 -46 -47 -38 -38 -45 vhcurveto
            return
          </CharString>
          <CharString index="250">
            -25 20 -20 25 25 21 20 25 25 -21 20 -25 vhcurveto
            -25 -20 -20 -25 hvcurveto
            return
          </CharString>
          <CharString index="251">
            -26 21 -22 27 26 21 22 26 26 -21 22 -26 -27 -21 -22 -26 vhcurveto
            return
          </CharString>
          <CharString index="252">
            43 hlineto
            31 33 32 33 37 28 rrcurveto
            -14 20 rlineto
            -38 -16 -33 -18 -36 -27 -33 25 -35 19 -39 17 rrcurveto
            -15 -20 rlineto
            36 -27 34 -31 30 -36 rrcurveto
            return
          </CharString>
          <CharString index="253">
            51 0 -23 -77 62 0 rrcurveto
            28 7 25 13 45 -49 31 -69 hvcurveto
            -62 0 -52 -47 -18 -49 -11 -30 -10 -30 0 -72 rrcurveto
            -32 -32 -8 -29 vhcurveto
            -2 -3 0 -33 3 -3 60 0 0 -319 rlineto
            -29 -9 -15 -34 vhcurveto
            -19 hlineto
            -5 -3 -3 -5 hvcurveto
            0 -19 2 -2 rlineto
            0 68 2 36 39 68 -2 0 vhcurveto
            2 2 0 19 rlineto
            5 -4 3 -4 vhcurveto
            -19 hlineto
            -33 -10 15 29 hvcurveto
            402 vlineto
            120 18 67 53 vhcurveto
            return
          </CharString>
          <CharString index="254">
            -110 0 -56 -37 -79 -74 rrcurveto
            23 -24 rlineto
            53 52 60 49 94 0 135 0 102 -141 0 -186 0 -14 -1 -12 -1 -11 rrcurveto
            -498 hlineto
            12 -142 81 -130 192 0 rrcurveto
            192 112 143 195 159 -95 173 -216 hvcurveto
            return
          </CharString>
          <CharString index="255">
            -97 0 -82 64 -32 130 rrcurveto
            409 hlineto
            -18 -100 -74 -94 -106 0 rrcurveto
            return
          </CharString>
          <CharString index="256">
            127 109 -106 -208 -179 -88 -109 -114 -132 -108 113 192 hvcurveto
            210 110 87 96 vhcurveto
            return
          </CharString>
          <CharString index="257">
            0 80 -24 68 -39 54 rrcurveto
            return
          </CharString>
          <CharString index="258">
            52 2 31 31 0 50 rrcurveto
            47 -19 41 -38 -29 -21 -17 -24 -20 9 -23 35 vhcurveto
            return
          </CharString>
          <CharString index="259">
            9 0 6 2 6 4 5 -5 2 -15 0 -9 rrcurveto
            -34 -42 -3 -11 vhcurveto
            -17 hlineto
            -59 63 -83 37 -88 0 rrcurveto
            -179 -131 -152 -196 -197 139 -125 172 191 123 141 200 hvcurveto
            return
          </CharString>
          <CharString index="260">
            -102 71 -115 134 142 65 126 100 vhcurveto
            0 49 -12 53 -29 42 53 2 30 32 0 49 rrcurveto
            47 -18 41 -38 -30 -21 -17 -24 -20 10 -23 35 vhcurveto
            9 0 6 2 5 4 5 -5 3 -15 0 -9 rrcurveto
            -34 -42 -3 -11 vhcurveto
            -17 hlineto
            -33 34 -46 23 -64 0 rrcurveto
            -133 -74 -100 -137 hvcurveto
            return
          </CharString>
          <CharString index="261">
            57 0 17 -44 19 -56 rrcurveto
            26 3 rlineto
            return
          </CharString>
          <CharString index="262">
            -14 140 -393 -1 -111 1 -2 -1 0 -25 2 -2 rlineto
            14 0 25 -6 27 -36 rrcurveto
            184 -266 -217 -269 rlineto
            -9 -12 -12 -1 -13 0 rrcurveto
            -2 -3 0 -24 2 -2 519 1 16 160 -26 2 rlineto
            -18 -75 -14 -44 -70 0 rrcurveto
            -316 0 232 288 rlineto
            return
          </CharString>
          <CharString index="263">
            47 -19 41 -38 -29 -21 -18 -23 -20 10 -23 34 vhcurveto
            10 0 6 2 5 3 5 -4 2 -15 0 -9 0 -25 -23 -9 -16 -2 rrcurveto
            -1 hlineto
            0 -74 -1 -36 -39 -71 1 0 vhcurveto
            -2 -1 0 -19 rlineto
            -5 4 -3 4 vhcurveto
            27 hlineto
            39 15 -13 -31 hvcurveto
            -299 vlineto
            -112 -15 -134 -169 vhcurveto
            -47 0 -42 21 -30 29 -53 53 0 70 0 65 rrcurveto
            307 vlineto
            28 14 16 41 vhcurveto
            26 hlineto
            5 3 3 5 hvcurveto
            0 19 -2 1 rlineto
            0 -93 -1 -36 -39 -87 1 0 vhcurveto
            -2 -1 0 -19 rlineto
            -5 4 -3 4 vhcurveto
            27 hlineto
            39 15 -13 -31 hvcurveto
            -340 vlineto
            -204 142 -42 90 205 46 127 178 vhcurveto
            281 vlineto
            28 14 16 41 vhcurveto
            26 hlineto
            14 67 8 75 hvcurveto
            return
          </CharString>
          <CharString index="264">
            355 hlineto
            21 7 -6 -8 hvcurveto
            0 -10 -8 -17 -8 -14 rrcurveto
            -167 -303 rlineto
            134 -27 63 -99 0 -111 rrcurveto
            -139 -132 -123 -160 -80 -150 35 66 23 10 27 34 vhcurveto
            27 0 28 -14 13 -21 32 -49 50 -30 55 0 rrcurveto
            87 97 121 95 159 -114 54 -69 hvcurveto
            -16 0 -11 0 -15 -3 rrcurveto
            196 354 -249 0 rlineto
            -74 -1 -29 -89 -4 -45 rrcurveto
            -26 2 21 194 rlineto
            23 -4 35 -17 24 0 rrcurveto
            return
          </CharString>
          <CharString index="265">
            -27 22 -21 26 26 22 21 27 26 -22 22 -26 vhcurveto
            -26 -22 -22 -26 hvcurveto
            return
          </CharString>
          <CharString index="266">
            0 32 3 13 33 1 rrcurveto
            30 hlineto
            7 1 3 4 hvcurveto
            19 vlineto
            -19 0 -35 -1 -44 0 -68 0 12 1 -14 0 rrcurveto
            -20 vlineto
            -2 1 -4 6 vhcurveto
            4 hlineto
            34 -2 3 -12 0 -32 rrcurveto
            -302 vlineto
            0 -28 -2 -31 -3 -34 -5 -47 -31 -111 -143 0 -39 0 -33 13 -30 23 -70 50 -1 97 0 45 rrcurveto
            324 vlineto
            0 31 3 14 35 1 rrcurveto
            5 hlineto
            3 5 1 6 hvcurveto
            20 vlineto
            -53 -1 -1 0 -37 0 -53 0 -48 1 -13 0 rrcurveto
            -21 vlineto
            -2 1 -4 6 vhcurveto
            30 hlineto
            33 -2 4 -10 0 -34 rrcurveto
            -353 vlineto
            -188 140 -48 111 vhcurveto
            81 0 40 25 24 20 72 62 15 74 0 125 rrcurveto
            return
          </CharString>
          <CharString index="267">
            12 11 17 12 7 -4 8 -10 hvcurveto
            -244 hlineto
            -12 -10 -18 -12 -6 3 -8 9 hvcurveto
            return
          </CharString>
          <CharString index="268">
            184 hlineto
            -17 -122 -75 -9 -23 0 rrcurveto
            -36 -48 24 94 8 5 5 10 hvcurveto
            return
          </CharString>
          <CharString index="269">
            -71 0 -59 -37 -38 -52 rrcurveto
            20 -16 rlineto
            35 38 35 18 55 0 72 0 71 -79 0 -102 0 -8 0 -6 -1 -6 rrcurveto
            -263 hlineto
            -11 -7 -5 -12 -84 31 -103 131 96 100 91 152 109 -58 102 -138 hvcurveto
            return
          </CharString>
          <CharString index="270">
            13 10 18 12 6 -3 8 -10 hvcurveto
            -245 hlineto
            -12 -10 -17 -12 -7 4 -8 8 hvcurveto
            return
          </CharString>
          <CharString index="271">
            -26 21 -21 26 27 21 21 26 27 -21 21 -27 -26 -21 -21 -27 vhcurveto
            return
          </CharString>
          <CharString index="272">
            41 0 36 22 29 45 rrcurveto
            -15 7 rlineto
            -22 -22 -16 -14 -30 0 -36 0 -24 26 0 26 0 65 42 42 60 45 92 57 54 106 0 133 rrcurveto
            198 -148 131 -167 -179 -131 -152 -196 -197 139 -125 172 vhcurveto
            27 0 25 3 24 5 -39 -35 -30 -43 0 -43 0 -55 42 -29 54 0 rrcurveto
            return
          </CharString>
          <CharString index="273">
            41 0 36 22 29 45 rrcurveto
            -15 8 rlineto
            -22 -23 -16 -13 -30 0 -36 0 -24 26 0 25 0 58 40 43 40 38 64 44 31 81 0 68 rrcurveto
            104 -57 124 -148 -133 -74 -100 -137 -102 71 -115 134 vhcurveto
            12 0 11 1 11 1 -35 -34 -26 -39 0 -41 0 -55 42 -29 54 0 rrcurveto
            return
          </CharString>
          <CharString index="274">
            -11 -9 1 16 hvcurveto
            -22 4 -32 -152 27 -5 rlineto
            18 84 29 13 31 0 rrcurveto
            142 0 -157 -285 rlineto
            22 5 19 2 18 0 rrcurveto
            78 67 -63 -85 -118 -88 -47 -50 hvcurveto
            -40 0 -28 23 -13 23 -12 21 -16 7 -23 0 rrcurveto
            -21 -8 -15 -16 -32 62 -40 91 144 76 99 96 hvcurveto
            0 106 -62 70 -118 10 rrcurveto
            131 236 rlineto
            5 13 4 10 0 6 rrcurveto
            9 -6 4 -18 vhcurveto
            return
          </CharString>
          <CharString index="275">
            9 0 13 3 21 8 rrcurveto
            144 59 -62 52 -124 -87 rlineto
            -13 -8 -2 -6 0 -7 rrcurveto
            -9 5 -5 9 vhcurveto
            return
          </CharString>
          <CharString index="276">
            -4 0 -7 -1 -3 -2 rrcurveto
            -80 -125 rlineto
            -6 -10 0 -8 0 -5 0 -7 7 -5 7 0 7 0 7 5 15 14 rrcurveto
            115 109 -2 11 rlineto
            -10 6 -10 18 -36 0 rrcurveto
            return
          </CharString>
          <CharString index="277">
            0 -5 1 -6 5 -5 rrcurveto
            102 -121 rlineto
            2 -2 2 -1 3 0 7 0 7 6 0 7 rrcurveto
            0 3 -64 146 rlineto
            -6 13 -17 1 -4 0 -17 0 -21 -14 0 -22 rrcurveto
            return
          </CharString>
          <CharString index="278">
            -65 0 -63 -42 -6 -72 rrcurveto
            27 hlineto
            7 39 51 22 49 0 53 0 47 -22 9 -39 rrcurveto
            27 hlineto
            -5 70 -57 44 -74 0 rrcurveto
            return
          </CharString>
          <CharString index="279">
            60 0 47 -40 2 -51 rrcurveto
            26 13 rlineto
            -7 78 -51 58 -77 0 -50 0 -75 -35 -10 -101 rrcurveto
            27 -13 rlineto
            2 62 60 29 46 0 rrcurveto
            return
          </CharString>
          <CharString index="280">
            61 0 46 -40 2 -51 rrcurveto
            27 13 rlineto
            -8 78 -50 58 -78 0 -50 0 -75 -35 -9 -101 rrcurveto
            26 -13 rlineto
            3 62 59 29 46 0 rrcurveto
            return
          </CharString>
          <CharString index="281">
            -16 0 -1 16 1 8 rrcurveto
            -26 6 -33 -155 23 -5 rlineto
            20 80 17 11 56 0 rrcurveto
            91 hlineto
            return
          </CharString>
          <CharString index="282">
            36 12 -9 -31 hvcurveto
            -488 vlineto
            -28 -13 -16 -41 vhcurveto
            -27 hlineto
            -5 -3 -3 -5 hvcurveto
            0 -19 2 -2 rlineto
            0 93 2 36 39 87 -2 0 vhcurveto
            2 2 0 19 rlineto
            5 -4 3 -4 vhcurveto
            -26 hlineto
            -40 -15 13 31 hvcurveto
            486 vlineto
            33 12 9 36 vhcurveto
            79 hlineto
            55 0 17 -11 20 -80 rrcurveto
            23 5 -32 155 -27 -6 rlineto
            1 -7 -1 -17 -15 0 rrcurveto
            return
          </CharString>
          <CharString index="283">
            77 -1 33 0 -37 -81 7 -6 rlineto
            16 5 10 2 19 0 rrcurveto
            return
          </CharString>
          <CharString index="284">
            23 19 -14 -21 -27 -30 -14 -30 hvcurveto
            -20 0 -10 4 -27 10 rrcurveto
            -11 -22 rlineto
            25 -12 18 -6 32 0 rrcurveto
            61 45 29 42 39 -31 23 -40 hvcurveto
            -9 0 -9 -1 -7 -2 rrcurveto
            18 45 rlineto
            64 6 53 35 35 48 rrcurveto
            -20 16 rlineto
            -35 -38 -35 -18 -55 0 -72 0 -71 79 0 102 0 8 0 6 1 6 rrcurveto
            263 hlineto
            return
          </CharString>
          <CharString index="285">
            11 7 6 11 84 -31 103 -132 -95 -100 -91 -152 hvcurveto
            0 -104 53 -98 125 -9 rrcurveto
            -34 -73 7 -7 rlineto
            16 6 9 1 19 0 rrcurveto
            return
          </CharString>
          <CharString index="286">
            -25 21 -20 25 25 20 20 25 25 -20 20 -25 vhcurveto
            -25 -21 -20 -25 hvcurveto
            return
          </CharString>
          <CharString index="287">
            -25 20 -20 25 25 20 20 25 25 -20 20 -25 vhcurveto
            -25 -20 -20 -25 hvcurveto
            return
          </CharString>
          <CharString index="288">
            -26 22 -21 26 27 21 21 26 27 -21 21 -27 -26 -22 -21 -27 vhcurveto
            return
          </CharString>
          <CharString index="289">
            13 11 18 11 7 -4 8 -10 hvcurveto
            -245 hlineto
            -11 -11 -18 -11 -7 4 -8 8 hvcurveto
            return
          </CharString>
          <CharString index="290">
            12 11 17 12 7 -4 8 -9 hvcurveto
            -245 hlineto
            -12 -10 -18 -12 -7 3 -7 9 hvcurveto
            return
          </CharString>
          <CharString index="291">
            13 22 8 29 36 -58 36 -77 -118 -35 -80 -40 hvcurveto
            0 -50 26 -26 49 -19 rrcurveto
            return
          </CharString>
          <CharString index="292">
            -91 -30 -3 -58 0 -23 0 -52 28 -76 137 0 63 0 54 29 33 31 rrcurveto
            -15 19 rlineto
            -39 -27 -38 -19 -47 0 rrcurveto
            -60 -37 44 54 56 33 35 56 hvcurveto
            return
          </CharString>
          <CharString index="293">
            9 0 34 -5 8 0 rrcurveto
            23 7 8 12 12 -10 6 -19 hvcurveto
            return
          </CharString>
          <CharString index="294">
            -5 0 -45 -5 -1 0 rrcurveto
            -43 -36 17 69 66 45 23 31 hvcurveto
            71 0 -16 -80 51 0 rrcurveto
            return
          </CharString>
          <CharString index="295">
            -1 0 -44 5 -6 0 rrcurveto
            -18 -11 -6 -12 -12 8 -8 22 hvcurveto
            return
          </CharString>
          <CharString index="296">
            8 0 35 5 8 0 rrcurveto
            56 34 -35 -56 -54 -38 -44 -59 hvcurveto
            -47 0 -39 19 -39 27 rrcurveto
            -15 -19 rlineto
            33 -31 54 -29 63 0 138 0 27 76 0 52 0 23 -3 58 -90 30 rrcurveto
            return
          </CharString>
          <CharString index="297">
            4 6 1 7 hvcurveto
            21 vlineto
            0 -47 -3 -30 -32 -48 3 0 vhcurveto
            -22 vlineto
            0 -4 1 -3 6 -1 rrcurveto
            12 hlineto
            32 3 -15 -30 hvcurveto
            -53 vlineto
            -17 -33 -42 -22 -34 0 rrcurveto
            -114 -51 117 89 114 88 65 53 hvcurveto
            56 0 65 -26 6 -71 rrcurveto
            return
          </CharString>
          <CharString index="298">
            77 0 55 25 39 54 rrcurveto
            86 vlineto
            1 19 9 3 30 2 rrcurveto
            return
          </CharString>
          <CharString index="299">
            5 -28 rlineto
            17 4 12 1 13 0 rrcurveto
            14 9 -7 -38 hvcurveto
            -257 vlineto
            -59 32 -33 56 vhcurveto
            38 0 45 36 23 46 rrcurveto
            -19 19 rlineto
            -19 -24 -26 -24 -32 0 rrcurveto
            -19 -4 18 21 hvcurveto
            362 -16 vlineto
            -24 0 10 -18 -115 -19 rrcurveto
            return
          </CharString>
          <CharString index="300">
            -286 vlineto
            -29 -10 -15 -33 vhcurveto
            -19 hlineto
            -5 -3 -3 -5 hvcurveto
            0 -19 2 -2 rlineto
            0 68 2 35 39 69 -2 0 vhcurveto
            2 2 0 19 rlineto
            5 -4 3 -5 vhcurveto
            -19 hlineto
            -32 -11 15 29 hvcurveto
            286 vlineto
            28 11 16 32 vhcurveto
            19 hlineto
            5 4 3 5 hvcurveto
            0 19 -2 2 rlineto
            0 -69 -2 -39 -35 -68 2 0 vhcurveto
            -2 -2 0 -19 rlineto
            -5 3 -3 5 vhcurveto
            19 hlineto
            33 10 -16 -28 hvcurveto
            return
          </CharString>
          <CharString index="301">
            -102 70 -115 135 141 65 126 100 104 -56 124 -149 -132 -74 -100 -137 vhcurveto
            return
          </CharString>
          <CharString index="302">
            69 0 51 -58 13 -107 rrcurveto
            -249 hlineto
            4 82 37 83 75 0 rrcurveto
            return
          </CharString>
          <CharString index="303">
            -89 0 -44 105 -8 77 rrcurveto
            253 -23 hlineto
            -132 -67 -27 -45 vhcurveto
            return
          </CharString>
          <CharString index="304">
            -111 154 hlineto
            -58 -20 0 -19 rlineto
            0 -44 -4 -28 -8 -15 -14 -22 -33 -6 -27 0 rrcurveto
            -39 vlineto
            return
          </CharString>
          <CharString index="305">
            30 24 25 29 30 -27 25 -27 -30 -24 -27 -28 -28 21 -26 33 hvcurveto
            return
          </CharString>
          <CharString index="306">
            152 vlineto
            12 2 26 0 22 0 rrcurveto
            46 47 -13 -62 -40 -30 -39 -58 hvcurveto
            return
          </CharString>
          <CharString index="307">
            47 -1 107 0 rlineto
            59 75 29 93 hvcurveto
            0 57 -48 37 -46 13 rrcurveto
            return
          </CharString>
          <CharString index="308">
            21 7 54 45 0 42 rrcurveto
            61 -50 46 -75 vhcurveto
            -98 0 -46 -1 rlineto
            return
          </CharString>
          <CharString index="309">
            -98 2 -2 -2 0 -22 rlineto
            -2 3 -3 3 vhcurveto
            34 hlineto
            25 8 -14 -20 hvcurveto
            -297 vlineto
            -35 -13 -8 -18 vhcurveto
            -38 hlineto
            -2 -1 -1 -2 hvcurveto
            return
          </CharString>
          <CharString index="310">
            -280 vlineto
            0 -38 -5 -8 -36 -1 rrcurveto
            -26 hlineto
            -3 -2 -2 -3 hvcurveto
            0 -22 1 -2 103 2 108 -2 1 2 0 21 rlineto
            4 -2 2 -4 vhcurveto
            -20 hlineto
            -34 1 -7 6 0 40 rrcurveto
            137 205 -138 vlineto
            -39 -4 -7 -37 vhcurveto
            -21 hlineto
            -3 -2 -2 -4 hvcurveto
            0 -21 2 -2 97 2 113 -2 1 2 0 21 rlineto
            3 -2 3 -4 vhcurveto
            -25 hlineto
            -35 -5 6 40 hvcurveto
            280 vlineto
            41 6 7 34 vhcurveto
            25 hlineto
            4 2 2 3 hvcurveto
            0 22 -1 2 -113 -2 -98 2 -1 -2 0 -22 rlineto
            -4 2 -1 3 vhcurveto
            21 hlineto
            36 5 -9 -39 hvcurveto
            -108 -205 109 vlineto
            41 7 6 34 vhcurveto
            20 hlineto
            4 2 2 4 hvcurveto
            0 21 -1 2 -108 -3 -103 3 -1 -2 0 -22 rlineto
            -4 2 -1 3 vhcurveto
            26 hlineto
            35 6 -9 -38 hvcurveto
            return
          </CharString>
          <CharString index="311">
            -26 21 -22 27 26 22 22 26 27 -22 21 -26 vhcurveto
            -27 -21 -21 -27 hvcurveto
            return
          </CharString>
          <CharString index="312">
            0 10 -1 1 rlineto
            0 -25 -1 -22 -20 -22 1 0 vhcurveto
            -1 -1 0 -10 rlineto
            -3 3 -1 2 vhcurveto
            14 0 9 -5 7 -20 rrcurveto
            64 -181 rlineto
            3 -8 4 -2 5 0 4 0 4 3 3 8 rrcurveto
            47 130 47 -131 rlineto
            3 -7 4 -3 4 0 5 0 3 3 3 8 rrcurveto
            64 176 rlineto
            9 23 12 6 12 0 rrcurveto
            2 3 1 3 hvcurveto
            0 10 0 1 rlineto
            0 -19 -1 -16 -18 -31 1 0 vhcurveto
            -1 -1 0 -10 rlineto
            -2 2 -2 2 vhcurveto
            8 hlineto
            16 5 -6 -9 hvcurveto
            0 -4 -1 -4 -2 -4 rrcurveto
            -41 -113 -8 -25 -8 27 -41 114 rlineto
            -2 7 -2 6 0 4 rrcurveto
            5 4 2 9 vhcurveto
            9 hlineto
            2 2 2 2 hvcurveto
            0 10 -1 1 -47 -1 rlineto
            -16 -27 1 0 hvcurveto
            -1 -1 0 -10 rlineto
            -3 2 -1 3 vhcurveto
            14 0 10 -7 6 -18 rrcurveto
            9 -24 -42 -116 -8 27 -41 114 rlineto
            -2 7 -2 5 0 4 rrcurveto
            5 3 3 11 vhcurveto
            7 hlineto
            2 2 2 2 hvcurveto
            return
          </CharString>
          <CharString index="313">
            -12 0 -7 -3 -5 -9 rrcurveto
            -78 -139 rlineto
            -1 -1 0 -2 0 -1 0 -8 9 -5 5 0 2 0 2 0 2 2 rrcurveto
            114 110 rlineto
            6 6 1 7 0 6 0 19 -17 18 -21 0 rrcurveto
            return
          </CharString>
          <CharString index="314">
            -4 0 -16 -1 -6 -13 rrcurveto
            -64 -146 rlineto
            -1 -1 0 -1 0 -1 0 -8 8 -5 6 0 3 0 3 1 2 2 rrcurveto
            102 121 rlineto
            4 5 1 6 0 5 0 22 -20 14 -18 0 rrcurveto
            return
          </CharString>
          <CharString index="315">
            -36 -11 -18 -16 -16 5 -25 41 7 4 -8 -10 hvcurveto
            0 -23 -18 -37 -42 -9 rrcurveto
            4 -17 rlineto
            91 5 15 75 0 26 rrcurveto
            36 -22 37 -38 vhcurveto
            return
          </CharString>
          <CharString index="316">
            13 11 18 12 6 -4 8 -10 hvcurveto
            -245 hlineto
            -11 -11 -17 -12 -7 4 -8 9 hvcurveto
            return
          </CharString>
          <CharString index="317">
            -5 0 -6 -1 -4 -1 rrcurveto
            -79 -126 rlineto
            -6 -10 -1 -7 0 -6 0 -6 7 -6 8 0 6 0 7 5 16 15 rrcurveto
            115 109 -3 11 rlineto
            -10 6 -9 17 -36 0 rrcurveto
            return
          </CharString>
          <CharString index="318">
            -37 -31 -41 0 hvcurveto
            0 -10 138 -78 rlineto
            16 -8 8 -4 6 0 8 0 7 8 0 5 0 3 -4 11 -8 9 rrcurveto
            -99 104 rlineto
            -1 1 -2 0 -1 0 rrcurveto
            return
          </CharString>
          <CharString index="319">
            65 hlineto
            6 16 1 11 -12 17 rrcurveto
            -168 hlineto
            -7 -12 0 -13 10 -19 rrcurveto
            61 -108 hlineto
            12 -12 17 0 15 9 rrcurveto
            return
          </CharString>
          <CharString index="320">
            -26 22 -22 26 26 22 22 26 27 -22 21 -26 -26 -22 -21 -27 vhcurveto
            return
          </CharString>
          <CharString index="321">
            -47 39 -36 46 48 38 38 45 46 -40 37 -46 -47 -38 -38 -45 vhcurveto
            return
          </CharString>
          <CharString index="322">
            0 8 -1 6 -5 10 rrcurveto
            -70 126 rlineto
            -4 1 -6 1 -5 0 -34 0 -23 -17 -8 -6 rrcurveto
            -2 -11 114 -109 rlineto
            16 -15 7 -4 6 0 8 0 7 5 0 5 rrcurveto
            return
          </CharString>
          <CharString index="323">
            -42 -30 -34 -22 -11 7 -14 19 9 12 8 12 hvcurveto
            0 12 -7 5 0 7 rrcurveto
            return
          </CharString>
          <CharString index="324">
            -29 23 -25 32 29 25 22 32 29 -22 25 -32 -29 -26 -21 -33 vhcurveto
            return
          </CharString>
          <CharString index="325">
            9 0 13 3 21 9 rrcurveto
            144 58 -62 52 -124 -86 rlineto
            -13 -9 -2 -5 0 -7 0 -10 5 -5 9 0 rrcurveto
            return
          </CharString>
          <CharString index="326">
            -43 hlineto
            -31 -34 -31 -32 -37 -28 rrcurveto
            14 -21 rlineto
            38 17 32 18 37 27 33 -25 34 -19 39 -18 rrcurveto
            16 21 rlineto
            -36 27 -35 31 -30 36 rrcurveto
            return
          </CharString>
          <CharString index="327">
            66 0 63 42 6 71 rrcurveto
            -27 hlineto
            -7 -39 -52 -22 -49 0 -53 0 -47 22 -8 39 rrcurveto
            -28 hlineto
            5 -70 58 -43 73 0 rrcurveto
            return
          </CharString>
          <CharString index="328">
            0 52 -21 7 -52 -13 0 -82 rlineto
            -58 38 -24 48 vhcurveto
            25 0 46 14 15 69 rrcurveto
            -25 8 rlineto
            -7 -27 -16 -24 -18 0 rrcurveto
            -20 -13 23 55 hvcurveto
            return
          </CharString>
          <CharString index="329">
            -68 0 -33 19 -40 50 rrcurveto
            -26 -14 rlineto
            39 -53 61 -30 67 0 rrcurveto
            94 126 48 189 100 -74 116 -153 hvcurveto
            -68 0 -53 -30 -39 -53 rrcurveto
            26 -14 rlineto
            39 50 26 15 66 0 rrcurveto
            117 22 -96 -119 -155 -77 -23 -52 hvcurveto
            return
          </CharString>
          <CharString index="330">
            0 75 3 55 38 40 19 21 43 24 36 0 66 0 25 -15 40 -50 rrcurveto
            26 14 rlineto
            -39 53 -54 30 -67 0 -71 0 -59 -27 -39 -40 -35 -34 -23 -68 0 -47 0 -87 22 -50 41 -41 39 -40 54 -20 64 0 66 0 62 30 39 53 rrcurveto
            -26 14 rlineto
            -41 -51 -33 -18 -67 0 -52 0 -77 23 0 156 rrcurveto
            return
          </CharString>
          <CharString index="331">
            -11 0 -13 -6 -4 -11 rrcurveto
            -52 -143 rlineto
            -1 -3 -1 -5 0 -1 0 -7 7 -6 8 0 5 0 4 3 2 4 rrcurveto
            92 122 rlineto
            4 5 1 6 0 4 0 21 -21 17 -20 0 rrcurveto
            return
          </CharString>
          <CharString index="332">
            -11 0 -13 -7 -4 -10 rrcurveto
            -52 -143 rlineto
            -1 -3 -1 -5 0 -1 0 -8 7 -6 8 0 4 0 4 4 3 4 rrcurveto
            92 121 rlineto
            4 6 1 5 0 5 0 20 -21 18 -20 0 rrcurveto
            return
          </CharString>
          <CharString index="333">
            52 0 34 -60 7 -43 rrcurveto
            27 3 rlineto
            return
          </CharString>
          <CharString index="334">
            -130 1 0 -21 rlineto
            -3 1 -4 7 vhcurveto
            30 hlineto
            38 13 -14 -31 hvcurveto
            -501 vlineto
            -28 -11 -16 -40 vhcurveto
            -30 hlineto
            -6 -2 -4 -3 hvcurveto
            0 -22 129 2 rlineto
            return
          </CharString>
          <CharString index="335">
            78 -1 294 0 25 160 -26 5 rlineto
            -16 -73 -28 -53 -66 0 rrcurveto
            -184 hlineto
            -22 -14 6 27 hvcurveto
            255 137 vlineto
            33 0 12 -15 5 -29 rrcurveto
            6 -31 rlineto
            -3 3 -4 5 vhcurveto
            23 0 3 3 rlineto
            -3 17 -5 45 0 34 0 33 4 37 4 25 rrcurveto
            2 -1 2 -3 vhcurveto
            -22 hlineto
            -4 -3 -4 -4 hvcurveto
            -7 -30 rlineto
            -6 -28 -9 -16 -35 0 rrcurveto
            -137 213 hlineto
            24 12 8 24 vhcurveto
            return
          </CharString>
          <CharString index="336">
            -10 0 -14 -7 -3 -10 rrcurveto
            -53 -143 rlineto
            -1 -3 -1 -5 0 -1 0 -8 8 -6 7 0 5 0 4 4 3 4 rrcurveto
            92 121 rlineto
            3 6 1 5 0 5 0 20 -21 18 -20 0 rrcurveto
            return
          </CharString>
          <CharString index="337">
            126 110 -106 -208 -179 -88 -109 -115 -131 -108 113 192 210 110 87 96 hvcurveto
            return
          </CharString>
          <CharString index="338">
            -28 -13 -16 -41 vhcurveto
            -27 hlineto
            -5 -3 -3 -5 hvcurveto
            0 -19 2 -2 rlineto
            0 94 2 35 39 87 -2 0 vhcurveto
            2 2 0 19 rlineto
            5 -4 3 -4 vhcurveto
            -27 hlineto
            -39 -15 13 31 hvcurveto
            0 221 149 281 rlineto
            17 32 13 12 30 0 rrcurveto
            22 hlineto
            6 3 2 5 hvcurveto
            0 20 -1 1 rlineto
            0 -79 -1 -9 -13 -79 1 0 vhcurveto
            -1 -1 0 -20 rlineto
            -3 1 -4 5 vhcurveto
            29 hlineto
            21 4 -3 -11 hvcurveto
            0 -5 -3 -9 -8 -14 rrcurveto
            -127 -235 -139 235 rlineto
            -9 14 -4 9 0 6 rrcurveto
            9 7 4 19 vhcurveto
            28 hlineto
            4 2 4 4 hvcurveto
            0 19 -1 1 rlineto
            0 -108 -1 -6 -13 -93 1 0 vhcurveto
            -2 -1 0 -20 rlineto
            -6 7 -1 4 vhcurveto
            12 hlineto
            23 0 15 -1 23 -43 rrcurveto
            170 -293 rlineto
            return
          </CharString>
          <CharString index="339">
            -11 0 -13 -7 -4 -10 rrcurveto
            -52 -143 rlineto
            -1 -3 -1 -5 0 -1 0 -8 7 -6 8 0 4 0 4 4 3 4 rrcurveto
            92 121 rlineto
            4 6 1 5 0 5 rrcurveto
            20 -21 18 -20 vhcurveto
            return
          </CharString>
          <CharString index="340">
            111 37 81 103 0 120 rrcurveto
            148 -100 133 -199 -198 -102 -149 -132 vhcurveto
            0 -128 83 -95 108 -37 rrcurveto
            4 -58 -101 0 rlineto
            return
          </CharString>
          <CharString index="341">
            -52 0 -20 7 -4 53 rrcurveto
            -26 0 7 -119 212 0 rlineto
            11 0 6 6 -1 10 rrcurveto
            -7 127 rlineto
            return
          </CharString>
          <CharString index="342">
            -93 62 -39 61 0 112 rrcurveto
            128 73 118 139 129 82 -106 -141 vhcurveto
            0 -108 -39 -73 -92 -53 rrcurveto
            -9 -127 rlineto
            -10 5 -6 11 vhcurveto
            208 0 rlineto
            return
          </CharString>
          <CharString index="343">
            7 119 -26 0 rlineto
            -6 -57 -21 -3 -49 0 rrcurveto
            return
          </CharString>
          <CharString index="344">
            -25 21 -21 25 25 20 21 25 25 -20 20 -25 vhcurveto
            -25 -21 -20 -25 hvcurveto
            return
          </CharString>
          <CharString index="345">
            14 9 -7 -38 hvcurveto
            -257 vlineto
            -59 32 -33 56 vhcurveto
            38 0 45 36 23 46 rrcurveto
            -19 19 rlineto
            -19 -24 -26 -24 -32 0 rrcurveto
            -19 -4 18 21 hvcurveto
            362 -16 vlineto
            -24 0 10 -18 -115 -19 rrcurveto
            return
          </CharString>
          <CharString index="346">
            -71 0 -54 1 -62 1 rrcurveto
            return
          </CharString>
          <CharString index="347">
            -14 0 -104 1 -7 0 rrcurveto
            -2 -1 0 -20 rlineto
            -3 2 -4 6 vhcurveto
            30 hlineto
            31 20 -7 -37 hvcurveto
            -502 vlineto
            -28 -14 -16 -41 vhcurveto
            -26 hlineto
            -5 -3 -3 -5 hvcurveto
            0 -19 2 -2 rlineto
            0 93 2 36 39 82 -2 0 vhcurveto
            2 2 0 19 rlineto
            5 -4 3 -4 vhcurveto
            -22 hlineto
            -39 -15 13 31 hvcurveto
            488 vlineto
            return
          </CharString>
          <CharString index="348">
            33 5 11 31 vhcurveto
            221 hlineto
            32 4 -16 -28 hvcurveto
            -488 vlineto
            -28 -13 -16 -41 vhcurveto
            -22 hlineto
            -5 -3 -3 -5 hvcurveto
            0 -19 2 -2 rlineto
            0 89 2 35 40 86 -2 0 vhcurveto
            2 2 0 19 rlineto
            5 -4 3 -4 vhcurveto
            -26 hlineto
            -40 -15 13 31 hvcurveto
            502 vlineto
            return
          </CharString>
          <CharString index="349">
            0 30 24 13 28 1 rrcurveto
            29 hlineto
            5 3 4 4 hvcurveto
            0 19 -2 1 rlineto
            -20 0 -202 -3 -95 0 rrcurveto
            return
          </CharString>
          <CharString index="350">
            0 -177 110 -58 104 -11 rrcurveto
            -133 vlineto
            -28 -14 -15 -41 vhcurveto
            -26 hlineto
            -5 -3 -3 -5 hvcurveto
            0 -19 2 -2 rlineto
            0 93 2 36 39 87 -2 0 vhcurveto
            2 2 0 19 rlineto
            5 -4 3 -4 vhcurveto
            -27 hlineto
            -39 -15 13 30 hvcurveto
            134 vlineto
            96 14 104 66 0 188 0 142 75 -34 0 23 rrcurveto
            10 -11 2 -12 vhcurveto
            -29 hlineto
            -22 -1 -19 -6 -15 -14 -30 -28 -5 -41 0 -49 0 -36 -5 -174 -127 -34 rrcurveto
            341 vlineto
            28 13 16 41 vhcurveto
            27 hlineto
            5 2 3 5 hvcurveto
            0 19 -1 1 rlineto
            0 -94 -1 -35 -39 -87 1 0 vhcurveto
            -2 -1 0 -19 rlineto
            -5 4 -3 4 vhcurveto
            26 hlineto
            40 15 -14 -30 hvcurveto
            -344 vlineto
            -67 13 -78 55 0 168 0 98 -31 51 -61 1 rrcurveto
            -31 hlineto
            -11 -9 -1 -11 hvcurveto
            0 -21 74 41 0 -174 rrcurveto
            return
          </CharString>
          <CharString index="351">
            -98 0 5 58 rlineto
            111 37 81 103 0 120 rrcurveto
            148 -101 133 -199 -197 -102 -149 -132 vhcurveto
            0 -128 83 -95 108 -37 rrcurveto
            4 -58 -101 0 rlineto
            return
          </CharString>
          <CharString index="352">
            -53 0 -19 7 -5 53 rrcurveto
            -25 0 7 -119 211 0 rlineto
            11 6 6 10 hvcurveto
            -8 127 rlineto
            return
          </CharString>
          <CharString index="353">
            -92 62 -39 61 0 112 rrcurveto
            128 72 118 139 130 82 -106 -141 vhcurveto
            0 -108 -40 -73 -91 -53 rrcurveto
            -9 -127 rlineto
            -1 -10 5 -6 12 0 rrcurveto
            208 0 rlineto
            return
          </CharString>
          <CharString index="354">
            7 119 -26 0 rlineto
            -6 -57 -22 -3 -48 0 rrcurveto
            return
          </CharString>
          <CharString index="355">
            -10 0 -14 -6 -3 -11 rrcurveto
            -53 -143 rlineto
            -1 -3 -1 -5 0 -1 0 -7 8 -6 7 0 5 0 4 3 3 4 rrcurveto
            92 122 rlineto
            3 5 1 6 0 4 rrcurveto
            21 -21 17 -20 vhcurveto
            return
          </CharString>
          <CharString index="356">
            -15 0 -11 1 -15 2 rrcurveto
            -92 -187 -9 38 rlineto
            -21 93 -39 56 -99 0 rrcurveto
            -92 -115 -57 -184 hvcurveto
            return
          </CharString>
          <CharString index="357">
            -124 70 -89 137 vhcurveto
            70 0 56 33 46 76 rrcurveto
            return
          </CharString>
          <CharString index="358">
            13 -74 24 -35 39 0 43 0 27 28 28 81 rrcurveto
            -27 9 rlineto
            -20 -45 -20 -9 -26 0 -25 0 -23 29 -9 63 rrcurveto
            149 298 rlineto
            -15 -2 -14 -1 -15 0 rrcurveto
            return
          </CharString>
          <CharString index="359">
            85 0 33 -75 20 -97 rrcurveto
            7 -35 -14 -30 rlineto
            return
          </CharString>
          <CharString index="360">
            -44 -90 -30 -67 -47 0 rrcurveto
            -93 -44 123 82 115 36 74 91 hvcurveto
            return
          </CharString>
          <CharString index="361">
            -11 0 -13 -6 -4 -11 rrcurveto
            -53 -142 rlineto
            -1 -4 -1 -5 0 -1 0 -7 8 -6 8 0 4 0 4 3 3 4 rrcurveto
            92 122 rlineto
            4 5 1 6 0 4 rrcurveto
            21 -21 17 -20 vhcurveto
            return
          </CharString>
          <CharString index="362">
            13 22 8 29 36 -58 36 -77 hvcurveto
            return
          </CharString>
          <CharString index="363">
            -118 -35 -80 -40 hvcurveto
            0 -50 26 -26 49 -19 rrcurveto
            return
          </CharString>
          <CharString index="364">
            4 -28 rlineto
            18 4 11 1 13 0 rrcurveto
            14 9 -7 -38 hvcurveto
            0 -343 11 -17 64 30 0 310 rlineto
            30 48 35 29 57 0 rrcurveto
            60 15 -53 -65 hvcurveto
            -279 vlineto
            0 -85 2 -66 10 -42 rrcurveto
            76 -34 11 18 rlineto
            -13 34 -11 51 0 124 rrcurveto
            287 vlineto
            115 -46 43 -68 vhcurveto
            -95 0 -49 -66 -14 -23 rrcurveto
            -4 0 4 89 -15 0 rlineto
            -25 0 10 -18 -114 -19 rrcurveto
            return
          </CharString>
          <CharString index="365">
            -11 0 -13 -6 -4 -11 rrcurveto
            -52 -143 rlineto
            -1 -3 -1 -5 0 -1 0 -7 7 -7 8 0 5 0 3 4 3 4 rrcurveto
            92 122 rlineto
            4 5 1 6 0 4 0 21 -21 17 -20 0 rrcurveto
            return
          </CharString>
          <CharString index="366">
            -10 0 -14 -6 -3 -11 rrcurveto
            -53 -142 rlineto
            -1 -4 -1 -5 0 -1 0 -7 8 -6 7 0 5 0 4 4 3 4 rrcurveto
            92 121 rlineto
            3 6 1 5 0 4 rrcurveto
            21 -21 17 -20 vhcurveto
            return
          </CharString>
          <CharString index="367">
            -24 20 -21 25 25 20 21 24 25 -20 21 -25 -25 -20 -21 -25 vhcurveto
            return
          </CharString>
          <CharString index="368">
            -24 20 -21 25 25 21 21 24 25 -21 21 -25 vhcurveto
            -25 -20 -21 -25 hvcurveto
            return
          </CharString>
          <CharString index="369">
            120 -29 73 -69 -27 -14 -19 -18 vhcurveto
            0 -31 31 -5 11 -1 29 -5 32 -30 0 -96 rrcurveto
            -98 -56 -104 -88 vhcurveto
            return
          </CharString>
          <CharString index="370">
            -86 -35 66 69 hvcurveto
            return
          </CharString>
          <CharString index="371">
            0 97 22 52 0 75 0 31 -16 17 -23 0 -40 0 -56 -25 -20 -17 rrcurveto
            7 -19 rlineto
            0 31 9 14 17 9 -8 -21 vhcurveto
            return
          </CharString>
          <CharString index="372">
            0 -50 -16 -57 0 -81 rrcurveto
            -96 45 -89 147 91 89 87 174 vhcurveto
            return
          </CharString>
          <CharString index="373">
            -15 0 -11 1 -15 2 rrcurveto
            -92 -187 -9 38 rlineto
            -21 93 -39 56 -99 0 rrcurveto
            -92 -115 -57 -184 -124 70 -89 137 hvcurveto
            70 0 56 33 46 76 rrcurveto
            return
          </CharString>
          <CharString index="374">
            -108 -54 -72 -84 vhcurveto
            -29 0 -23 11 -33 26 -5 -8 -15 -22 -10 -3 rrcurveto
            208 vlineto
            146 57 27 51 80 65 -47 -158 vhcurveto
            return
          </CharString>
          <CharString index="375">
            0 -124 -11 -60 -13 -35 rrcurveto
            11 -17 78 31 rlineto
            14 45 -5 98 0 80 31 -14 28 -8 42 0 rrcurveto
            135 103 98 154 114 -85 87 -121 hvcurveto
            -47 0 -62 -16 -42 -43 -26 -27 -30 -34 0 -138 rrcurveto
            return
          </CharString>
          <CharString index="376">
            120 -29 73 -69 -27 -14 -19 -18 vhcurveto
            0 -31 31 -5 11 -1 29 -5 32 -30 0 -96 rrcurveto
            -98 -56 -104 -88 -86 -35 66 69 vhcurveto
            return
          </CharString>
          <CharString index="377">
            0 -58 -36 -123 -131 -15 rrcurveto
            -21 522 -23 0 -26 -521 rlineto
            -111 13 -48 93 0 52 rrcurveto
            return
          </CharString>
          <CharString index="378">
            0 118 39 43 0 64 0 18 -13 19 -36 0 -21 0 -37 -17 -36 -18 rrcurveto
            2 -25 rlineto
            24 8 12 3 9 0 14 0 12 -10 0 -11 rrcurveto
            return
          </CharString>
          <CharString index="379">
            0 -34 -37 -19 0 -130 0 -78 50 -108 176 -6 rrcurveto
            return
          </CharString>
          <CharString index="380">
            -8 213 rlineto
            163 17 60 152 0 169 rrcurveto
            57 -8 55 -58 -21 -19 -20 -21 vhcurveto
            0 -60 49 -58 0 -71 rrcurveto
            return
          </CharString>
          <CharString index="381">
            0 -18 -4 -28 -11 -45 -6 25 -6 27 0 34 rrcurveto
            22 4 12 9 13 1 -18 -11 vhcurveto
            return
          </CharString>
          <CharString index="382">
            0 147 -147 72 -38 17 rrcurveto
            -15 -19 rlineto
            108 -89 13 -75 0 -47 0 -97 -21 -92 -95 0 -56 0 -31 39 -20 69 20 52 8 45 0 24 rrcurveto
            31 -11 21 -30 -32 -7 -28 -30 vhcurveto
            0 -20 3 -41 21 -54 -21 -72 -31 -36 -53 0 -75 0 -44 36 0 125 0 135 91 86 32 17 rrcurveto
            -12 20 rlineto
            -113 -63 -72 -101 0 -101 0 -144 87 -45 89 0 66 0 47 33 27 69 29 -79 50 -23 51 0 123 0 59 91 0 127 rrcurveto
            return
          </CharString>
          <CharString index="383">
            -25 20 -20 25 25 21 20 25 25 -21 21 -25 vhcurveto
            -25 -20 -21 -25 hvcurveto
            return
          </CharString>
          <CharString index="384">
            -10 0 -14 -6 -4 -11 rrcurveto
            -52 -143 rlineto
            -1 -3 -1 -5 0 -1 0 -7 8 -6 7 0 5 0 4 3 3 4 rrcurveto
            91 122 rlineto
            4 5 1 6 0 4 0 21 -21 17 -20 0 rrcurveto
            return
          </CharString>
          <CharString index="385">
            -11 0 -13 -6 -4 -11 rrcurveto
            -52 -143 rlineto
            -1 -3 -1 -5 0 -1 0 -7 7 -6 8 0 4 0 4 3 3 4 rrcurveto
            92 122 rlineto
            4 5 1 6 0 4 rrcurveto
            21 -21 17 -20 vhcurveto
            return
          </CharString>
          <CharString index="386">
            -10 127 -62 117 -107 0 rrcurveto
            return
          </CharString>
          <CharString index="387">
            -42 0 -40 -19 -23 -29 rrcurveto
            9 -13 rlineto
            return
          </CharString>
          <CharString index="388">
            35 -19 24 -62 vhcurveto
            -115 0 -54 -185 -9 -59 rrcurveto
            return
          </CharString>
          <CharString index="389">
            18 0 47 -2 44 -31 rrcurveto
            16 21 rlineto
            -36 38 -44 18 -53 0 rrcurveto
            -78 -126 -68 -163 -116 67 -107 135 hvcurveto
            90 0 45 54 15 22 rrcurveto
            -15 16 rlineto
            -28 -28 -38 -20 -45 0 -89 0 -52 73 -7 100 rrcurveto
            218 44 -219 hlineto
            8 133 76 16 51 0 rrcurveto
            return
          </CharString>
          <CharString index="390">
            -42 0 -27 11 -31 22 rrcurveto
            -15 -21 rlineto
            26 -30 43 -26 64 0 rrcurveto
            76 128 67 164 116 -69 107 -134 hvcurveto
            -90 0 -44 -54 -15 -23 rrcurveto
            14 -15 rlineto
            25 24 38 24 48 0 89 0 46 -75 11 -74 rrcurveto
            -215 -44 219 hlineto
            0 -81 -24 -41 -18 -18 -31 -30 -28 -3 -44 0 rrcurveto
            return
          </CharString>
          <CharString index="391">
            112 0 75 70 35 63 rrcurveto
            -16 17 rlineto
            -26 -40 -79 -65 -107 0 rrcurveto
            -138 -64 131 153 255 118 53 78 hvcurveto
            102 0 72 -63 10 -22 rrcurveto
            29 24 rlineto
            -2 6 -66 89 -138 0 rrcurveto
            -161 -131 -140 -196 -179 109 -156 188 hvcurveto
            return
          </CharString>
          <CharString index="392">
            -114 0 -82 -70 -10 -26 rrcurveto
            29 -24 rlineto
            0 44 86 140 78 117 -53 -255 -111 -40 -173 -163 vhcurveto
            -107 0 -77 69 -26 40 rrcurveto
            -16 -17 rlineto
            35 -63 72 -74 112 0 rrcurveto
            182 118 147 187 197 -131 140 -161 hvcurveto
            return
          </CharString>
          <CharString index="393">
            -12 -115 1 0 hvcurveto
            -2 -1 0 -20 rlineto
            -4 4 -3 4 vhcurveto
            30 hlineto
            42 9 -10 -35 hvcurveto
            -501 vlineto
            -31 -15 -13 -39 vhcurveto
            -27 hlineto
            -4 -4 -3 -5 hvcurveto
            0 -19 2 -2 rlineto
            0 87 2 39 36 93 -2 0 vhcurveto
            2 2 0 19 rlineto
            5 -3 3 -5 vhcurveto
            -26 hlineto
            -41 -14 16 28 hvcurveto
            501 vlineto
            return
          </CharString>
          <CharString index="394">
            26 14 6 22 vhcurveto
            131 hlineto
            66 0 28 -53 16 -72 rrcurveto
            26 4 rlineto
            return
          </CharString>
          <CharString index="395">
            28 14 16 41 vhcurveto
            26 hlineto
            5 3 3 5 hvcurveto
            0 19 -2 1 rlineto
            0 -93 -1 -36 -39 -87 1 0 vhcurveto
            -2 -1 0 -19 rlineto
            -5 4 -3 4 vhcurveto
            27 hlineto
            39 15 -14 -30 hvcurveto
            -503 vlineto
            -28 -13 -15 -41 vhcurveto
            -27 hlineto
            -4 -3 -3 -5 hvcurveto
            0 -19 2 -2 rlineto
            0 93 2 35 40 86 -2 0 vhcurveto
            2 2 0 19 rlineto
            5 -4 3 -4 vhcurveto
            -26 hlineto
            -40 -15 13 30 hvcurveto
            267 vlineto
            111 -2 24 -57 41 -100 44 -107 31 -71 80 -1 rrcurveto
            72 -1 2 2 0 19 rlineto
            5 -4 3 -4 vhcurveto
            -10 hlineto
            -36 0 -56 76 -59 132 rrcurveto
            return
          </CharString>
          <CharString index="396">
            28 14 16 41 vhcurveto
            26 hlineto
            5 3 3 5 hvcurveto
            0 19 -2 2 rlineto
            0 -93 -3 -36 -39 -87 2 0 vhcurveto
            -2 -1 0 -19 rlineto
            -5 4 -3 5 vhcurveto
            26 hlineto
            40 15 -13 -31 hvcurveto
            0 -13 -327 -427 0 441 rlineto
            28 14 15 41 vhcurveto
            26 hlineto
            5 3 3 5 hvcurveto
            0 19 -2 1 rlineto
            0 -93 -2 -35 -40 -86 2 0 vhcurveto
            -2 -1 0 -19 rlineto
            -5 3 -3 4 vhcurveto
            27 hlineto
            40 14 -13 -30 hvcurveto
            -503 vlineto
            -28 -13 -16 -41 vhcurveto
            -27 hlineto
            -4 -3 -3 -5 hvcurveto
            0 -19 2 -2 rlineto
            0 93 2 35 40 86 -2 0 vhcurveto
            2 2 0 19 rlineto
            5 -4 3 -4 vhcurveto
            -26 hlineto
            -40 -15 13 31 hvcurveto
            0 6 327 427 0 -434 rlineto
            -28 -14 -15 -41 vhcurveto
            -26 hlineto
            -5 -3 -3 -5 hvcurveto
            0 -19 2 -2 rlineto
            0 93 2 36 39 87 -2 0 vhcurveto
            2 2 0 19 rlineto
            5 -4 3 -5 vhcurveto
            -26 hlineto
            -40 -15 13 30 hvcurveto
            return
          </CharString>
          <CharString index="397">
            -32 -15 -18 -28 -32 46 -23 42 hvcurveto
            79 0 66 74 43 109 rrcurveto
            159 412 rlineto
            14 36 14 9 41 0 rrcurveto
            4 7 2 6 hvcurveto
            0 19 -2 1 rlineto
            0 -48 -1 -32 -42 -66 1 0 vhcurveto
            -1 -1 0 -20 rlineto
            -4 2 -3 4 vhcurveto
            29 hlineto
            27 13 -3 -14 hvcurveto
            0 -6 -2 -8 -5 -12 rrcurveto
            -130 -346 -158 346 rlineto
            -4 11 -2 9 0 7 rrcurveto
            10 7 6 21 vhcurveto
            38 hlineto
            5 2 3 5 hvcurveto
            0 19 -2 1 rlineto
            0 -80 -1 -50 -41 -63 1 0 vhcurveto
            -1 -1 0 -20 rlineto
            -4 4 -3 6 vhcurveto
            41 0 19 -19 12 -26 rrcurveto
            206 -448 rlineto
            -31 -74 -30 -11 -32 0 -33 0 -2 39 -47 0 rrcurveto
            return
          </CharString>
          <CharString index="398">
            19 20 19 24 23 -14 24 -47 hvcurveto
            -64 0 -55 -52 -8 -58 -8 -57 -9 -56 -53 -33 -24 -14 -42 -1 -33 0 rrcurveto
            193 vlineto
            return
          </CharString>
          <CharString index="399">
            28 14 16 41 vhcurveto
            26 hlineto
            5 3 3 5 hvcurveto
            0 19 -2 1 rlineto
            0 -93 -1 -36 -39 -87 1 0 vhcurveto
            -2 -1 0 -19 rlineto
            -5 4 -3 5 vhcurveto
            26 hlineto
            40 15 -14 -30 hvcurveto
            -193 vlineto
            -33 0 -44 1 -23 14 -54 33 -7 56 -8 57 rrcurveto
            return
          </CharString>
          <CharString index="400">
            -8 58 -55 52 -64 0 rrcurveto
            -47 -14 -24 -23 -24 20 -19 19 hvcurveto
            27 0 16 25 28 0 21 0 18 -27 5 -30 9 -62 15 -84 72 -26 -62 0 -26 -62 -23 -60 -51 -132 -53 -76 -32 0 rrcurveto
            -9 hlineto
            -4 -4 -3 -5 hvcurveto
            0 -19 2 -2 65 1 rlineto
            72 1 29 71 40 108 rrcurveto
            return
          </CharString>
          <CharString index="401">
            37 101 21 57 105 0 rrcurveto
            -267 vlineto
            -28 -14 -15 -41 vhcurveto
            -26 hlineto
            -5 -3 -3 -5 hvcurveto
            0 -19 2 -2 rlineto
            0 93 2 36 39 87 -2 0 vhcurveto
            2 2 0 19 rlineto
            5 -4 3 -5 vhcurveto
            -26 hlineto
            -40 -15 13 30 hvcurveto
            267 vlineto
            105 0 22 -59 36 -99 39 -109 28 -70 73 -1 rrcurveto
            66 -1 2 2 0 19 rlineto
            5 -4 3 -4 vhcurveto
            -9 hlineto
            -32 0 -52 76 -52 132 rrcurveto
            return
          </CharString>
          <CharString index="402">
            -24 60 -25 62 -62 0 71 26 16 84 9 62 5 30 18 27 21 0 rrcurveto
            28 0 16 -25 27 0 rrcurveto
            return
          </CharString>
          <CharString index="403">
            -61 0 -63 -30 -22 0 rrcurveto
            -13 -8 7 19 hvcurveto
            -27 -195 27 hlineto
            75 49 90 134 57 55 -49 -73 -55 -36 -80 -120 vhcurveto
            -56 hlineto
            -11 0 -6 -6 1 -11 rrcurveto
            -11 5 -6 11 vhcurveto
            93 hlineto
            return
          </CharString>
          <CharString index="404">
            117 30 -110 -51 -120 -93 -34 -76 hvcurveto
            -78 0 -39 30 -26 56 -9 21 -16 3 -16 0 rrcurveto
            -17 -10 -15 -22 -44 85 -63 122 145 118 62 142 hvcurveto
            0 107 -85 41 -71 20 rrcurveto
            return
          </CharString>
          <CharString index="405">
            18 7 98 68 0 87 rrcurveto
            96 -87 44 -119 vhcurveto
            return
          </CharString>
          <CharString index="406">
            -27 60 -28 62 -69 0 80 26 17 84 10 62 5 30 21 27 23 0 rrcurveto
            29 0 21 -25 28 0 rrcurveto
            return
          </CharString>
          <CharString index="407">
            -19 0 -41 7 -19 6 rrcurveto
            296 vlineto
            11 2 35 0 25 0 rrcurveto
            97 57 -42 -116 hvcurveto
            -114 -88 -39 -58 vhcurveto
            return
          </CharString>
          <CharString index="408">
            -496 vlineto
            -39 -27 -6 -17 vhcurveto
            return
          </CharString>
          <CharString index="409">
            -9 0 -24 2 -4 0 rrcurveto
            -7 -1 -4 -3 hvcurveto
            -19 vlineto
            return
          </CharString>
          <CharString index="410">
            30 0 154 -11 72 1 175 1 49 126 0 78 0 84 -44 89 -182 0 -36 0 -22 1 -26 -3 rrcurveto
            199 vlineto
            30 15 14 39 vhcurveto
            27 hlineto
            4 4 3 5 hvcurveto
            0 19 -2 1 rlineto
            0 -87 -1 -39 -36 -93 1 0 vhcurveto
            -2 -1 0 -19 rlineto
            -5 3 -3 5 vhcurveto
            26 hlineto
            41 14 -16 -28 hvcurveto
            return
          </CharString>
          <CharString index="411">
            -16 1 -21 3 -18 0 rrcurveto
            -23 -17 -5 -25 -22 19 -6 24 hvcurveto
            return
          </CharString>
          <CharString index="412">
            -112 2 -3 -2 0 -22 rlineto
            -3 2 -2 4 vhcurveto
            30 hlineto
            36 5 -10 -38 hvcurveto
            return
          </CharString>
          <CharString index="413">
            29 10 13 33 vhcurveto
            8 hlineto
            5 4 3 5 hvcurveto
            0 19 -2 2 rlineto
            0 -58 -2 -39 -36 -56 2 0 vhcurveto
            -2 -2 0 -19 rlineto
            -5 3 -3 5 vhcurveto
            7 hlineto
            34 9 -13 -29 hvcurveto
            -116 -17 vlineto
            -61 0 -26 38 -19 55 rrcurveto
            return
          </CharString>
          <CharString index="414">
            -16 47 -29 54 -43 0 rrcurveto
            -37 -10 -21 -24 -20 18 -19 17 hvcurveto
            27 0 -3 17 20 0 10 0 13 -22 10 -31 13 -43 20 -41 40 -7 -49 0 -34 -22 -19 -48 -14 -38 -36 -91 -33 0 rrcurveto
            -8 hlineto
            -4 -6 -1 -7 hvcurveto
            0 -19 3 -2 64 1 rlineto
            45 1 27 71 15 41 rrcurveto
            return
          </CharString>
          <CharString index="415">
            22 59 17 38 83 0 rrcurveto
            -138 vlineto
            -29 -9 -15 -34 vhcurveto
            -7 hlineto
            -5 -3 -3 -5 hvcurveto
            0 -19 2 -2 rlineto
            0 56 2 36 39 58 -2 0 vhcurveto
            2 2 0 19 rlineto
            5 -4 3 -5 vhcurveto
            -8 hlineto
            -33 -10 15 29 hvcurveto
            138 vlineto
            84 0 17 -38 22 -59 15 -41 26 -71 45 -1 rrcurveto
            65 -1 3 2 0 19 rlineto
            7 -6 1 -5 vhcurveto
            -7 hlineto
            -33 0 -36 91 -15 38 rrcurveto
            return
          </CharString>
          <CharString index="416">
            -12 0 -7 16 -12 0 rrcurveto
            -3 -151 26 0 rlineto
            16 66 26 59 79 0 rrcurveto
            39 56 -30 -54 -27 -22 -53 -75 hvcurveto
            -40 hlineto
            -7 -8 -4 -10 -9 6 -6 9 hvcurveto
            64 hlineto
            return
          </CharString>
          <CharString index="417">
            50 30 -54 -46 -81 -71 -24 -33 hvcurveto
            -51 0 -25 23 -5 34 -5 33 -25 4 -11 0 rrcurveto
            -18 -12 -15 -14 -60 55 -36 91 145 41 83 55 hvcurveto
            0 82 -74 32 -25 3 rrcurveto
            return
          </CharString>
          <CharString index="418">
            41 11 41 41 0 39 0 86 -92 22 -63 0 rrcurveto
            -47 0 -59 -15 -13 0 rrcurveto
            return
          </CharString>
          <CharString index="419">
            0 21 -2 2 -114 -3 -109 3 -3 -2 0 -22 rlineto
            -4 2 -1 4 vhcurveto
            30 hlineto
            36 4 -11 -42 hvcurveto
            -274 vlineto
            0 -35 -3 -11 -37 -1 rrcurveto
            -31 hlineto
            -3 -2 -2 -3 hvcurveto
            0 -22 1 -2 rlineto
            0 68 2 43 31 50 -2 0 vhcurveto
            1 2 0 21 rlineto
            4 -2 2 -4 -34 -3 12 25 vhcurveto
            0 2 206 248 0 -238 rlineto
            0 -35 -4 -13 -37 -1 rrcurveto
            -31 hlineto
            -3 -2 -2 -3 hvcurveto
            -24 vlineto
            0 68 2 44 45 70 -2 0 vhcurveto
            1 2 0 21 rlineto
            4 -2 2 -4 vhcurveto
            -30 hlineto
            -35 1 -6 11 0 37 rrcurveto
            273 vlineto
            42 4 10 37 vhcurveto
            30 hlineto
            4 2 2 4 hvcurveto
            0 21 -1 2 rlineto
            0 -70 -2 -45 -29 -44 2 0 vhcurveto
            -2 -2 0 -22 rlineto
            -4 2 -1 3 34 1 -20 -24 vhcurveto
            -206 -248 0 240 rlineto
            41 4 11 37 vhcurveto
            30 hlineto
            4 2 2 4 hvcurveto
            return
          </CharString>
          <CharString index="420">
            41 22 3 28 4 4 3 5 vhcurveto
            0 19 -2 2 rlineto
            0 -56 -2 -39 -35 -68 2 0 vhcurveto
            -2 -2 0 -19 rlineto
            -5 3 -3 5 vhcurveto
            19 hlineto
            33 10 -16 -28 hvcurveto
            -289 vlineto
            -28 -10 -13 -33 vhcurveto
            -19 hlineto
            -5 -3 -3 -5 hvcurveto
            0 -19 2 -2 rlineto
            0 68 2 35 39 58 -2 0 vhcurveto
            2 2 0 19 rlineto
            5 -4 3 -4 -20 -32 2 39 vhcurveto
            141 vlineto
            75 -6 19 -37 22 -54 17 -41 29 -71 50 -1 rrcurveto
            72 -1 3 2 0 19 rlineto
            7 -7 1 -4 vhcurveto
            -8 hlineto
            -37 0 -40 91 -16 38 -20 49 -39 21 -54 0 43 7 23 41 15 43 rrcurveto
            return
          </CharString>
          <CharString index="421">
            81 56 -80 -147 -132 -67 -27 -45 -98 -44 128 77 87 37 94 80 hvcurveto
            return
          </CharString>
          <CharString index="422">
            41 5 7 36 vhcurveto
            30 hlineto
            4 2 2 4 hvcurveto
            return
          </CharString>
          <CharString index="423">
            -115 -2 -76 0 -126 0 -75 0 rlineto
            return
          </CharString>
          <CharString index="424">
            -4 2 -1 3 vhcurveto
            30 hlineto
            37 4 -7 -42 hvcurveto
            return
          </CharString>
          <CharString index="425">
            -129 vlineto
            -32 -32 -39 -12 -49 0 rrcurveto
            -62 -8 34 78 hvcurveto
            67 vlineto
            32 7 10 34 vhcurveto
            15 hlineto
            4 2 2 4 hvcurveto
            0 21 -2 2 -102 -3 -85 3 -1 -2 0 -22 rlineto
            -4 2 -1 3 vhcurveto
            8 hlineto
            35 6 -9 -38 hvcurveto
            -58 vlineto
            -106 35 -45 98 vhcurveto
            60 0 32 14 39 29 rrcurveto
            -113 vlineto
            -39 -4 -9 -37 vhcurveto
            -16 hlineto
            -4 -2 -2 -4 hvcurveto
            0 -21 2 -2 rlineto
            0 62 2 40 37 57 -2 0 vhcurveto
            2 2 0 22 rlineto
            3 -2 2 -3 vhcurveto
            -17 hlineto
            -36 -4 10 38 hvcurveto
            278 vlineto
            41 6 7 34 vhcurveto
            25 hlineto
            4 2 2 3 hvcurveto
            0 22 -1 2 -113 -2 -92 2 -2 -2 0 -22 rlineto
            -4 2 -1 4 vhcurveto
            15 hlineto
            36 5 -9 -39 hvcurveto
            return
          </CharString>
          <CharString index="426">
            -286 vlineto
            -29 -9 -15 -34 vhcurveto
            -19 hlineto
            -5 -2 -3 -5 hvcurveto
            0 -19 1 -2 rlineto
            0 68 2 36 39 68 -2 0 vhcurveto
            2 2 0 19 rlineto
            5 -4 3 -4 vhcurveto
            -19 hlineto
            -33 -10 15 29 hvcurveto
            286 vlineto
            28 10 16 33 vhcurveto
            19 hlineto
            4 4 3 5 hvcurveto
            0 19 -2 2 rlineto
            0 -68 -2 -39 -36 -68 2 0 vhcurveto
            -1 -2 0 -19 rlineto
            -5 2 -3 5 vhcurveto
            19 hlineto
            34 9 -16 -28 hvcurveto
            return
          </CharString>
          <CharString index="427">
            -80 -71 -16 -45 vhcurveto
            -19 0 -24 3 -8 2 rrcurveto
            182 67 vlineto
            63 37 -46 -45 hvcurveto
            return
          </CharString>
          <CharString index="428">
            95 -82 21 -96 vhcurveto
            -57 97 hlineto
            0 39 5 17 35 1 rrcurveto
            30 hlineto
            4 2 2 4 hvcurveto
            0 23 -113 -2 -115 2 0 -24 rlineto
            -4 2 -1 4 vhcurveto
            30 hlineto
            35 -1 6 -17 0 -39 rrcurveto
            -287 vlineto
            0 -21 0 -8 -25 -1 rrcurveto
            -25 hlineto
            -2 -1 -1 -2 hvcurveto
            0 -24 2 -2 91 2 109 -1 rlineto
            95 66 48 84 hvcurveto
            return
          </CharString>
          <CharString index="429">
            32 0 64 -36 14 -135 rrcurveto
            -107 2 rlineto
            return
          </CharString>
          <CharString index="430">
            -12 1 -16 2 -14 0 rrcurveto
            -16 -13 -4 -19 -16 14 -4 18 hvcurveto
            return
          </CharString>
          <CharString index="431">
            15 0 16 3 12 0 rrcurveto
            105 2 rlineto
            -148 -75 -40 -52 vhcurveto
            -50 0 -19 23 -5 34 -5 33 -26 4 -10 0 rrcurveto
            -18 -13 -15 -14 -60 56 -36 91 89 113 75 157 111 -70 111 -123 hvcurveto
            -42 0 -56 -13 -9 0 -8 0 -4 13 -9 0 rrcurveto
            -13 0 -7 -134 23 0 rlineto
            13 43 -9 60 126 0 rrcurveto
            return
          </CharString>
          <CharString index="432">
            -27 21 -21 27 26 21 21 27 26 -21 22 -26 vhcurveto
            -27 -21 -22 -26 hvcurveto
            return
          </CharString>
          <CharString index="433">
            -5 0 -6 -1 -4 -2 rrcurveto
            -79 -125 rlineto
            -7 -10 0 -7 0 -6 0 -6 7 -6 8 0 6 0 7 5 16 15 rrcurveto
            115 109 -3 10 rlineto
            -10 7 -9 17 -36 0 rrcurveto
            return
          </CharString>
          <CharString index="434">
            16 12 8 36 vhcurveto
            27 hlineto
            5 3 3 6 hvcurveto
            0 18 -2 2 rlineto
            0 -89 -3 -35 -39 -78 3 0 vhcurveto
            -2 -2 0 -18 rlineto
            -6 4 -3 4 vhcurveto
            13 hlineto
            39 0 11 -15 10 -29 rrcurveto
            197 -561 rlineto
            5 -15 8 -8 10 0 11 0 8 8 6 15 rrcurveto
            182 500 rlineto
            return
          </CharString>
          <CharString index="435">
            10 9 6 20 vhcurveto
            17 hlineto
            3 6 2 6 hvcurveto
            0 20 -4 2 rlineto
            0 -61 -2 -39 -34 -53 2 0 vhcurveto
            -3 -2 0 -20 rlineto
            -5 5 -3 5 vhcurveto
            11 hlineto
            30 0 10 -14 13 -33 rrcurveto
            136 -345 rlineto
            5 -12 7 -8 13 0 10 0 8 8 6 14 rrcurveto
            110 279 rlineto
            return
          </CharString>
          <CharString index="436">
            98 0 82 -65 31 -129 rrcurveto
            -408 hlineto
            18 100 73 94 106 0 rrcurveto
            return
          </CharString>
          <CharString index="437">
            16 122 75 9 23 0 rrcurveto
            36 48 -24 -93 -9 -5 -5 -10 hvcurveto
            return
          </CharString>
          <CharString index="438">
            23 -14 24 -47 vhcurveto
            -64 0 -55 -52 -8 -58 -8 -57 -9 -56 -53 -33 -24 -14 -42 -1 -33 0 rrcurveto
            193 vlineto
            return
          </CharString>
          <CharString index="439">
            -24 60 -25 62 -62 0 71 26 16 84 9 62 5 30 18 27 21 0 28 0 16 -25 27 0 rrcurveto
            return
          </CharString>
          <CharString index="440">
            24 -9 21 -37 vhcurveto
            -43 0 -29 -54 -16 -47 -20 -55 -26 -38 -61 0 rrcurveto
            -17 116 hlineto
            return
          </CharString>
          <CharString index="441">
            -18 48 -35 22 -48 0 39 7 20 41 14 43 9 31 14 22 10 0 20 0 -3 -17 27 0 rrcurveto
            return
          </CharString>
          <CharString index="442">
            -25 20 -21 25 25 20 21 25 25 -20 20 -25 -25 -20 -20 -25 vhcurveto
            return
          </CharString>
          <CharString index="443">
            -25 21 -20 25 24 21 20 25 25 -21 21 -24 -25 -21 -21 -25 vhcurveto
            return
          </CharString>
          <CharString index="444">
            12 11 18 12 6 -4 8 -10 hvcurveto
            -244 hlineto
            -12 -10 -17 -12 -7 3 -8 9 hvcurveto
            return
          </CharString>
          <CharString index="445">
            12 11 17 12 7 -4 7 -10 hvcurveto
            -244 hlineto
            -12 -10 -17 -12 -7 3 -7 9 hvcurveto
            return
          </CharString>
          <CharString index="446">
            -24 21 -21 25 25 20 21 24 25 -20 21 -25 -25 -21 -21 -25 vhcurveto
            return
          </CharString>
          <CharString index="447">
            -65 0 -46 30 -28 28 -62 62 -24 70 -4 86 rrcurveto
            442 hlineto
            -1 -100 -19 -61 -38 -46 -40 -48 -52 -21 -63 0 rrcurveto
            return
          </CharString>
          <CharString index="448">
            0 101 -31 73 -66 67 -61 63 -65 28 -93 0 -80 0 -68 -27 -60 -60 -93 -94 -9 -99 0 -59 0 -103 32 -74 64 -64 56 -56 84 -33 85 0 rrcurveto
            84 0 72 30 60 69 59 69 30 78 0 91 rrcurveto
            return
          </CharString>
          <CharString index="449">
            59 0 46 -19 44 -44 58 -58 22 -67 5 -82 rrcurveto
            -440 hlineto
            3 92 22 60 40 50 39 47 45 21 57 0 rrcurveto
            return
          </CharString>
          <CharString index="450">
            -24 21 -21 25 24 21 21 24 25 -21 21 -24 -25 -21 -21 -25 vhcurveto
            return
          </CharString>
          <CharString index="451">
            -24 21 -21 25 25 20 21 24 25 -20 21 -25 vhcurveto
            -25 -21 -21 -25 hvcurveto
            return
          </CharString>
          <CharString index="452">
            -25 21 -20 25 25 20 20 25 25 -20 21 -25 vhcurveto
            -25 -21 -21 -25 hvcurveto
            return
          </CharString>
          <CharString index="453">
            -19 15 -16 19 19 16 16 19 19 -16 16 -19 -19 -15 -16 -19 vhcurveto
            return
          </CharString>
          <CharString index="454">
            -19 15 -16 19 19 16 16 19 19 -16 15 -19 -19 -15 -15 -19 vhcurveto
            return
          </CharString>
          <CharString index="455">
            -19 16 -16 19 19 15 16 19 19 -15 16 -19 vhcurveto
            -19 -16 -16 -19 hvcurveto
            return
          </CharString>
          <CharString index="456">
            -19 16 -16 19 19 15 16 19 19 -15 15 -19 -19 -16 -15 -19 vhcurveto
            return
          </CharString>
          <CharString index="457">
            -19 15 -16 19 19 16 16 19 19 -16 15 -19 vhcurveto
            -19 -15 -15 -19 hvcurveto
            return
          </CharString>
          <CharString index="458">
            -19 16 -16 19 19 16 16 19 19 -16 15 -19 -19 -16 -15 -19 vhcurveto
            return
          </CharString>
          <CharString index="459">
            0 44 -37 12 -26 8 -84 25 37 12 -21 16 0 0 -33 -8 0 -69 0 -39 24 -25 48 -12 -30 -38 -18 -44 -9 -47 rrcurveto
            -188 208 rlineto
            -15 18 -9 22 -1 29 rrcurveto
            -13 hlineto
            -23 -25 -11 -26 0 -28 0 -31 13 -30 25 -29 rrcurveto
            30 -34 rlineto
            -58 -38 -20 -79 0 -50 rrcurveto
            return
          </CharString>
          <CharString index="460">
            0 -43 37 -64 0 -30 0 -16 -18 -14 -15 -2 -6 -1 -3 -9 4 -5 rrcurveto
            101 hlineto
            24 25 30 32 hvcurveto
            return
          </CharString>
          <CharString index="461">
            0 60 -99 62 0 60 0 27 9 47 31 21 rrcurveto
            258 -285 rlineto
            15 -17 9 -21 2 -25 32 0 15 43 0 31 0 31 -13 30 -25 29 rrcurveto
            -67 72 rlineto
            -7 14 -4 17 0 16 0 34 16 42 38 50 24 -1 7 -39 11 0 rrcurveto
            5 13 51 31 hvcurveto
            return
          </CharString>
          <CharString index="462">
            0 -46 -10 -39 -35 -26 rrcurveto
            6 -7 rlineto
            66 35 10 91 0 42 0 91 -18 18 -70 0 -30 0 -36 1 -5 38 0 0 -42 -5 0 -67 0 -44 31 -26 54 -2 49 -2 30 -19 0 -33 rrcurveto
            return
          </CharString>
          <CharString index="463">
            -10 -342 rlineto
            0 1 54 -7 -1 63 rrcurveto
            return
          </CharString>
          <CharString index="464">
            -31 0 -26 -31 -11 -56 -14 -65 -9 -34 0 -19 0 -17 12 -3 5 0 8 0 10 13 44 69 32 48 23 39 0 23 0 26 -31 7 -12 0 rrcurveto
            return
          </CharString>
          <CharString index="465">
            -27 21 -21 27 26 21 21 27 26 -21 22 -26 -27 -21 -22 -26 vhcurveto
            return
          </CharString>
          <CharString index="466">
            -26 21 -22 26 27 21 22 26 27 -21 21 -27 vhcurveto
            -26 -21 -21 -27 hvcurveto
            return
          </CharString>
          <CharString index="467">
            12 11 18 11 7 -4 8 -10 hvcurveto
            -244 hlineto
            -12 -10 -18 -11 -7 3 -8 9 hvcurveto
            return
          </CharString>
          <CharString index="468">
            -27 21 -21 27 26 22 21 27 26 -22 21 -26 vhcurveto
            -27 -21 -21 -26 hvcurveto
            return
          </CharString>
          <CharString index="469">
            13 10 18 11 7 -4 8 -9 hvcurveto
            -245 hlineto
            -12 -10 -18 -11 -7 3 -8 9 hvcurveto
            return
          </CharString>
          <CharString index="470">
            -50 hlineto
            -29 -46 -38 -43 -35 -40 rrcurveto
            20 -14 rlineto
            37 27 32 25 37 38 34 -36 33 -25 40 -29 rrcurveto
            20 14 rlineto
            -36 40 -36 42 -29 47 rrcurveto
            return
          </CharString>
          <CharString index="471">
            13 11 17 12 7 -4 8 -10 hvcurveto
            -244 hlineto
            -12 -10 -18 -12 -6 3 -8 9 hvcurveto
            return
          </CharString>
          <CharString index="472">
            2 -25 rlineto
            -3 2 -2 3 vhcurveto
            33 4 rlineto
            20 9 -16 -57 hvcurveto
            -501 vlineto
            -29 -9 -15 -34 vhcurveto
            -19 hlineto
            -5 -2 -3 -5 hvcurveto
            0 -19 2 -2 rlineto
            0 67 2 36 39 68 -2 0 vhcurveto
            2 2 0 19 rlineto
            5 -4 3 -4 vhcurveto
            -19 hlineto
            -33 -10 15 29 hvcurveto
            250 vlineto
            48 47 43 26 29 0 rrcurveto
            return
          </CharString>
          <CharString index="473">
            56 22 -19 -81 hvcurveto
            -223 vlineto
            -29 -9 -15 -34 vhcurveto
            -19 hlineto
            -5 -3 -3 -5 hvcurveto
            0 -19 2 -2 rlineto
            0 68 2 35 40 68 -2 0 vhcurveto
            2 2 0 19 rlineto
            5 -4 3 -4 vhcurveto
            -19 hlineto
            -33 -10 15 29 hvcurveto
            212 vlineto
            103 -36 55 -72 vhcurveto
            -39 0 -59 -16 -67 -67 rrcurveto
            339 -22 vlineto
            -46 -20 -60 -6 -16 0 rrcurveto
            return
          </CharString>
          <CharString index="474">
            -26 21 -22 26 27 21 22 26 26 -21 22 -27 -26 -21 -22 -26 vhcurveto
            return
          </CharString>
          <CharString index="475">
            -26 21 -22 27 26 22 22 26 26 -22 22 -26 -27 -21 -22 -26 vhcurveto
            return
          </CharString>
          <CharString index="476">
            -60 0 -47 41 -2 51 rrcurveto
            -26 -14 rlineto
            7 -77 51 -58 77 0 50 0 75 35 10 100 rrcurveto
            -27 14 rlineto
            -2 -62 -60 -30 -46 0 rrcurveto
            return
          </CharString>
          <CharString index="477">
            13 11 18 11 7 -4 8 -10 hvcurveto
            -244 hlineto
            -12 -10 -18 -11 -7 3 -8 9 hvcurveto
            return
          </CharString>
          <CharString index="478">
            -26 22 -22 26 27 21 22 26 26 -21 22 -27 vhcurveto
            -26 -22 -22 -26 hvcurveto
            return
          </CharString>
          <CharString index="479">
            5 -28 rlineto
            17 4 12 1 13 0 rrcurveto
            13 9 -4 -57 hvcurveto
            -249 vlineto
            -29 -9 -15 -34 vhcurveto
            -19 hlineto
            -5 -3 -3 -5 hvcurveto
            0 -19 2 -2 rlineto
            0 68 2 36 39 68 -2 0 vhcurveto
            2 2 0 19 rlineto
            5 -4 3 -4 vhcurveto
            -19 hlineto
            -33 -10 15 29 hvcurveto
            248 vlineto
            47 49 33 25 35 0 rrcurveto
            return
          </CharString>
          <CharString index="480">
            38 26 -27 -67 hvcurveto
            -228 vlineto
            -29 -10 -15 -33 vhcurveto
            -19 hlineto
            -5 -3 -3 -5 hvcurveto
            0 -19 2 -2 rlineto
            0 68 2 35 39 69 -2 0 vhcurveto
            2 2 0 19 rlineto
            5 -4 3 -5 vhcurveto
            -19 hlineto
            -32 -11 15 29 hvcurveto
            209 vlineto
            0 14 0 14 -1 12 48 53 32 20 39 0 rrcurveto
            38 26 -25 -67 hvcurveto
            -230 vlineto
            -29 -10 -15 -33 vhcurveto
            -19 hlineto
            -5 -3 -3 -5 hvcurveto
            0 -19 2 -2 rlineto
            0 68 2 35 39 69 -2 0 vhcurveto
            2 2 0 19 rlineto
            5 -4 3 -5 vhcurveto
            -19 hlineto
            -32 -11 15 29 hvcurveto
            208 vlineto
            89 -14 73 -88 vhcurveto
            -54 0 -49 -26 -57 -60 -7 45 -33 41 -56 0 -62 0 -42 -37 -47 -50 rrcurveto
            -3 0 3 87 -15 0 rlineto
            -27 0 18 -17 -120 -20 rrcurveto
            return
          </CharString>
          <CharString index="481">
            -26 21 -22 27 26 22 22 26 26 -22 22 -26 vhcurveto
            -27 -21 -22 -26 hvcurveto
            return
          </CharString>
          <CharString index="482">
            -27 21 -21 26 27 21 21 27 26 -21 22 -27 -26 -21 -22 -26 vhcurveto
            return
          </CharString>
          <CharString index="483">
            13 11 18 11 7 -4 8 -10 hvcurveto
            -245 hlineto
            -11 -11 -18 -11 -7 4 -8 9 hvcurveto
            return
          </CharString>
          <CharString index="484">
            -25 0 -35 2 -11 3 rrcurveto
            286 vlineto
            return
          </CharString>
          <CharString index="485">
            19 7 44 7 19 0 rrcurveto
            69 74 -25 -127 -108 -57 -45 -97 hvcurveto
            return
          </CharString>
          <CharString index="486">
            -26 22 -22 26 26 22 22 26 26 -22 22 -26 vhcurveto
            -26 -22 -22 -26 hvcurveto
            return
          </CharString>
          <CharString index="487">
            47 105 28 100 hvcurveto
            0 80 -65 36 -81 30 -55 20 -19 20 0 40 0 55 39 15 38 0 21 0 60 -16 21 -82 rrcurveto
            27 1 rlineto
            -1 36 -4 34 -6 32 -31 16 -37 9 -50 0 -79 0 -59 -48 0 -67 0 -75 38 -21 73 -32 79 -34 24 -29 0 -43 0 -49 -52 -28 -35 0 rrcurveto
            -37 0 -27 18 -10 11 -25 26 -10 48 -1 22 rrcurveto
            -27 -1 7 -142 rlineto
            10 2 8 1 5 0 rrcurveto
            23 0 18 -13 68 0 rrcurveto
            return
          </CharString>
          <CharString index="488">
            -26 22 -22 26 26 22 22 26 26 -22 22 -26 -26 -22 -22 -26 vhcurveto
            return
          </CharString>
          <CharString index="489">
            -43 0 -22 -30 -14 -59 rrcurveto
            24 -5 rlineto
            9 33 13 15 26 0 39 0 37 -49 43 0 46 0 28 31 12 60 rrcurveto
            -23 6 rlineto
            -15 -42 -14 -11 -21 0 -42 0 -24 51 -59 0 rrcurveto
            return
          </CharString>
          <CharString index="490">
            -27 21 -21 27 26 21 21 27 26 -21 21 -26 -27 -21 -21 -26 vhcurveto
            return
          </CharString>
          <CharString index="491">
            -25 21 -21 25 24 21 21 25 25 -21 20 -24 -25 -21 -20 -25 vhcurveto
            return
          </CharString>
          <CharString index="492">
            -27 22 -21 26 27 21 21 27 26 -21 22 -27 -26 -22 -22 -26 vhcurveto
            return
          </CharString>
          <CharString index="493">
            12 11 18 11 7 -4 8 -9 hvcurveto
            -245 hlineto
            -12 -10 -18 -11 -7 3 -8 9 hvcurveto
            return
          </CharString>
          <CharString index="494">
            30 24 -26 -31 -28 -23 -28 -31 -31 -23 28 28 30 23 27 31 hvcurveto
            return
          </CharString>
          <CharString index="495">
            5 5 7 19 21 10 -11 -23 vhcurveto
            0 -33 -39 -19 -1 -58 rrcurveto
            26 hlineto
            2 57 60 11 0 44 rrcurveto
            17 -16 40 -55 vhcurveto
            return
          </CharString>
          <CharString index="496">
            -42 -30 -34 -22 -12 7 -14 19 9 12 9 11 hvcurveto
            0 13 -7 4 0 8 rrcurveto
            return
          </CharString>
          <CharString index="497">
            5 5 8 18 21 10 -12 -23 vhcurveto
            0 -33 -38 -19 -1 -58 rrcurveto
            25 hlineto
            3 57 60 11 0 44 rrcurveto
            17 -17 40 -54 vhcurveto
            return
          </CharString>
          <CharString index="498">
            5 5 7 18 21 11 -11 -23 vhcurveto
            0 -33 -39 -19 -1 -58 rrcurveto
            25 hlineto
            3 57 60 11 0 44 rrcurveto
            17 -17 40 -54 vhcurveto
            return
          </CharString>
          <CharString index="499">
            -50 hlineto
            -29 -46 -38 -43 -35 -40 rrcurveto
            20 -14 rlineto
            37 27 32 25 37 38 34 -36 34 -25 39 -29 rrcurveto
            20 14 rlineto
            -36 40 -36 42 -29 47 rrcurveto
            return
          </CharString>
          <CharString index="500">
            66 0 63 42 6 71 rrcurveto
            -27 hlineto
            -7 -39 -52 -22 -49 0 -53 0 -47 22 -8 39 rrcurveto
            -28 hlineto
            6 -70 57 -43 73 0 rrcurveto
            return
          </CharString>
          <CharString index="501">
            -42 -30 -34 -22 -12 7 -14 19 9 11 9 11 hvcurveto
            0 13 -6 4 0 8 rrcurveto
            return
          </CharString>
          <CharString index="502">
            -3 0 -4 -1 -3 -1 rrcurveto
            -56 -100 rlineto
            -4 -8 0 -6 0 -4 0 -6 5 -4 5 0 5 0 4 4 11 11 rrcurveto
            81 88 -2 8 rlineto
            -7 5 -6 14 -26 0 rrcurveto
            return
          </CharString>
          <CharString index="503">
            5 5 7 18 21 10 -11 -23 vhcurveto
            0 -33 -38 -19 -1 -58 rrcurveto
            25 hlineto
            3 57 60 11 0 44 rrcurveto
            17 -17 40 -54 vhcurveto
            return
          </CharString>
          <CharString index="504">
            -43 0 -23 -30 -13 -59 rrcurveto
            23 -5 rlineto
            10 34 13 14 26 0 38 0 37 -48 43 0 46 0 29 30 12 60 rrcurveto
            -24 7 rlineto
            -14 -42 -14 -11 -22 0 -42 0 -24 50 -58 0 rrcurveto
            return
          </CharString>
          <CharString index="505">
            5 5 7 19 21 10 -11 -23 vhcurveto
            0 -33 -38 -19 -1 -58 rrcurveto
            25 hlineto
            3 57 59 11 0 44 rrcurveto
            17 -16 40 -54 vhcurveto
            return
          </CharString>
          <CharString index="506">
            -42 -30 -34 -22 -12 7 -14 18 10 11 9 11 hvcurveto
            0 13 -7 4 0 8 rrcurveto
            return
          </CharString>
          <CharString index="507">
            5 5 7 18 21 11 -11 -23 vhcurveto
            0 -33 -39 -19 -1 -58 rrcurveto
            26 hlineto
            2 57 60 11 0 44 rrcurveto
            17 -17 40 -54 vhcurveto
            return
          </CharString>
          <CharString index="508">
            0 236 1 50 3 0 rlineto
            55 33 33 50 48 -19 41 -38 -29 -21 -18 -24 -20 9 -23 35 hvcurveto
            9 0 6 3 6 3 4 -5 3 -14 0 -10 rrcurveto
            -33 -42 -4 -11 vhcurveto
            -3 2 hlineto
            0 0 -7 -1 -12 -1 rrcurveto
            -1 0 -19 0 rlineto
            -28 -71 2 0 hvcurveto
            -2 -3 0 -25 2 -2 rlineto
            4 0 10 1 6 0 rrcurveto
            37 5 -17 -36 hvcurveto
            -247 vlineto
            -10 -13 -16 -14 -24 -18 rrcurveto
            return
          </CharString>
          <CharString index="509">
            -36 -10 -18 -16 -16 4 -25 42 6 4 -8 -10 hvcurveto
            0 -23 -18 -37 -42 -9 rrcurveto
            5 -17 rlineto
            90 5 16 75 0 26 rrcurveto
            36 -22 37 -39 vhcurveto
            return
          </CharString>
          <CharString index="510">
            0 -4 1 -5 3 -4 rrcurveto
            81 -135 rlineto
            2 -2 2 -2 4 0 10 0 5 7 0 4 0 1 -1 3 0 1 rrcurveto
            -39 152 rlineto
            -3 11 -10 6 -17 0 rrcurveto
            -24 -14 -17 -16 hvcurveto
            return
          </CharString>
          <CharString index="511">
            -38 -22 -37 -36 hvcurveto
            0 -26 15 -76 91 -4 rrcurveto
            4 17 rlineto
            -42 8 -18 38 0 23 rrcurveto
            10 4 8 7 41 5 25 16 16 -11 18 -36 vhcurveto
            return
          </CharString>
          <CharString index="512">
            -15 0 -11 1 -15 2 rrcurveto
            -92 -187 -9 38 rlineto
            -21 93 -39 56 -99 0 rrcurveto
            return
          </CharString>
          <CharString index="513">
            -92 -115 -57 -184 -124 70 -89 137 hvcurveto
            70 0 56 33 46 76 rrcurveto
            return
          </CharString>
          <CharString index="514">
            -10 0 -18 -4 -3 -16 rrcurveto
            -33 -156 rlineto
            -3 2 -10 12 vhcurveto
            3 0 4 1 1 4 rrcurveto
            76 139 rlineto
            2 4 1 4 0 4 0 11 -8 22 -29 0 rrcurveto
            return
          </CharString>
          <CharString index="515">
            -40 0 -21 45 -55 0 -41 0 -21 -29 -12 -55 rrcurveto
            21 -5 rlineto
            11 30 14 14 21 0 38 0 31 -44 42 0 43 0 27 26 11 56 rrcurveto
            -22 7 rlineto
            -13 -35 -14 -10 -20 0 rrcurveto
            return
          </CharString>
          <CharString index="516">
            -37 -10 -18 -15 -16 5 -25 41 6 4 -9 -9 hvcurveto
            0 -23 -18 -37 -42 -9 rrcurveto
            5 -17 rlineto
            90 5 16 75 0 26 rrcurveto
            36 -22 36 -38 vhcurveto
            return
          </CharString>
          <CharString index="517">
            -39 -21 -37 -36 hvcurveto
            0 -26 15 -75 90 -5 rrcurveto
            4 17 rlineto
            -41 9 -18 37 0 23 rrcurveto
            10 4 8 7 41 4 25 16 vhcurveto
            17 -10 17 -36 vhcurveto
            return
          </CharString>
          <CharString index="518">
            -40 0 -21 45 -55 0 -41 0 -21 -28 -12 -56 rrcurveto
            22 -4 rlineto
            10 29 14 14 21 0 39 0 30 -43 42 0 43 0 27 25 11 57 rrcurveto
            -22 6 rlineto
            -13 -34 -13 -11 -21 0 rrcurveto
            return
          </CharString>
          <CharString index="519">
            -36 -11 -18 -16 -16 5 -25 41 7 4 -8 -10 hvcurveto
            0 -23 -18 -37 -42 -9 rrcurveto
            4 -17 rlineto
            91 5 15 75 0 26 rrcurveto
            37 -22 36 -38 vhcurveto
            return
          </CharString>
          <CharString index="520">
            -38 -22 -37 -36 hvcurveto
            0 -26 16 -75 90 -5 rrcurveto
            4 17 rlineto
            -42 9 -18 37 0 23 rrcurveto
            10 4 8 7 41 5 25 16 17 -11 17 -36 vhcurveto
            return
          </CharString>
          <CharString index="521">
            0 -4 1 -5 3 -4 rrcurveto
            82 -135 rlineto
            1 -2 2 -3 4 0 10 0 5 7 0 5 0 1 0 3 -1 1 rrcurveto
            -39 152 rlineto
            -3 11 -10 6 -17 0 -24 0 -14 -17 0 -16 rrcurveto
            return
          </CharString>
          <CharString index="522">
            -19 -7 3 6 hvcurveto
            0 3 0 2 2 4 rrcurveto
            103 249 99 -267 rlineto
            return
          </CharString>
          <CharString index="523">
            0 6 2 6 3 7 rrcurveto
            64 155 rlineto
            5 11 7 6 25 0 rrcurveto
            210 0 64 -172 rlineto
            3 -6 1 -6 0 -5 rrcurveto
            -16 -16 -11 -31 vhcurveto
            -28 hlineto
            -5 -3 -3 -5 hvcurveto
            0 -19 2 -2 rlineto
            0 97 2 36 39 76 -2 0 vhcurveto
            3 2 0 19 rlineto
            5 -5 3 -4 vhcurveto
            -12 hlineto
            -39 0 -20 19 -15 39 rrcurveto
            -204 542 rlineto
            -8 21 -9 9 -18 0 -10 0 -7 -7 -10 -23 rrcurveto
            -233 -547 rlineto
            -15 -34 -18 -19 -41 0 rrcurveto
            -11 hlineto
            -5 -3 -3 -5 hvcurveto
            0 -19 2 -2 rlineto
            0 64 2 25 25 99 -2 0 vhcurveto
            2 2 0 19 rlineto
            5 -4 3 -5 vhcurveto
            -28 hlineto
            -30 -17 9 16 hvcurveto
            return
          </CharString>
          <CharString index="524">
            0 -5 1 -4 3 -4 rrcurveto
            82 -135 rlineto
            1 -3 2 -2 4 0 rrcurveto
            10 5 7 5 1 -1 3 0 hvcurveto
            -39 152 rlineto
            -3 11 -10 7 -17 0 -24 0 -14 -17 0 -16 rrcurveto
            return
          </CharString>
          <CharString index="525">
            -38 -22 -37 -35 hvcurveto
            0 -26 15 -76 91 -4 rrcurveto
            4 17 rlineto
            -42 8 -18 37 0 23 rrcurveto
            11 4 7 7 41 5 25 17 16 -11 17 -36 vhcurveto
            return
          </CharString>
          <CharString index="526">
            -19 -7 3 6 hvcurveto
            0 3 1 2 1 4 rrcurveto
            104 249 98 -267 rlineto
            return
          </CharString>
          <CharString index="527">
            -10 0 -18 -4 -3 -16 rrcurveto
            -33 -156 rlineto
            0 -1 0 -1 -2 3 -10 12 hvcurveto
            3 0 4 1 1 4 rrcurveto
            76 139 rlineto
            2 4 1 4 0 4 0 10 -8 23 -29 0 rrcurveto
            return
          </CharString>
          <CharString index="528">
            -36 -10 -18 -15 -17 4 -24 41 7 4 -9 -10 hvcurveto
            0 -22 -18 -38 -42 -8 rrcurveto
            4 -17 rlineto
            91 4 15 76 0 25 rrcurveto
            37 -22 36 -38 vhcurveto
            return
          </CharString>
          <CharString index="529">
            0 6 1 6 3 7 rrcurveto
            64 155 rlineto
            5 11 8 6 24 0 rrcurveto
            210 0 64 -172 rlineto
            3 -6 1 -6 0 -5 rrcurveto
            -16 -16 -11 -31 vhcurveto
            -28 hlineto
            -5 -3 -3 -5 hvcurveto
            0 -19 2 -2 rlineto
            0 97 2 36 39 76 -2 0 vhcurveto
            4 2 0 19 rlineto
            5 -6 3 -4 vhcurveto
            -11 hlineto
            -40 0 -20 19 -14 39 rrcurveto
            -205 542 rlineto
            -8 21 -9 9 -17 0 -10 0 -8 -7 -10 -23 rrcurveto
            -233 -547 rlineto
            -15 -34 -17 -19 -41 0 rrcurveto
            -12 hlineto
            -5 -3 -3 -5 hvcurveto
            0 -19 2 -2 rlineto
            0 64 2 26 24 99 -2 0 vhcurveto
            2 2 0 19 rlineto
            5 -4 3 -4 vhcurveto
            -29 hlineto
            -30 -16 9 16 hvcurveto
            return
          </CharString>
          <CharString index="530">
            -39 -21 -37 -36 hvcurveto
            0 -26 15 -76 90 -4 rrcurveto
            4 17 rlineto
            -41 8 -18 38 0 23 rrcurveto
            10 4 8 7 41 4 24 17 16 -10 18 -36 vhcurveto
            return
          </CharString>
          <CharString index="531">
            -40 0 -21 45 -55 0 -41 0 -21 -28 -12 -55 rrcurveto
            22 -5 rlineto
            10 30 15 13 21 0 38 0 30 -43 42 0 43 0 27 26 12 56 rrcurveto
            -23 6 rlineto
            -13 -34 -13 -11 -21 0 rrcurveto
            return
          </CharString>
          <CharString index="532">
            -36 -11 -18 -16 -16 5 -25 41 7 4 -8 -10 hvcurveto
            0 -23 -19 -37 -42 -9 rrcurveto
            5 -17 rlineto
            91 5 15 75 0 26 rrcurveto
            36 -22 37 -38 vhcurveto
            return
          </CharString>
          <CharString index="533">
            -39 -21 -37 -36 hvcurveto
            0 -26 15 -75 90 -5 rrcurveto
            4 17 rlineto
            -41 9 -18 37 0 23 rrcurveto
            10 3 8 8 40 5 25 16 16 -11 18 -35 vhcurveto
            return
          </CharString>
          <CharString index="534">
            -40 0 -21 45 -56 0 -40 0 -21 -29 -13 -55 rrcurveto
            22 -5 rlineto
            11 30 14 14 21 0 38 0 30 -44 42 0 44 0 26 26 12 56 rrcurveto
            -23 7 rlineto
            -13 -34 -13 -11 -20 0 rrcurveto
            return
          </CharString>
          <CharString index="535">
            -38 -22 -37 -36 hvcurveto
            0 -26 15 -76 91 -4 rrcurveto
            4 17 rlineto
            -42 8 -18 38 0 23 rrcurveto
            10 4 8 7 41 5 24 17 vhcurveto
            16 -11 18 -36 vhcurveto
            return
          </CharString>
          <CharString index="536">
            0 -4 1 -5 2 -4 rrcurveto
            82 -135 rlineto
            2 -2 1 -2 5 0 10 0 5 7 0 4 0 1 -1 3 0 1 rrcurveto
            -39 152 rlineto
            -3 11 -10 7 -17 0 rrcurveto
            -25 -13 -18 -16 hvcurveto
            return
          </CharString>
          <CharString index="537">
            -10 0 -18 -4 -3 -15 rrcurveto
            -33 -156 0 -1 rlineto
            -3 2 -9 12 vhcurveto
            3 0 4 0 1 5 rrcurveto
            76 138 rlineto
            2 4 1 4 0 4 rrcurveto
            11 -8 22 -29 vhcurveto
            return
          </CharString>
          <CharString index="538">
            -37 -10 -18 -16 -16 5 -25 41 6 4 -8 -10 hvcurveto
            0 -23 -18 -37 -42 -9 rrcurveto
            5 -17 rlineto
            90 5 16 75 0 26 rrcurveto
            36 -22 37 -38 vhcurveto
            return
          </CharString>
          <CharString index="539">
            -38 -22 -37 -35 hvcurveto
            0 -26 15 -76 91 -4 rrcurveto
            4 17 rlineto
            -42 8 -18 37 0 23 rrcurveto
            11 4 7 7 41 5 25 17 vhcurveto
            16 -11 17 -36 vhcurveto
            return
          </CharString>
          <CharString index="540">
            -37 -10 -18 -16 -16 5 -25 41 6 4 -8 -10 hvcurveto
            0 -23 -18 -37 -42 -9 rrcurveto
            5 -17 rlineto
            90 5 16 75 0 26 rrcurveto
            37 -22 36 -38 vhcurveto
            return
          </CharString>
          <CharString index="541">
            -130 1 0 -21 rlineto
            -3 1 -4 7 vhcurveto
            29 hlineto
            38 14 -14 -31 hvcurveto
            -501 vlineto
            -28 -12 -16 -40 vhcurveto
            -29 hlineto
            -7 -1 -4 -3 hvcurveto
            0 -22 129 2 rlineto
            return
          </CharString>
          <CharString index="542">
            0 -5 2 -4 2 -4 rrcurveto
            82 -135 rlineto
            1 -3 2 -2 4 0 rrcurveto
            11 4 7 5 1 0 3 -1 hvcurveto
            -39 152 rlineto
            -3 11 -10 7 -17 0 rrcurveto
            -24 -14 -17 -16 hvcurveto
            return
          </CharString>
          <CharString index="543">
            77 -1 294 0 25 160 -26 5 rlineto
            -16 -73 -28 -53 -66 0 rrcurveto
            -184 hlineto
            -22 -14 6 27 hvcurveto
            255 137 vlineto
            34 0 11 -15 5 -29 rrcurveto
            6 -31 rlineto
            1 -3 2 -4 5 0 rrcurveto
            23 0 3 3 rlineto
            -3 17 -5 45 0 34 0 33 5 37 3 25 rrcurveto
            2 -1 2 -3 vhcurveto
            -22 hlineto
            -4 0 -2 -4 -1 -4 rrcurveto
            -7 -30 rlineto
            -6 -28 -9 -16 -35 0 rrcurveto
            -137 213 hlineto
            24 12 8 24 vhcurveto
            return
          </CharString>
          <CharString index="544">
            -39 -21 -37 -36 hvcurveto
            0 -26 15 -75 90 -5 rrcurveto
            4 17 rlineto
            -41 9 -18 37 0 23 rrcurveto
            10 4 8 7 40 5 25 16 vhcurveto
            16 -10 18 -36 vhcurveto
            return
          </CharString>
          <CharString index="545">
            4 -28 rlineto
            18 4 11 1 13 0 rrcurveto
            14 9 -7 -38 hvcurveto
            0 -343 11 -17 64 30 0 310 rlineto
            30 48 35 29 57 0 rrcurveto
            return
          </CharString>
          <CharString index="546">
            60 15 -53 -65 hvcurveto
            -279 vlineto
            0 -85 2 -66 10 -42 rrcurveto
            76 -34 11 18 rlineto
            -13 34 -11 51 0 124 rrcurveto
            287 vlineto
            115 -46 43 -68 vhcurveto
            -95 0 -49 -66 -14 -23 rrcurveto
            -4 0 4 89 -15 0 rlineto
            -25 0 10 -18 -114 -19 rrcurveto
            return
          </CharString>
          <CharString index="547">
            -39 -22 -37 -36 hvcurveto
            0 -26 16 -76 90 -4 rrcurveto
            4 17 rlineto
            -42 8 -18 38 0 23 rrcurveto
            10 4 8 8 40 5 24 17 16 -11 18 -35 vhcurveto
            return
          </CharString>
          <CharString index="548">
            0 -5 1 -4 3 -4 rrcurveto
            81 -135 rlineto
            2 -3 2 -2 4 0 rrcurveto
            10 5 7 5 1 -1 3 0 hvcurveto
            -39 152 rlineto
            -3 11 -10 7 -17 0 -24 0 -14 -17 0 -16 rrcurveto
            return
          </CharString>
          <CharString index="549">
            -36 -11 -18 -15 -16 5 -25 41 7 3 -9 -9 hvcurveto
            0 -23 -18 -38 -42 -8 rrcurveto
            5 -17 rlineto
            91 4 15 76 0 26 rrcurveto
            36 -22 36 -38 vhcurveto
            return
          </CharString>
          <CharString index="550">
            0 -5 1 -5 2 -4 rrcurveto
            82 -135 rlineto
            2 -2 2 -2 4 0 10 0 5 7 0 5 rrcurveto
            0 -1 3 1 hvcurveto
            -39 152 rlineto
            -3 11 -10 7 -17 0 -25 0 -13 -18 0 -15 rrcurveto
            return
          </CharString>
          <CharString index="551">
            -39 -21 -37 -36 hvcurveto
            0 -26 15 -75 90 -5 rrcurveto
            4 17 rlineto
            -41 9 -18 37 0 23 rrcurveto
            10 4 8 7 40 5 25 16 16 -10 18 -36 vhcurveto
            return
          </CharString>
          <CharString index="552">
            -10 0 -18 -4 -4 -15 rrcurveto
            -33 -156 0 -1 rlineto
            -3 2 -9 13 vhcurveto
            2 0 4 0 2 5 rrcurveto
            76 138 rlineto
            2 4 1 4 0 4 0 11 -9 22 -28 0 rrcurveto
            return
          </CharString>
          <CharString index="553">
            -10 0 -18 -4 -4 -15 rrcurveto
            -32 -156 rlineto
            -1 0 0 -1 -3 3 -9 12 hvcurveto
            3 0 4 1 1 4 rrcurveto
            76 138 rlineto
            2 4 1 4 0 4 0 11 -8 22 -29 0 rrcurveto
            return
          </CharString>
          <CharString index="554">
            -39 -21 -37 -35 hvcurveto
            0 -26 15 -76 90 -4 rrcurveto
            4 17 rlineto
            -41 8 -18 37 0 23 rrcurveto
            11 4 7 7 40 5 25 17 16 -10 17 -36 vhcurveto
            return
          </CharString>
          <CharString index="555">
            -40 0 -21 45 -55 0 -41 0 -21 -28 -12 -55 rrcurveto
            22 -5 rlineto
            10 30 14 13 21 0 39 0 30 -43 42 0 43 0 27 26 11 56 rrcurveto
            -22 6 rlineto
            -13 -34 -13 -11 -21 0 rrcurveto
            return
          </CharString>
          <CharString index="556">
            -37 -10 -18 -16 -16 5 -25 41 6 4 -8 -10 hvcurveto
            0 -23 -18 -37 -42 -8 rrcurveto
            5 -18 rlineto
            91 5 15 76 0 25 rrcurveto
            37 -22 36 -38 vhcurveto
            return
          </CharString>
          <CharString index="557">
            -39 -21 -37 -36 hvcurveto
            0 -26 15 -75 90 -5 rrcurveto
            4 17 rlineto
            -41 9 -18 37 0 23 rrcurveto
            10 4 8 7 40 5 25 16 17 -10 17 -36 vhcurveto
            return
          </CharString>
          <CharString index="558">
            -40 0 -21 45 -55 0 -41 0 -21 -28 -13 -56 rrcurveto
            22 -4 rlineto
            11 29 14 14 21 0 38 0 31 -43 42 0 43 0 26 25 12 57 rrcurveto
            -22 6 rlineto
            -13 -34 -14 -11 -20 0 rrcurveto
            return
          </CharString>
          <CharString index="559">
            -28 -14 -16 -41 vhcurveto
            -26 hlineto
            -5 -3 -3 -5 hvcurveto
            0 -19 2 -2 rlineto
            0 93 2 36 39 87 -2 0 vhcurveto
            2 2 0 19 rlineto
            5 -4 3 -4 vhcurveto
            -27 hlineto
            -39 -15 13 31 hvcurveto
            502 vlineto
            28 13 16 41 vhcurveto
            27 hlineto
            5 2 3 5 hvcurveto
            0 19 -2 1 rlineto
            0 -93 -1 -35 -39 -87 1 0 vhcurveto
            -2 -1 0 -19 rlineto
            -5 4 -3 4 vhcurveto
            26 hlineto
            40 15 -14 -30 hvcurveto
            -211 -327 211 vlineto
            28 14 16 41 vhcurveto
            26 hlineto
            5 3 3 5 hvcurveto
            0 19 -2 1 rlineto
            0 -93 -1 -36 -39 -87 1 0 vhcurveto
            -2 -1 0 -19 rlineto
            -5 4 -3 5 vhcurveto
            26 hlineto
            40 15 -14 -30 hvcurveto
            -502 vlineto
            -28 -14 -16 -41 vhcurveto
            -26 hlineto
            -5 -3 -3 -5 hvcurveto
            0 -19 2 -2 rlineto
            0 93 2 36 39 87 -2 0 vhcurveto
            2 2 0 19 rlineto
            5 -4 3 -5 vhcurveto
            -26 hlineto
            -40 -15 13 31 hvcurveto
            252 327 vlineto
            return
          </CharString>
          <CharString index="560">
            -39 -22 -37 -36 hvcurveto
            0 -26 16 -75 90 -5 rrcurveto
            4 17 rlineto
            -41 9 -19 37 0 23 rrcurveto
            10 4 8 8 40 5 25 16 17 -11 17 -35 vhcurveto
            return
          </CharString>
          <CharString index="561">
            0 -5 1 -4 2 -4 rrcurveto
            82 -135 rlineto
            1 -3 2 -2 5 0 rrcurveto
            10 4 7 5 hvcurveto
            0 4 -39 152 rlineto
            -3 11 -10 7 -18 0 rrcurveto
            -24 -13 -17 -16 hvcurveto
            return
          </CharString>
          <CharString index="562">
            -39 -21 -37 -35 hvcurveto
            0 -26 15 -76 90 -4 rrcurveto
            4 17 rlineto
            -41 8 -18 37 0 23 rrcurveto
            return
          </CharString>
          <CharString index="563">
            11 3 7 8 40 5 25 17 vhcurveto
            16 -11 17 -35 vhcurveto
            return
          </CharString>
          <CharString index="564">
            -28 -13 -16 -41 vhcurveto
            -27 hlineto
            -5 -3 -3 -5 hvcurveto
            0 -19 2 -2 rlineto
            0 94 2 35 39 87 -2 0 vhcurveto
            2 2 0 19 rlineto
            5 -4 3 -4 vhcurveto
            -26 hlineto
            -40 -15 13 31 hvcurveto
            502 vlineto
            return
          </CharString>
          <CharString index="565">
            -36 -11 -18 -16 -16 5 -25 41 7 4 -8 -10 hvcurveto
            0 -23 -18 -37 -42 -9 rrcurveto
            4 -17 rlineto
            return
          </CharString>
          <CharString index="566">
            91 5 15 75 0 26 rrcurveto
            36 -22 37 -38 vhcurveto
            return
          </CharString>
          <CharString index="567">
            -28 -13 -16 -42 vhcurveto
            -26 hlineto
            -5 -3 -3 -5 hvcurveto
            0 -19 2 -2 rlineto
            0 94 2 35 39 87 -2 0 vhcurveto
            2 2 0 19 rlineto
            5 -4 3 -4 vhcurveto
            -27 hlineto
            -39 -15 13 31 hvcurveto
            502 vlineto
            28 13 16 41 vhcurveto
            27 hlineto
            5 3 3 5 hvcurveto
            0 19 -2 1 rlineto
            0 -94 -1 -35 -39 -87 1 0 vhcurveto
            -2 -1 0 -19 rlineto
            -5 4 -3 4 vhcurveto
            26 hlineto
            40 15 -14 -30 hvcurveto
            -211 -326 211 vlineto
            28 13 16 41 vhcurveto
            27 hlineto
            4 3 3 5 hvcurveto
            0 19 -2 1 rlineto
            0 -93 -1 -35 -40 -86 1 0 vhcurveto
            -2 -1 0 -19 rlineto
            -5 4 -3 4 vhcurveto
            26 hlineto
            40 15 -14 -30 hvcurveto
            -502 vlineto
            -28 -14 -16 -41 vhcurveto
            -26 hlineto
            -5 -3 -3 -5 hvcurveto
            0 -19 2 -2 rlineto
            0 93 2 36 39 87 -2 0 vhcurveto
            2 2 0 19 rlineto
            5 -4 3 -4 vhcurveto
            -27 hlineto
            -39 -15 13 31 hvcurveto
            252 326 vlineto
            return
          </CharString>
          <CharString index="568">
            -10 0 -17 -4 -4 -16 rrcurveto
            -33 -156 rlineto
            -3 2 -10 12 vhcurveto
            3 0 4 1 2 4 rrcurveto
            75 139 rlineto
            2 4 1 4 0 4 0 10 -8 23 -29 0 rrcurveto
            return
          </CharString>
          <CharString index="569">
            -38 -22 -37 -36 hvcurveto
            0 -26 15 -76 91 -4 rrcurveto
            4 17 rlineto
            -42 8 -18 38 0 23 rrcurveto
            10 4 8 7 41 5 24 17 16 -11 18 -36 vhcurveto
            return
          </CharString>
          <CharString index="570">
            -28 -14 -16 -41 vhcurveto
            -26 hlineto
            -5 -3 -3 -5 hvcurveto
            0 -19 2 -2 rlineto
            0 93 2 36 39 87 -2 0 vhcurveto
            2 2 0 19 rlineto
            5 -4 3 -4 vhcurveto
            -27 hlineto
            -39 -16 13 31 hvcurveto
            502 vlineto
            28 14 16 41 vhcurveto
            27 hlineto
            4 3 3 5 hvcurveto
            0 19 -2 1 rlineto
            0 -93 -1 -36 -39 -86 1 0 vhcurveto
            -2 -1 0 -19 rlineto
            -5 3 -3 5 vhcurveto
            26 hlineto
            40 15 -14 -30 hvcurveto
            -211 -327 211 vlineto
            28 14 16 41 vhcurveto
            26 hlineto
            5 3 3 5 hvcurveto
            0 19 -2 1 rlineto
            0 -93 -1 -36 -39 -87 1 0 vhcurveto
            -2 -1 0 -19 rlineto
            -5 4 -3 5 vhcurveto
            26 hlineto
            40 15 -14 -30 hvcurveto
            -502 vlineto
            -28 -14 -16 -41 vhcurveto
            -26 hlineto
            -5 -3 -3 -5 hvcurveto
            0 -19 2 -2 rlineto
            0 93 2 36 39 87 -2 0 vhcurveto
            2 2 0 19 rlineto
            5 -4 3 -5 vhcurveto
            -26 hlineto
            -40 -15 13 31 hvcurveto
            252 327 vlineto
            return
          </CharString>
          <CharString index="571">
            -40 0 -21 45 -55 0 -40 0 -21 -29 -13 -55 rrcurveto
            22 -5 rlineto
            11 30 14 14 21 0 38 0 30 -44 42 0 44 0 26 26 12 56 rrcurveto
            -23 7 rlineto
            -13 -34 -13 -11 -21 0 rrcurveto
            return
          </CharString>
          <CharString index="572">
            -39 -21 -37 -35 hvcurveto
            0 -26 15 -76 90 -4 rrcurveto
            4 17 rlineto
            -41 8 -18 37 0 23 rrcurveto
            11 4 7 7 40 5 25 17 vhcurveto
            16 -10 17 -36 vhcurveto
            return
          </CharString>
          <CharString index="573">
            -36 -11 -18 -16 -16 5 -25 41 hvcurveto
            return
          </CharString>
          <CharString index="574">
            7 4 -8 -10 hvcurveto
            0 -23 -18 -37 -42 -9 rrcurveto
            4 -17 rlineto
            91 5 15 75 0 26 rrcurveto
            36 -22 37 -38 vhcurveto
            return
          </CharString>
          <CharString index="575">
            28 14 16 41 vhcurveto
            26 hlineto
            5 3 3 5 hvcurveto
            0 19 -2 1 rlineto
            0 -93 -1 -36 -39 -87 1 0 vhcurveto
            -2 -1 0 -19 rlineto
            -5 4 -3 5 vhcurveto
            26 hlineto
            40 15 -14 -30 hvcurveto
            -503 vlineto
            -28 -14 -15 -41 vhcurveto
            -26 hlineto
            -5 -3 -3 -5 hvcurveto
            0 -19 2 -2 rlineto
            0 93 2 36 39 87 -2 0 vhcurveto
            2 2 0 19 rlineto
            5 -4 3 -5 vhcurveto
            -26 hlineto
            -40 -15 13 30 hvcurveto
            return
          </CharString>
          <CharString index="576">
            28 14 16 41 vhcurveto
            26 hlineto
            5 3 3 5 hvcurveto
            0 19 -2 1 rlineto
            0 -93 -1 -36 -39 -87 1 0 vhcurveto
            -2 -1 0 -19 rlineto
            -5 4 -3 4 vhcurveto
            27 hlineto
            39 15 -14 -30 hvcurveto
            -503 vlineto
            -28 -13 -15 -41 vhcurveto
            -27 hlineto
            -5 -3 -3 -5 hvcurveto
            0 -19 2 -2 rlineto
            0 94 2 35 39 87 -2 0 vhcurveto
            2 2 0 19 rlineto
            5 -4 3 -4 vhcurveto
            -26 hlineto
            -40 -15 13 30 hvcurveto
            return
          </CharString>
          <CharString index="577">
            0 -5 1 -4 3 -4 rrcurveto
            81 -136 rlineto
            2 -2 2 -2 4 0 rrcurveto
            10 5 7 5 hvcurveto
            -1 4 -39 152 rlineto
            -3 11 -10 7 -17 0 -24 0 -14 -17 0 -16 rrcurveto
            return
          </CharString>
          <CharString index="578">
            0 -5 1 -4 3 -4 rrcurveto
            81 -136 rlineto
            2 -2 2 -2 4 0 rrcurveto
            10 5 7 5 hvcurveto
            -1 4 -39 152 rlineto
            -3 11 -10 7 -17 0 rrcurveto
            -24 -14 -17 -16 hvcurveto
            return
          </CharString>
          <CharString index="579">
            -10 0 -18 -5 -4 -15 rrcurveto
            -33 -156 0 -1 rlineto
            -3 2 -9 13 vhcurveto
            2 0 4 1 2 4 rrcurveto
            76 139 rlineto
            2 3 1 4 0 4 rrcurveto
            11 -9 23 -28 vhcurveto
            return
          </CharString>
          <CharString index="580">
            127 109 -106 -208 -179 -88 -109 -115 -131 -108 113 192 hvcurveto
            210 110 87 96 vhcurveto
            return
          </CharString>
          <CharString index="581">
            198 -149 131 -166 -179 -132 -152 -196 -197 139 -125 173 191 123 141 200 vhcurveto
            return
          </CharString>
          <CharString index="582">
            198 -149 131 -166 -179 -132 -152 -196 -197 140 -125 172 191 123 141 200 vhcurveto
            return
          </CharString>
          <CharString index="583">
            126 109 -106 -208 -179 -87 -109 -115 -132 -107 113 192 hvcurveto
            210 109 87 97 vhcurveto
            return
          </CharString>
          <CharString index="584">
            -38 -22 -37 -36 hvcurveto
            0 -25 15 -76 91 -4 rrcurveto
            4 17 rlineto
            -42 8 -18 37 0 23 rrcurveto
            11 4 7 7 41 5 25 17 vhcurveto
            16 -11 17 -36 vhcurveto
            return
          </CharString>
          <CharString index="585">
            0 -5 1 -4 3 -4 rrcurveto
            82 -136 rlineto
            1 -2 2 -2 4 0 rrcurveto
            10 5 7 5 0 0 4 -1 hvcurveto
            -39 152 rlineto
            -3 11 -10 7 -17 0 rrcurveto
            -24 -14 -17 -16 hvcurveto
            return
          </CharString>
          <CharString index="586">
            -38 -22 -37 -36 hvcurveto
            0 -26 15 -75 91 -5 rrcurveto
            4 17 rlineto
            -42 9 -18 37 0 23 rrcurveto
            10 4 8 7 41 5 25 16 16 -11 18 -36 vhcurveto
            return
          </CharString>
          <CharString index="587">
            -38 -22 -38 -35 hvcurveto
            0 -26 15 -76 91 -4 rrcurveto
            4 17 rlineto
            -42 8 -18 38 0 22 rrcurveto
            11 4 7 7 41 5 25 17 16 -11 18 -36 vhcurveto
            return
          </CharString>
          <CharString index="588">
            -39 -21 -37 -35 hvcurveto
            0 -26 15 -76 90 -4 rrcurveto
            4 17 rlineto
            -41 8 -18 37 0 23 rrcurveto
            11 3 7 8 40 5 25 17 vhcurveto
            16 -11 17 -35 vhcurveto
            return
          </CharString>
          <CharString index="589">
            -39 -21 -37 -36 hvcurveto
            0 -26 15 -76 90 -4 rrcurveto
            4 17 rlineto
            -41 8 -18 38 0 23 rrcurveto
            10 3 8 8 40 5 24 17 16 -11 18 -35 vhcurveto
            return
          </CharString>
          <CharString index="590">
            0 -18 -4 -28 -11 -45 -6 25 -6 27 0 34 rrcurveto
            22 4 12 9 vhcurveto
            13 1 -18 -11 hvcurveto
            return
          </CharString>
          <CharString index="591">
            0 -18 -4 -28 -11 -45 rrcurveto
            return
          </CharString>
          <CharString index="592">
            -6 25 -6 27 0 34 rrcurveto
            22 4 12 9 13 1 -18 -11 vhcurveto
            return
          </CharString>
          <CharString index="593">
            7 4 -8 -10 hvcurveto
            0 -23 -19 -37 -42 -9 rrcurveto
            5 -17 rlineto
            91 5 15 75 0 26 rrcurveto
            36 -22 37 -38 vhcurveto
            return
          </CharString>
          <CharString index="594">
            -39 -21 -37 -36 hvcurveto
            0 -26 15 -75 90 -5 rrcurveto
            4 17 rlineto
            -41 9 -18 37 0 23 rrcurveto
            10 4 8 7 41 4 25 16 16 -10 18 -36 vhcurveto
            return
          </CharString>
          <CharString index="595">
            7 3 -8 -10 hvcurveto
            0 -23 -18 -37 -42 -9 rrcurveto
            5 -17 rlineto
            91 5 15 75 0 26 rrcurveto
            36 -22 37 -38 vhcurveto
            return
          </CharString>
          <CharString index="596">
            -10 0 -18 -5 -4 -15 rrcurveto
            -33 -156 0 -1 rlineto
            -3 2 -9 13 vhcurveto
            2 0 4 1 2 4 rrcurveto
            76 139 rlineto
            2 3 1 4 0 4 0 11 -9 23 -28 0 rrcurveto
            return
          </CharString>
          <CharString index="597">
            -39 -21 -38 -35 hvcurveto
            0 -26 15 -76 90 -4 rrcurveto
            4 17 rlineto
            -41 8 -19 38 0 22 rrcurveto
            11 4 7 8 40 5 25 17 16 -11 18 -35 vhcurveto
            return
          </CharString>
          <CharString index="598">
            -40 0 -21 45 -55 0 -40 0 -21 -28 -13 -55 rrcurveto
            22 -5 rlineto
            11 29 14 14 21 0 38 0 30 -43 42 0 44 0 26 26 12 56 rrcurveto
            -23 6 rlineto
            -13 -34 -13 -11 -21 0 rrcurveto
            return
          </CharString>
          <CharString index="599">
            0 147 -147 72 -38 17 rrcurveto
            -15 -19 rlineto
            108 -89 13 -75 0 -47 0 -97 -21 -92 -95 0 -56 0 -31 39 -20 69 20 52 8 45 0 24 rrcurveto
            31 -11 21 -30 -32 -7 -28 -30 vhcurveto
            0 -20 3 -41 21 -54 -21 -72 -31 -36 -53 0 -75 0 -44 36 0 125 0 135 91 86 32 17 rrcurveto
            -12 20 rlineto
            -113 -63 -72 -101 0 -101 0 -144 87 -45 89 0 rrcurveto
            return
          </CharString>
          <CharString index="600">
            66 0 47 33 27 69 29 -79 50 -23 51 0 123 0 59 91 0 127 rrcurveto
            return
          </CharString>
          <CharString index="601">
            -92 62 -39 61 0 112 rrcurveto
            128 73 118 138 130 82 -106 -141 vhcurveto
            0 -108 -39 -73 -92 -53 rrcurveto
            -9 -127 rlineto
            -1 -10 5 -6 12 0 rrcurveto
            208 0 rlineto
            return
          </CharString>
          <CharString index="602">
            111 37 81 103 0 120 rrcurveto
            148 -101 133 -199 -197 -102 -149 -132 vhcurveto
            0 -128 83 -95 108 -37 rrcurveto
            4 -58 -101 0 rlineto
            return
          </CharString>
          <CharString index="603">
            -53 0 -19 7 -4 53 rrcurveto
            -26 0 7 -119 211 0 rlineto
            12 0 6 6 -1 10 rrcurveto
            -8 127 rlineto
            return
          </CharString>
          <CharString index="604">
            -38 -22 -37 -35 hvcurveto
            0 -26 16 -76 90 -4 rrcurveto
            4 17 rlineto
            return
          </CharString>
          <CharString index="605">
            11 4 7 7 41 5 25 17 vhcurveto
            16 -11 17 -36 vhcurveto
            return
          </CharString>
          <CharString index="606">
            -93 62 -39 61 0 112 rrcurveto
            128 73 118 139 129 83 -106 -141 vhcurveto
            0 -108 -40 -73 -92 -53 rrcurveto
            -9 -127 rlineto
            -10 5 -6 12 vhcurveto
            207 0 rlineto
            return
          </CharString>
          <CharString index="607">
            7 119 -25 0 rlineto
            -7 -57 -21 -3 -49 0 rrcurveto
            return
          </CharString>
          <CharString index="608">
            -53 0 -19 7 -5 53 rrcurveto
            -25 0 7 -119 211 0 rlineto
            12 5 6 10 hvcurveto
            -8 127 rlineto
            return
          </CharString>
</ttFont>
